<?xml version="1.0" encoding="utf-8"?>
<!-- Generator: Adobe Illustrator 27.5.0, SVG Export Plug-In . SVG Version: 6.00 Build 0)  -->
<svg version="1.1" xmlns="http://www.w3.org/2000/svg" xmlns:xlink="http://www.w3.org/1999/xlink" x="0px" y="0px"
	 viewBox="0 0 500 500" style="enable-background:new 0 0 500 500;" xml:space="preserve">
<g id="Background_complete">
	<g>
		<g>
			<g>
				<g>
					<g>
						<path style="fill:#E0E0E0;" d="M443.92,330.198H263.174c-3.232,0-5.862-2.63-5.862-5.862V61.062
							c0-3.232,2.63-5.862,5.862-5.862H443.92c3.232,0,5.862,2.629,5.862,5.862v263.273
							C449.783,327.568,447.153,330.198,443.92,330.198z M263.174,55.45c-3.095,0-5.612,2.518-5.612,5.612v263.273
							c0,3.095,2.518,5.612,5.612,5.612H443.92c3.095,0,5.612-2.518,5.612-5.612V61.062c0-3.094-2.518-5.612-5.612-5.612H263.174z"
							/>
					</g>
				</g>
				<g>
					<g>
						<path style="fill:#E0E0E0;" d="M235.493,330.198H54.746c-3.232,0-5.862-2.63-5.862-5.862V61.062
							c0-3.232,2.629-5.862,5.862-5.862h180.747c3.232,0,5.862,2.629,5.862,5.862v263.273
							C241.355,327.568,238.725,330.198,235.493,330.198z M54.746,55.45c-3.094,0-5.612,2.518-5.612,5.612v263.273
							c0,3.095,2.518,5.612,5.612,5.612h180.747c3.095,0,5.612-2.518,5.612-5.612V61.062c0-3.094-2.518-5.612-5.612-5.612H54.746z"
							/>
					</g>
				</g>
			</g>
			<g>
				<g>
					<rect x="0" y="391.267" style="fill:#E0E0E0;" width="500" height="0.25"/>
				</g>
			</g>
		</g>
		<rect x="51.672" y="405.531" style="fill:#E0E0E0;" width="16.06" height="0.25"/>
		<rect x="170.352" y="402.821" style="fill:#E0E0E0;" width="53.53" height="0.25"/>
		<rect x="68.732" y="414.821" style="fill:#E0E0E0;" width="36.25" height="0.25"/>
		<rect x="378.352" y="402.691" style="fill:#E0E0E0;" width="43.19" height="0.25"/>
		<rect x="430.452" y="402.691" style="fill:#E0E0E0;" width="6.33" height="0.25"/>
		<rect x="316.212" y="408.921" style="fill:#E0E0E0;" width="53.89" height="0.25"/>
	</g>
	<path style="fill:#EBEBEB;" d="M454.183,372.654c0.263-3.13-0.164-7.181-3.809-8.384c-6.195-2.047-9.851-6.83-9.654-12.248
		c0.197-5.418-6.305-10.694-11.187-5.615c-4.882,5.079-4.236-3.908-10.749-6.097c-6.513-2.189-12.04,3.12-10.245,7.958
		s-4.641,7.87-12.336,3.754c-7.695-4.116-16.167,3.371-14.536,9.227c1.631,5.856,0.296,6.568-4.575,4.564
		c-3.93-1.587-10.366,1.729-11.088,6.841L454.183,372.654z"/>
	<path style="fill:#EBEBEB;" d="M104.138,372.654c0.296-2.485,0.164-6.097-2.901-7.104c-4.805-1.587-7.662-5.309-7.498-9.512
		c0.164-4.203-4.893-8.308-8.68-4.378c-3.787,3.93-3.284-3.032-8.341-4.729c-5.057-1.697-9.348,2.419-7.958,6.173
		s-3.612,6.108-9.578,2.912c-5.965-3.196-12.544,2.638-11.285,7.191c1.259,4.553,0.23,5.046-3.546,3.535
		c-3.207-1.281-8.527,1.609-8.647,5.911H104.138z"/>
	<path style="fill:#EBEBEB;" d="M86.998,372.654h112.413c1.587-5.276-2.507-11.603-6.961-12.5
		c-5.473-1.095-10.946-10.727-11.23-16.857c-0.285-6.13-10.114-24.989-25.438-13.343s-10.661,1.718-21.749-1.554
		s-18.082,6.141-13.212,13.201c0,0-11.143-2.791-15.729,7.607c-4.586,10.398,0,16.857,0,16.857S91.016,365.66,86.998,372.654z"/>
	<path style="fill:#F0F0F0;" d="M237.309,85.059c0.006-2.926,2.382-5.293,5.308-5.288c0.508,0.001,1.014,0.075,1.501,0.22
		c-0.907-6.105,3.307-11.789,9.412-12.696c0.551-0.082,1.107-0.122,1.665-0.121c0.694,0,1.386,0.063,2.069,0.186
		c2.815-4.613,8.837-6.071,13.451-3.255c2.866,1.749,4.635,4.845,4.687,8.202h0.164c4.981,0,9.019,4.038,9.019,9.019
		c0,4.981-4.038,9.019-9.019,9.019h-33.111C239.587,90.274,237.302,87.926,237.309,85.059z"/>
	<path style="fill:#F5F5F5;" d="M155.409,47.762c0-2.922,2.365-5.292,5.287-5.298c0.516,0.003,1.028,0.081,1.521,0.23
		c-0.085-0.536-0.125-1.078-0.12-1.62c0-6.184,5.013-11.198,11.198-11.198c0.69,0.001,1.379,0.063,2.058,0.186
		c2.806-4.619,8.825-6.089,13.444-3.283c2.881,1.75,4.659,4.86,4.704,8.231h0.164c4.981,0,9.019,4.038,9.019,9.019
		c0,4.981-4.038,9.019-9.019,9.019h-33.133C157.673,52.966,155.401,50.621,155.409,47.762z"/>
	<path style="fill:#F0F0F0;" d="M402.68,85.919c-0.004-1.814,1.464-3.287,3.277-3.29c0.321-0.001,0.64,0.046,0.948,0.138
		c-0.048-0.334-0.073-0.67-0.077-1.007c0-3.845,3.117-6.962,6.961-6.962l0,0c0.43,0.001,0.858,0.041,1.281,0.12
		c1.746-2.872,5.49-3.784,8.362-2.038c1.789,1.088,2.893,3.02,2.923,5.113h0.099c3.098-0.137,5.721,2.264,5.858,5.362
		c0.137,3.098-2.264,5.721-5.362,5.858c-0.165,0.007-0.331,0.007-0.496,0h-20.589C404.086,89.161,402.673,87.699,402.68,85.919z"/>
	<path style="fill:#F0F0F0;" d="M61.183,77.508c-0.005-1.814,1.46-3.288,3.274-3.294c0.326-0.001,0.65,0.047,0.962,0.141
		c-0.048-0.334-0.073-0.67-0.077-1.007c0-3.845,3.117-6.961,6.962-6.961l0,0c0.43,0.001,0.858,0.041,1.281,0.12
		c1.746-2.872,5.49-3.784,8.362-2.038c1.789,1.088,2.893,3.02,2.923,5.113h0.099c3.095,0.002,5.603,2.513,5.601,5.608
		c-0.002,3.092-2.508,5.599-5.601,5.601H64.412C62.62,80.762,61.183,79.301,61.183,77.508z"/>
	<path style="fill:#F0F0F0;" d="M96.898,225.351c-0.005-1.814,1.461-3.288,3.274-3.294c0.326-0.001,0.65,0.047,0.962,0.141
		c-0.048-0.334-0.073-0.67-0.077-1.007c0-3.845,3.117-6.962,6.961-6.962l0,0c0.43,0.001,0.858,0.041,1.281,0.12
		c1.746-2.872,5.49-3.784,8.362-2.038c1.789,1.088,2.893,3.02,2.923,5.113h0.099c3.095,0.002,5.603,2.513,5.601,5.608
		c-0.002,3.092-2.508,5.599-5.601,5.601h-20.556C98.335,228.605,96.898,227.143,96.898,225.351z"/>
	<path style="fill:#F5F5F5;" d="M322.895,60.096c0-2.4,1.945-4.345,4.345-4.345c0.421-0.003,0.841,0.056,1.245,0.174
		c-0.058-0.442-0.087-0.887-0.087-1.333c0-5.088,4.124-9.212,9.212-9.212c0.568,0.001,1.136,0.055,1.695,0.159
		c2.296-3.8,7.237-5.019,11.037-2.723c2.383,1.44,3.851,4.01,3.881,6.793h0.145c4.096,0.003,7.414,3.325,7.411,7.42
		c-0.003,4.092-3.319,7.409-7.411,7.411h-27.244C324.77,64.378,322.895,62.451,322.895,60.096z"/>
	<g>
		<path style="fill:#E6E6E6;" d="M240.941,136.229c-1.074-0.919-2.419-2.135-1.954-3.429c0.375-1.048,1.708-1.397,2.458-2.225
			c1.54-1.682,0.103-4.425-1.708-5.809c-1.811-1.384-4.14-2.445-4.891-4.606c-0.126-0.585-0.331-1.151-0.608-1.682
			c-1.087-1.617-3.61-0.543-5.175,0.608c-0.532,0.391-1.176,0.765-1.837,1.027c-0.23-0.908-0.652-1.714-1.23-2.204
			c-1.061-0.919-2.419-2.135-1.954-3.429c0.375-1.061,1.708-1.397,2.471-2.225c1.527-1.682,0.091-4.425-1.721-5.809
			s-4.14-2.445-4.878-4.606c-0.131-0.586-0.34-1.152-0.621-1.682c-1.087-1.617-3.61-0.569-5.175,0.595
			c-1.566,1.164-4.101,2.187-5.175,0.543c-0.621-0.945-0.259-2.29-0.854-3.247c-0.996-1.604-3.532-0.841-4.968,0.375
			s-3.028,2.846-4.865,2.419c-0.007-0.001-0.012-0.005-0.018-0.007c0.471-0.199,0.992-0.362,1.429-0.588
			c2.355-1.242,2.031-5.771,0.246-7.284c-1.074-0.919-2.419-2.122-1.954-3.416c0.375-1.061,1.708-1.397,2.458-2.238
			c1.54-1.682,0.104-4.438-1.708-5.809s-4.14-2.445-4.891-4.606c-0.129-0.585-0.333-1.15-0.608-1.682
			c-1.087-1.617-3.623-0.556-5.175,0.608c-1.553,1.164-4.101,2.174-5.175,0.53c-0.608-0.945-0.259-2.277-0.854-3.248
			c-0.983-1.604-3.519-0.854-4.955,0.375c-1.436,1.229-3.028,2.846-4.865,2.419c-1.604-0.375-2.484-2.187-4.192-2.394
			c-1.708-0.207-3.066,1.54-3.48,3.209c-0.414,1.669-0.388,3.506-1.294,4.981c-0.081-0.016-0.165-0.029-0.248-0.043
			c-1.152-0.823-2.194-1.73-2.65-3.036c-0.126-0.585-0.331-1.151-0.608-1.682c-1.087-1.617-3.623-0.569-5.175,0.595
			s-4.102,2.187-5.175,0.543c-0.608-0.944-0.259-2.29-0.854-3.247c-0.983-1.604-3.519-0.841-4.955,0.375
			c-1.436,1.216-3.028,2.846-4.865,2.407c-1.604-0.375-2.484-2.187-4.192-2.394s-3.066,1.54-3.48,3.209
			c-0.414,1.669-0.388,3.506-1.294,4.981c-2.484-0.479-5.887-0.388-6.469,2.044c-0.242,1.036,0.197,2.022,0.809,2.943
			c-0.304,0.174-0.595,0.364-0.848,0.576c-1.449,1.216-3.04,2.846-4.878,2.419c-1.591-0.375-2.458-2.187-4.179-2.394
			c-1.721-0.207-3.079,1.54-3.48,3.209c-0.401,1.669-0.388,3.506-1.294,4.968c-2.497-0.466-5.887-0.375-6.469,2.057
			c-0.388,1.604,0.854,3.092,1.876,4.399c1.022,1.307,1.876,3.209,0.815,4.502c-1.716-0.086-3.419,0.342-4.891,1.229
			c-1.488,0.951-2.078,2.834-1.397,4.464c0.757,1.057,1.853,1.824,3.105,2.174c3.674,1.483,2.502,4.743,1.409,7.374
			c-0.124-0.011-0.247-0.009-0.374-0.038c-1.604-0.375-2.484-2.187-4.192-2.394s-3.066,1.54-3.48,3.209
			c-0.414,1.669-0.388,3.506-1.294,4.968c-2.497-0.466-5.887-0.375-6.469,2.057c-0.388,1.604,0.867,3.092,1.876,4.399
			c1.009,1.307,1.863,3.209,0.815,4.503c-1.723-0.067-3.426,0.384-4.891,1.294c-1.484,0.954-2.077,2.83-1.41,4.464
			c0.762,1.058,1.862,1.825,3.118,2.174c6.443,2.601-2.018,10.687,1.177,11.218c4.089,0.686,8.902-0.116,9.199,4.917
			c0.036,0.821,0.158,1.636,0.362,2.432c0.776,2.795,2.769,3.985,6.87,2.031c2.601-1.229,3.235-2.756,6.198-2.381
			c2.122,0.246,3.661,1.734,6.003,1.54c0.324-0.003,0.644-0.083,0.932-0.233c0.293-0.19,0.537-0.447,0.712-0.75
			c2.083-2.963,3.713-1.76,7.116-1.902c0.268,0.015,0.533-0.062,0.75-0.22c0.204-0.212,0.315-0.495,0.311-0.789
			c0.086-0.87,0.007-1.748-0.233-2.588c-0.172-0.409-0.217-0.859-0.129-1.294c0.168-0.582,0.906-0.802,1.462-1.074
			c0.214-0.118,0.417-0.252,0.61-0.402c1.045-0.812,1.645-1.979,1.776-3.199c3.206,0.3,6.194,0.693,6.424,4.597
			c0.034,0.822,0.16,1.638,0.375,2.432c0.763,2.795,2.756,3.985,6.844,2.031c2.601-1.229,3.235-2.756,6.197-2.381
			c2.122,0.246,3.662,1.734,6.003,1.54c0.325-0.003,0.644-0.083,0.932-0.233c0.293-0.19,0.537-0.447,0.712-0.75
			c2.083-2.963,3.713-1.76,7.116-1.902c0.073,0.011,0.147,0.012,0.221,0.006c0.512-0.048,0.889-0.503,0.84-1.015
			c0.078-0.848-0.001-1.703-0.233-2.523c-0.172-0.409-0.217-0.859-0.129-1.294c0.168-0.582,0.906-0.815,1.462-1.074
			c0.222-0.122,0.434-0.261,0.634-0.417c0.584-0.457,1.013-1.032,1.314-1.658c1.088,0.33,2.548,0.12,4.483-0.811
			c2.613-1.216,3.247-2.756,6.21-2.368c2.122,0.246,3.662,1.721,6.003,1.54c0.325-0.014,0.642-0.098,0.932-0.246
			c0.29-0.194,0.534-0.45,0.712-0.75c0.057-0.081,0.112-0.146,0.168-0.221c0.051,0.486-0.04,0.955-0.362,1.347
			c-1.362-0.071-2.714,0.267-3.882,0.97c-1.175,0.749-1.639,2.235-1.1,3.519c0.597,0.831,1.459,1.434,2.445,1.708
			c5.072,2.044-1.592,8.41,0.931,8.824c3.222,0.543,7-0.09,7.246,3.882c0.027,0.646,0.123,1.288,0.285,1.915
			c0.608,2.2,2.174,3.079,5.447,1.579c2.057-0.97,2.549-2.174,4.891-1.876c1.682,0.22,2.885,1.371,4.723,1.216
			c0.256-0.006,0.508-0.068,0.738-0.181c0.224-0.159,0.413-0.361,0.556-0.595c1.63-2.329,2.924-1.384,5.602-1.501
			c0.211,0.006,0.419-0.053,0.595-0.168c0.153-0.17,0.237-0.392,0.233-0.621c0.068-0.669,0.011-1.345-0.168-1.993
			c-0.146-0.324-0.187-0.686-0.116-1.035c0.168-0.466,0.712-0.634,1.164-0.854c0.165-0.092,0.324-0.196,0.473-0.312
			c1.107-0.859,1.574-2.222,1.361-3.514c0.588-0.172,1.258-0.246,2.151-0.133c2.122,0.246,3.662,1.734,6.004,1.54
			c0.324-0.005,0.643-0.085,0.932-0.233c0.287-0.197,0.53-0.453,0.712-0.75c2.07-2.963,3.713-1.76,7.116-1.902
			c0.268,0.013,0.532-0.064,0.751-0.22c0.198-0.215,0.304-0.497,0.298-0.789c0.089-0.847,0.014-1.704-0.22-2.523
			c-0.175-0.407-0.225-0.858-0.142-1.294c0.181-0.582,0.906-0.815,1.475-1.074c0.205-0.114,0.401-0.243,0.587-0.386
			c2.054-1.585,2.434-4.534,0.849-6.587c-0.66-0.75-1.682-1.397-1.436-2.484c0.246-1.087,1.695-1.255,2.678-1.772
			C243.037,142.271,242.714,137.743,240.941,136.229z M128.394,150.43c-0.146-0.29-0.217-0.607-0.133-0.978
			c0.096-0.427,0.382-0.71,0.749-0.93C128.862,149.161,128.639,149.806,128.394,150.43z"/>
		<path style="fill:#EBEBEB;" d="M119.346,151.885c0,0,8.501,12.033,11.438,15.85c2.937,3.817,17.609,27.585,19.602,43.305
			c0.207,1.669,0.427,3.118,0.634,4.373c-6.314,41.662-5.331,117.869-5.098,130.91h19.99c0.181-14.711,1.876-149.192,2.51-153.294
			c0.66-4.347,9.057-20.895,21.93-27.688c12.874-6.793,24.065-29.292,24.065-29.292h-4.114c0,0-7.634,13.779-18.489,21.413
			c-1.558,1.076-3.188,2.044-4.878,2.898c0.028-8.297-1.435-16.532-4.321-24.311l-2.225,2.044
			c3.002,12.291,2.588,20.158,1.695,24.673c-4.1,1.921-7.883,4.456-11.218,7.517c-11.269-14.646-17.596-48.144-17.596-48.144
			l-2.885,1.579c0.818,6.919,2.062,13.781,3.726,20.546c2.109,8.669,8.319,24.984,11.205,32.346
			c-3.456,4.966-6.31,10.326-8.5,15.966c-0.306-0.475-0.672-0.91-1.087-1.294c-7.336-6.637-21.128-37.961-21.128-37.961
			c-3.338-7.284,1.76-26.407,1.76-26.407h-3.882l-1.721,16.716l-9.678-10.558l-1.76,1.462l10.26,13.21l5.279,16.729l-13.779-15.267
			L119.346,151.885z"/>
	</g>
	<g>
		<path style="fill:#E6E6E6;" d="M479.616,184.327c-1.464-0.878-3.155-1.303-4.86-1.223c-1.039-1.257-0.201-3.184,0.821-4.474
			c1.022-1.29,2.246-2.765,1.86-4.374c-0.57-2.413-3.955-2.497-6.385-2.028c-0.683-1.573-1.129-3.239-1.324-4.944
			c-0.436-1.676-1.76-3.352-3.469-3.201c-1.709,0.151-2.581,2.011-4.156,2.38c-0.121,0.028-0.245,0.026-0.369,0.033
			c-1.093-2.622-2.29-5.893,1.391-7.372c1.244-0.348,2.332-1.111,3.083-2.162c0.668-1.622,0.083-3.49-1.391-4.441
			c-1.462-0.883-3.154-1.309-4.86-1.223c-1.056-1.274-0.201-3.184,0.804-4.474c1.006-1.29,2.262-2.782,1.877-4.374
			c-0.586-2.413-3.955-2.497-6.401-2.028c-0.673-1.577-1.119-3.241-1.324-4.943c-0.436-1.676-1.676-3.352-3.452-3.201
			c-1.776,0.151-2.581,2.011-4.156,2.38s-3.352-1.19-4.843-2.396c-0.247-0.2-0.526-0.379-0.815-0.546
			c0.597-0.91,1.011-1.887,0.764-2.906c-0.57-2.413-3.955-2.497-6.385-2.028c-0.691-1.6-1.137-3.295-1.324-5.027
			c-0.436-1.676-1.759-3.352-3.469-3.201c-1.709,0.151-2.581,2.011-4.156,2.38c-1.827,0.436-3.352-1.19-4.843-2.396
			c-1.492-1.207-3.938-1.961-4.91-0.369c-0.603,0.955-0.251,2.279-0.855,3.234c-1.073,1.676-3.586,0.603-5.161-0.553
			c-1.575-1.156-4.055-2.195-5.161-0.587c-0.28,0.527-0.483,1.091-0.603,1.676c-0.483,1.364-1.607,2.293-2.823,3.147
			c-0.678-1.568-1.122-3.226-1.316-4.923c-0.436-1.676-1.676-3.352-3.452-3.184c-1.776,0.168-2.581,1.994-4.156,2.363
			c-1.575,0.369-3.352-1.173-4.843-2.396c-1.491-1.223-3.938-1.961-4.927-0.369c-0.587,0.955-0.235,2.296-0.855,3.234
			c-1.056,1.676-3.586,0.62-5.145-0.536c-1.559-1.156-4.072-2.212-5.178-0.603c-0.273,0.53-0.476,1.093-0.603,1.676
			c-0.737,2.145-3.05,3.201-4.843,4.575c-1.793,1.374-3.234,4.106-1.676,5.781c0.754,0.821,2.078,1.156,2.447,2.212
			c0.469,1.307-0.871,2.497-1.944,3.352c-1.76,1.491-2.095,5.999,0.251,7.239c0.409,0.215,0.892,0.368,1.338,0.543
			c-1.795,0.362-3.301-1.212-4.773-2.403c-1.491-1.206-3.938-1.977-4.927-0.385c-0.587,0.955-0.235,2.296-0.855,3.234
			c-1.056,1.676-3.586,0.62-5.161-0.536c-1.575-1.156-4.055-2.212-5.161-0.603c-0.268,0.532-0.47,1.095-0.603,1.676
			c-0.737,2.145-3.05,3.201-4.86,4.575c-1.81,1.374-3.217,4.106-1.676,5.781c0.737,0.821,2.061,1.156,2.447,2.212
			c0.385,1.056-0.888,2.497-1.944,3.352c-0.591,0.502-1.016,1.337-1.24,2.27c-0.651-0.266-1.286-0.641-1.81-1.03
			c-1.559-1.156-4.072-2.212-5.161-0.603c-0.286,0.526-0.494,1.09-0.62,1.676c-0.737,2.145-3.05,3.201-4.843,4.575
			c-1.793,1.374-3.234,4.106-1.676,5.781c0.754,0.821,2.078,1.156,2.447,2.212c0.469,1.307-0.871,2.48-1.944,3.352
			c-1.676,1.508-2.095,6.016,0.251,7.256c0.989,0.503,2.43,0.67,2.664,1.76c0.235,1.089-0.771,1.676-1.424,2.463
			c-1.573,2.036-1.198,4.962,0.838,6.535c0.185,0.143,0.381,0.272,0.586,0.386c0.57,0.268,1.257,0.486,1.458,1.089
			c0.097,0.439,0.05,0.897-0.134,1.307c-0.223,0.812-0.297,1.658-0.218,2.497c0,0.291,0.107,0.572,0.302,0.788
			c0.217,0.147,0.475,0.223,0.737,0.218c3.352,0.151,5.027-1.056,7.089,1.894c0.171,0.3,0.413,0.553,0.704,0.737
			c0.283,0.154,0.6,0.235,0.922,0.235c2.329,0.201,3.838-1.257,5.966-1.525c0.877-0.11,1.537-0.04,2.115,0.125
			c-0.183,1.257,0.28,2.573,1.354,3.409c0.153,0.119,0.315,0.226,0.485,0.319c0.436,0.218,0.989,0.385,1.156,0.855
			c0.073,0.35,0.032,0.714-0.117,1.039c-0.173,0.638-0.229,1.302-0.168,1.961c-0.052,0.385,0.217,0.74,0.603,0.792
			c0.073,0.01,0.146,0.008,0.218-0.005c2.664,0.117,3.938-0.821,5.564,1.491c0.144,0.23,0.332,0.429,0.553,0.586
			c0.228,0.117,0.481,0.18,0.737,0.184c1.827,0.151,3.033-0.989,4.692-1.207c2.329-0.285,2.815,0.905,4.86,1.86
			c3.268,1.642,4.826,0.704,5.43-1.491c0.155-0.621,0.25-1.255,0.285-1.894c0.235-3.938,4.005-3.352,7.206-3.854
			c2.497-0.419-4.122-6.703,0.922-8.781c0.979-0.261,1.838-0.854,2.43-1.676c0.519-1.282,0.055-2.751-1.106-3.502
			c-1.152-0.688-2.481-1.02-3.821-0.955c-0.331-0.405-0.412-0.89-0.349-1.391c0.038,0.052,0.076,0.096,0.114,0.151
			c0.18,0.297,0.42,0.554,0.704,0.754c0.292,0.145,0.612,0.225,0.938,0.235c2.329,0.184,3.838-1.257,5.966-1.525
			c2.949-0.385,3.569,1.14,6.167,2.363c1.927,0.967,3.384,1.2,4.467,0.883c0.3,0.615,0.725,1.178,1.301,1.627
			c0.195,0.152,0.401,0.288,0.617,0.406c0.57,0.268,1.257,0.486,1.458,1.089c0.089,0.439,0.042,0.895-0.134,1.307
			c-0.223,0.812-0.297,1.658-0.218,2.497c-0.007,0.292,0.101,0.575,0.302,0.788c0.217,0.147,0.475,0.223,0.737,0.218
			c3.352,0.151,5.027-1.056,7.072,1.894c0.176,0.296,0.417,0.548,0.704,0.737c0.29,0.152,0.611,0.232,0.938,0.235
			c2.313,0.201,3.838-1.257,5.966-1.525c2.949-0.369,3.569,1.139,6.167,2.363c4.055,1.994,6.033,0.771,6.804-2.011
			c0.21-0.789,0.334-1.598,0.369-2.413c0.236-3.927,3.172-4.295,6.41-4.588c0.138,1.192,0.733,2.33,1.754,3.126
			c0.195,0.152,0.401,0.287,0.617,0.406c0.553,0.268,1.24,0.486,1.458,1.072c0.089,0.445,0.042,0.906-0.134,1.324
			c-0.229,0.811-0.308,1.657-0.235,2.497c-0.001,0.291,0.107,0.572,0.302,0.788c0.223,0.149,0.486,0.225,0.754,0.218
			c3.352,0.151,5.027-1.056,7.072,1.894c0.176,0.296,0.416,0.548,0.704,0.737c0.283,0.154,0.6,0.235,0.922,0.235
			c2.329,0.201,3.854-1.257,5.966-1.525c2.949-0.369,3.569,1.14,6.167,2.363c4.055,2.028,6.033,0.855,6.804-1.927
			c0.196-0.791,0.314-1.599,0.352-2.413c0.302-5.027,5.027-4.223,9.15-4.893c3.184-0.536-5.228-8.563,1.173-11.144
			c1.247-0.341,2.337-1.106,3.083-2.162C481.675,187.146,481.09,185.278,479.616,184.327z M436.699,191.445
			c0.372,0.209,0.661,0.474,0.754,0.875c0.085,0.364,0.006,0.684-0.156,0.982C437.06,192.694,436.844,192.067,436.699,191.445z"/>
		<path style="fill:#EBEBEB;" d="M446.318,194.783c0,0-8.463,11.965-11.378,15.752c-2.916,3.787-17.495,27.399-19.472,43.034
			c-0.218,1.676-0.436,3.1-0.637,4.357c6.267,41.391,5.295,117.119,5.027,130.089h-19.891
			c-0.184-14.629-1.877-148.271-2.497-152.343c-0.654-4.324-8.965-20.763-21.785-27.516c-12.82-6.753-23.863-29.141-23.863-29.141
			h4.089c0,0,7.591,13.691,18.433,21.282c1.552,1.062,3.169,2.025,4.843,2.882c-0.043-8.244,1.393-16.428,4.24-24.164l2.212,2.028
			c-2.983,12.216-2.581,20.109-1.676,24.516c4.078,1.91,7.841,4.43,11.161,7.474c11.194-14.562,17.478-47.843,17.478-47.843
			l2.882,1.575c-0.847,6.885-2.112,13.713-3.787,20.444c-2.095,8.613-8.278,24.835-11.144,32.191
			c3.405,4.943,6.217,10.27,8.379,15.869c0.303-0.477,0.67-0.911,1.089-1.29c7.29-6.602,20.997-37.738,20.997-37.738
			c3.352-7.239-1.759-26.242-1.759-26.242h3.837l1.676,16.624l9.619-10.49l1.759,1.458l-10.038,13.155l-5.262,16.624l13.708-15.166
			L446.318,194.783z"/>
	</g>
	<path style="fill:#F0F0F0;" d="M26.85,370.531h451.974c5.036,0,9.118,3.881,9.118,8.669v0v13.047l0,0H17.732l0,0v-13.058
		C17.738,374.405,21.818,370.531,26.85,370.531z"/>
	<g id="freepik--Streetlight--inject-443">
		<polygon style="fill:#E0E0E0;" points="74.797,134.569 71.626,165.027 55.753,165.027 52.582,134.569 		"/>
		<rect x="60.741" y="158.481" style="fill:#E0E0E0;" width="5.906" height="206.97"/>
		<polygon style="fill:#F0F0F0;" points="69.957,163.172 57.422,163.172 54.64,136.424 72.739,136.424 		"/>
		<polygon style="fill:#E0E0E0;" points="62.039,163.589 61.186,163.589 60.259,135.496 61.112,135.496 		"/>
		<path style="fill:#E0E0E0;" d="M63.689,124.778c0,0-9.411,9.272-16.624,9.272l2.235,1.474h28.742l2.234-1.474
			C73.1,134.069,63.689,124.778,63.689,124.778z"/>
	</g>
	<g id="freepik--Bench--inject-443">
		<polygon style="fill:#E0E0E0;" points="374.417,390.89 379.769,390.89 368.824,329.112 363.471,329.112 		"/>
		<polygon style="fill:#E0E0E0;" points="208.041,390.89 213.393,390.89 202.447,329.112 197.095,329.112 		"/>
		<rect x="161.466" y="360.001" style="fill:#E0E0E0;" width="210.159" height="5.418"/>
		<polygon style="fill:#E0E0E0;" points="325.04,390.89 319.688,390.89 330.634,329.112 335.986,329.112 		"/>
		<polygon style="fill:#E0E0E0;" points="158.664,390.89 153.312,390.89 164.258,329.112 169.61,329.112 		"/>
		<polygon style="fill:#E0E0E0;" points="207.22,326.704 212.55,326.704 221.46,277.13 216.141,277.13 		"/>
		<polygon style="fill:#E0E0E0;" points="361.698,326.704 367.029,326.704 375.949,277.13 370.619,277.13 		"/>
		<polygon style="fill:#E0E0E0;" points="284.464,326.704 289.784,326.704 298.705,277.13 293.374,277.13 		"/>
		<polygon style="fill:#E0E0E0;" points="198.014,280.513 386.621,280.513 388.285,271.23 199.689,271.23 		"/>
		<polygon style="fill:#E0E0E0;" points="194.993,297.303 383.6,297.303 385.275,288.021 196.668,288.021 		"/>
		<polygon style="fill:#E0E0E0;" points="191.972,314.083 380.579,314.083 382.254,304.801 193.647,304.801 		"/>
		<rect x="152.184" y="325.248" style="fill:#E0E0E0;" width="227.005" height="6.414"/>
	</g>
</g>
<g id="Background_simple" style="display:none;">
	<g style="display:inline;">
		<path style="fill:#407BFF;" d="M185.766,91.826c-21.564,2.847-42.358,8.907-60.801,18.413
			c-21.737,11.204-43.946,28.659-37.386,51.49c12.11,42.149,70.206,42.917,58.607,71.257c-13.139,32.101-4.328,69.757,54.63,80.228
			c111.982,19.889,247.351-96.484,209.331-160.43C386.477,112.975,300.266,76.712,185.766,91.826z"/>
		<path style="opacity:0.9;fill:#FFFFFF;" d="M185.766,91.826c-21.564,2.847-42.358,8.907-60.801,18.413
			c-21.737,11.204-43.946,28.659-37.386,51.49c12.11,42.149,70.206,42.917,58.607,71.257c-13.139,32.101-4.328,69.757,54.63,80.228
			c111.982,19.889,247.351-96.484,209.331-160.43C386.477,112.975,300.266,76.712,185.766,91.826z"/>
	</g>
</g>
<g id="Shadow">
	<g>
		<g>
			<path style="fill:#F5F5F5;" d="M458.875,454.727c0,3.387-93.517,6.132-208.875,6.132s-208.875-2.745-208.875-6.132
				c0-3.387,93.516-6.132,208.875-6.132S458.875,451.34,458.875,454.727z"/>
		</g>
	</g>
</g>
<g id="Characters">
	<g>
		<g>
			<path style="fill:#E9B376;" d="M233.13,173.32l-7.344,19.526l-44.279,19.531l2.042,8.401c0,0,48.403-6.663,52.041-10.549
				c3.639-3.886,15.52-31.042,15.52-31.042L233.13,173.32z"/>
			<polygon style="opacity:0.3;" points="231.329,178.109 230.173,181.184 244.154,186.795 245.836,190.854 247.007,188.317 
				246.467,181.646 			"/>
			<g>
				<g>
					<g>
						<g>
							<g>
								<g>
									<g>
										<path style="fill:#E9B376;" d="M191.522,210.249c0,0-1.692-3.647-4.827-4.754c-3.135-1.107-5.344-2.825-7.732-3.486
											c-2.388-0.662-0.533,2.121,0.754,3.401c1.286,1.28,2.731,2.745,1.613,3.555c-1.118,0.811-12.928,2.076-14.35,3.376
											c-1.422,1.3,0.552,1.693,0.552,1.693s-2.86,0.385-3.016,1.559c-0.041,0.305,0.36,1.08,1.69,1.109
											c2.994,0.065,9.284-0.121,9.284-0.121c-0.361,0.003-8.109,0.788-9.254,1.057c-1.497,0.352-2.023,1.281-1.791,2.142
											c0.33,1.225,9.97,0.58,10.395,0.837c0,0-5.562,0.186-6.3,1.648c-0.738,1.462,2.77,1.536,5.875,1.014
											c2.846-0.479,8.556-0.673,11.402-1.44c3.508-0.945,5.65-2.368,6.203-5.73
											C192.575,212.747,191.522,210.249,191.522,210.249z"/>
									</g>
								</g>
							</g>
						</g>
					</g>
				</g>
				
					<path style="opacity:0.3;fill:none;stroke:#000000;stroke-width:0.25;stroke-linecap:round;stroke-linejoin:round;stroke-miterlimit:10;" d="
					M167.898,213.911c2.3-0.251,4.611-0.396,6.924-0.437"/>
				
					<path style="opacity:0.3;fill:none;stroke:#000000;stroke-width:0.25;stroke-linecap:round;stroke-linejoin:round;stroke-miterlimit:10;" d="
					M177.004,220.619c-1.092-2.781-1.344-5.887-0.713-8.808"/>
				
					<path style="opacity:0.3;fill:none;stroke:#000000;stroke-width:0.25;stroke-linecap:round;stroke-linejoin:round;stroke-miterlimit:10;" d="
					M182.335,210.066c0.31,1.178,1.042,2.24,2.032,2.948c0.99,0.709,2.231,1.06,3.446,0.973"/>
			</g>
		</g>
		<g>
			<g>
				<g>
					<path style="fill:#407BFF;" d="M201.162,156.835c0,0,8.416,0.018,11.051,10.183c2.635,10.166,2.1,48.785,3.438,54.488
						c1.338,5.703,12.557,48.23,15.11,68.787c0,0-11.903,1.02-12.972,0.802c-1.068-0.218-18.869-83.865-18.869-83.865
						L201.162,156.835z"/>
				</g>
				<g style="opacity:0.3;">
					<path d="M201.162,156.835c0,0,8.416,0.018,11.051,10.183c2.635,10.166,2.1,48.785,3.438,54.488
						c1.338,5.703,12.557,48.23,15.11,68.787c0,0-11.903,1.02-12.972,0.802c-1.068-0.218-18.869-83.865-18.869-83.865
						L201.162,156.835z"/>
				</g>
				<g>
					<path style="fill:#407BFF;" d="M217.899,175.343c5.934,11.967,15.375,24.689,15.375,24.689
						c3.044-0.463,23.094-8.675,23.094-8.675l2.216,8.584c0,0-6.464,6.474-13.331,10.986c-12.12,7.965-16.592,7.455-22.773,1.04
						c-6.181-6.415-18.777-30.219-18.777-30.219l4.398-21.56l-1.109-1.281C213.665,161.806,215.039,169.574,217.899,175.343z"/>
				</g>
				<g style="opacity:0.3;">
					<path d="M217.899,175.343c5.934,11.967,15.375,24.689,15.375,24.689c3.044-0.463,23.094-8.675,23.094-8.675l2.216,8.584
						c0,0-6.464,6.474-13.331,10.986c-12.12,7.965-16.592,7.455-22.773,1.04c-6.181-6.415-18.777-30.219-18.777-30.219l4.398-21.56
						l-1.109-1.281C213.665,161.806,215.039,169.574,217.899,175.343z"/>
				</g>
				<path style="opacity:0.3;" d="M214.56,200.676c0,0,1-10.372,0-16.146c-1-5.774-2.091-11.21-2.091-11.21
					s3.817,8.729,4.253,15.098s0.161,16.036,0.161,16.036L214.56,200.676z"/>
				<path style="opacity:0.3;" d="M245.051,195.877c-0.079,0.031,1.648,14.068,1.648,14.068l2.853-2.106l-1.837-13.007
					L245.051,195.877z"/>
			</g>
			<g>
				<g>
					<polygon style="fill:#E9B376;" points="147.88,443.906 158.663,444.961 164.554,417.434 147.88,415.875 					"/>
					<g>
						<path style="fill:#407BFF;" d="M160.225,440.574h-3.85c-0.871,0-1.677,0.441-2.192,1.144c-2.22,3.032-3.889,1.886-6.303-0.965
							c-1.535-0.179-1.949,1.583-2.074,2.056l-2.878,10.469c-0.25,0.874,0.256,1.786,1.13,2.036
							c0.156,0.044,0.317,0.066,0.478,0.063c4.675,0,6.887,0,12.706,0h17.796c4.851,0,5.857-4.889,3.858-5.341
							c-8.986-1.986-15.349-4.63-18.127-7.244C160.256,442.335,160.785,441.992,160.225,440.574z"/>
						<path style="opacity:0.3;" d="M160.225,440.574h-3.85c-0.871,0-1.677,0.441-2.192,1.144c-2.22,3.032-3.889,1.886-6.303-0.965
							c-1.535-0.179-1.949,1.583-2.074,2.056l-2.878,10.469c-0.25,0.874,0.256,1.786,1.13,2.036
							c0.156,0.044,0.317,0.066,0.478,0.063c4.675,0,6.887,0,12.706,0h17.796c4.851,0,5.857-4.889,3.858-5.341
							c-8.986-1.986-15.349-4.63-18.127-7.244C160.256,442.335,160.785,441.992,160.225,440.574z"/>
						<path style="fill:#263238;" d="M168.58,443.551c0.405-0.291,0.648-0.758,0.653-1.257c0.034-0.268-0.088-0.531-0.314-0.679
							c-1.207-0.855-6.02,1.395-6.561,1.659c-0.06,0.022-0.107,0.069-0.129,0.129c-0.04,0.111,0.018,0.234,0.129,0.273
							c1.183,0.28,2.392,0.436,3.607,0.465C166.877,444.229,167.793,444.022,168.58,443.551z M168.617,441.98
							c0.098,0.061,0.148,0.176,0.126,0.289c-0.02,0.36-0.194,0.694-0.478,0.917c-1.093,0.817-3.733,0.465-5.153,0.201
							C165.111,442.508,167.951,441.515,168.617,441.98z"/>
						<path style="fill:#263238;" d="M162.522,443.727c1.445-0.603,4.474-2.979,4.311-4.236c-0.025-0.264-0.214-0.578-0.867-0.666
							c-2.639-0.302-3.77,4.436-3.77,4.638c-0.026,0.081-0.001,0.17,0.063,0.226c0.049,0.015,0.102,0.015,0.151,0L162.522,443.727z
							 M165.878,439.215c0.49,0.05,0.49,0.226,0.49,0.289c0.138,0.767-2.061,2.74-3.632,3.569c0.327-1.106,1.295-3.871,2.966-3.871
							L165.878,439.215z"/>
						
							<path style="fill:none;stroke:#263238;stroke-width:0.5;stroke-linecap:round;stroke-linejoin:round;stroke-miterlimit:10;" d="
							M162.083,443.546c-1.326,0.181-2.556,0.973-3.269,2.106"/>
						
							<path style="fill:none;stroke:#263238;stroke-width:0.5;stroke-linecap:round;stroke-linejoin:round;stroke-miterlimit:10;" d="
							M164.37,445.147c-1.326,0.181-2.556,0.973-3.27,2.106"/>
						
							<path style="fill:none;stroke:#263238;stroke-width:0.5;stroke-linecap:round;stroke-linejoin:round;stroke-miterlimit:10;" d="
							M167.64,446.757c-1.326,0.181-2.556,0.973-3.27,2.106"/>
					</g>
				</g>
				<g>
					<polygon style="fill:#E9B376;" points="200.141,443.071 210.924,444.126 215.916,416.501 200.596,414.833 					"/>
					<g>
						<path style="fill:#407BFF;" d="M212.486,439.739h-3.85c-0.871,0-1.677,0.441-2.192,1.144c-2.22,3.032-3.889,1.886-6.303-0.965
							c-1.535-0.179-1.948,1.583-2.074,2.056l-2.878,10.469c-0.25,0.874,0.256,1.786,1.13,2.036
							c0.156,0.045,0.317,0.066,0.479,0.063c4.675,0,6.887,0,12.706,0H227.3c4.851,0,5.857-4.889,3.858-5.341
							c-8.986-1.986-15.349-4.63-18.127-7.244C212.516,441.499,213.045,441.157,212.486,439.739z"/>
						<path style="fill:#263238;" d="M220.84,442.716c0.405-0.291,0.648-0.758,0.654-1.257c0.034-0.268-0.088-0.531-0.314-0.679
							c-1.206-0.855-6.02,1.395-6.561,1.659c-0.06,0.022-0.107,0.069-0.129,0.129c-0.04,0.111,0.018,0.234,0.129,0.273
							c1.183,0.28,2.392,0.436,3.607,0.465C219.138,443.393,220.054,443.187,220.84,442.716z M220.878,441.145
							c0.098,0.061,0.148,0.176,0.126,0.289c-0.02,0.36-0.194,0.694-0.478,0.917c-1.094,0.817-3.733,0.465-5.153,0.201
							C217.371,441.673,220.211,440.68,220.878,441.145z"/>
						<path style="fill:#263238;" d="M214.782,442.892c1.445-0.603,4.474-2.979,4.311-4.236c-0.025-0.264-0.214-0.578-0.867-0.666
							c-2.639-0.302-3.77,4.437-3.77,4.638c-0.026,0.081-0.001,0.17,0.063,0.226c0.049,0.015,0.102,0.015,0.151,0L214.782,442.892z
							 M218.138,438.38c0.49,0.05,0.49,0.226,0.49,0.289c0.138,0.767-2.061,2.74-3.632,3.569c0.327-1.106,1.295-3.871,2.966-3.871
							L218.138,438.38z"/>
						
							<path style="fill:none;stroke:#263238;stroke-width:0.5;stroke-linecap:round;stroke-linejoin:round;stroke-miterlimit:10;" d="
							M215.158,442.71c-1.326,0.181-2.556,0.973-3.27,2.106"/>
						
							<path style="fill:none;stroke:#263238;stroke-width:0.5;stroke-linecap:round;stroke-linejoin:round;stroke-miterlimit:10;" d="
							M217.551,444.511c-1.326,0.181-2.556,0.973-3.27,2.106"/>
						
							<path style="fill:none;stroke:#263238;stroke-width:0.5;stroke-linecap:round;stroke-linejoin:round;stroke-miterlimit:10;" d="
							M220.528,446.026c-1.326,0.181-2.556,0.973-3.27,2.106"/>
					</g>
				</g>
				<path style="fill:#263238;" d="M217.482,239.083c0.778,2.302,9.487,76.055,9.387,91.973
					c-0.081,12.882-9.611,102.013-9.611,102.013h-20.98c0,0,2.739-45.789,2.191-60.675c-0.548-14.887,3.033-42.868,3.033-42.868
					l-22.456-67.158l0.843-22.53L217.482,239.083z"/>
				<path style="fill:#263238;" d="M150.413,338.17c0.493-2.149,1.281-6.514,2.248-12.272c-0.029-0.007-0.061-0.014-0.09-0.02
					c0.709-7.614-1.736-47.053,0.673-69.579c1.851-14.348,5.275-21.977,8.968-26.731c0.19-0.244,0.365-0.466,0.523-0.664
					c0.614-0.766,0.986-1.187,0.986-1.187c0.702,0.176,1.4,0.339,2.094,0.491c0.26,0.057,0.518,0.113,0.775,0.167
					c26.07,5.451,46.913-1.688,46.913-1.688c2.4,5.927,4.934,19.954,6.684,33.06c-2.727,2.993-13.337,5.772-27.066,8.345
					l-3.915,17.706c-2.06,10.978-4.705,21.746-6.952,31.441l-2.348,10.62c-0.143,0.696-0.282,1.387-0.415,2.064
					c-1.191,6.104-14.493,103.59-14.493,103.59l-19.154-0.443C145.844,433.069,143.734,367.271,150.413,338.17z"/>
				<g>
					<path style="opacity:0.2;enable-background:new    ;" d="M188.35,290.192c-0.072,0.359,8.822-34.188,8.822-34.188
						s6.823,31.289-4.037,48.497L188.35,290.192z"/>
				</g>
				<path style="opacity:0.3;" d="M212.486,439.739h-3.85c-0.871,0-1.677,0.441-2.192,1.144c-2.22,3.032-3.889,1.886-6.303-0.965
					c-1.535-0.179-1.948,1.583-2.074,2.056l-2.878,10.469c-0.25,0.874,0.256,1.786,1.13,2.036c0.156,0.045,0.317,0.066,0.479,0.063
					c4.675,0,6.887,0,12.706,0H227.3c4.851,0,5.857-4.889,3.858-5.341c-8.986-1.986-15.349-4.63-18.127-7.244
					C212.516,441.499,213.045,441.157,212.486,439.739z"/>
			</g>
			<path style="fill:#407BFF;" d="M155.836,187.769l-2.818-24.996c4.351-6.494,21.819-9.941,21.819-9.941l14.184,0.775
				c0,0,7.497,1.77,12.164,3.292c0,0,3.096,4.108,5.458,9.844c0,0,6.859,14.662,5.786,24.966
				c-0.452,4.338-1.428,20.876-0.216,28.331l6.431,19.741c-25.916,20.183-57.865-0.915-57.865-0.915
				c1.165-3.564,3.725-11.457,4.252-14.94c-0.38-4.443-1.627-7.361-3.509-15.142C161.158,207.283,156.467,189.228,155.836,187.769z"
				/>
			<g>
				<polygon style="fill:#E9B376;" points="186.614,209.707 191.833,209.255 193.915,216.617 188.669,218.423 				"/>
				<g>
					<g>
						<g>
							<g>
								<g>
									<path style="fill:#E9B376;" d="M190.295,208.861c0,0,0.773-3.616,3.358-5.249c2.585-1.633,4.215-3.624,6.221-4.705
										c2.006-1.081,2.327,1.17,1.435,2.581s-3.305,3.642-2.137,4.14c1.168,0.499,12.016-0.779,13.557,0.097
										c1.541,0.875-0.149,1.631-0.149,1.631s2.434-0.268,3.023,0.782c0.589,1.05-0.89,1.678-0.89,1.678s1.641-0.123,1.595,1.044
										c-0.046,1.167-9.73,3.206-10.059,3.523c0,0,5.63-1.998,6.59-0.837c0.96,1.16-2.114,2.436-4.543,3.506
										c-2.43,1.07-5.664,1.389-8.365,1.153c-3.368-0.294-8.062,0.1-9.244-2.801C189.504,212.503,190.295,208.861,190.295,208.861
										z"/>
								</g>
							</g>
						</g>
					</g>
				</g>
			</g>
			<g>
				<path style="opacity:0.2;enable-background:new    ;" d="M152.375,302.381l16.252,2.121l3.66-60.013
					c0,0,1.093-20.625,0.488-20.509c-0.605,0.117-7.42,1.247-8.025,1.413c-0.605,0.166-12.457,72.667-12.457,72.667L152.375,302.381
					z"/>
				<path style="fill:#407BFF;" d="M170.251,188.425c-1.145-13.228-3.737-33.973-9.231-31.514c-3.509,1.571-5.719,2.638-7.527,4.189
					c-1.191,1.022-1.396,3.432-2.196,6.027c-2.214,7.181,1.722,58.267,1.722,58.267l-12.599,71.08l25.555,3.32
					C165.974,299.793,171.396,201.653,170.251,188.425z"/>
				<path style="opacity:0.3;" d="M170.251,188.425c-1.145-13.228-3.737-33.973-9.231-31.514c-3.509,1.571-5.719,2.638-7.527,4.189
					c-1.191,1.022-1.396,3.432-2.196,6.027c-2.214,7.181,1.923,57.289,1.923,57.289l-12.815,72.139l25.569,3.239
					C165.974,299.793,171.396,201.653,170.251,188.425z"/>
				<path style="opacity:0.3;" d="M158.312,215.506c0,0,4.256-24.805,3.977-36.32l-8.067,31.015L158.312,215.506z"/>
				<g>
					<path style="opacity:0.3;" d="M151.505,224.901c0,0,1.775,2.318,4.252,3.351c3.486,1.453,13.797-1.699,13.797-1.699
						l0.137-4.401L151.505,224.901z"/>
					<path style="fill:#407BFF;" d="M162.29,179.187c-0.643-0.019-5.133,28.866-5.133,28.866l31.765-0.709l1.774,12.791
						c0,0-13.895,3.371-29.271,5.88c-15.866,2.589-21.8-4.438-21.874-15.199c-0.067-9.861,4.011-33.838,4.011-33.838
						c2.062-9.438,6.108-12.914,11.089-16.79L162.29,179.187z"/>
				</g>
				<path style="opacity:0.3;" d="M162.29,179.187c-0.643-0.019-5.133,28.866-5.133,28.866l31.765-0.709l1.774,12.791
					c0,0-13.895,3.371-29.271,5.88c-15.866,2.589-21.8-4.438-21.874-15.199c-0.067-9.861,4.011-33.838,4.011-33.838
					c2.062-9.438,6.108-12.914,11.089-16.79L162.29,179.187z"/>
			</g>
			<g>
				<path style="fill:#263238;" d="M170.931,104.35c0,0,3.774-5.637,13.814-6.379c10.04-0.742,21.295,2.165,26.739,15.937
					l-4.397,1.107c2.934,10.363,4.217,21.124,3.801,31.887c0,0-30.777,4.121-50.686,0.688c0,0-0.394-11.68,2.077-27.917
					C164.749,103.436,170.931,104.35,170.931,104.35z"/>
				<g>
					<g>
						<g>
							<g>
								<path style="fill:#E9B376;" d="M171.676,154.227c0,0,4.526,3.205,10.373,7.857c1.218,0.969,2.55,1.796,3.952,2.472
									c3.784,1.823,7.207,2.816,8.051,0.993c0.188-0.401,0.328-0.832,0.426-1.283c0.659-3.023,0.175-7.217-2.319-9.047
									c-2.812-2.063-4.2-3.869-3.824-6.826c0.193-1.676,0.728-3.419,1.367-5.117l-3.224-1.767l-11.669-10.887
									C176.367,137.517,177.427,149.889,171.676,154.227z"/>
							</g>
							<path style="opacity:0.2;" d="M188.27,149.042c-3.159-1.711-6.671-4.756-6.408-8.404c0.121-1.536,0.394-2.998,0.723-3.941
								l6.596,8.055C188.72,146.11,188.567,147.002,188.27,149.042z"/>
							<path style="fill:#E9B376;" d="M172.134,117.937c1.51,11.491,1.906,16.374,8.094,22.187
								c9.309,8.744,22.96,5.143,24.882-6.381c1.73-10.372-1.03-27.421-12.542-31.823
								C181.226,97.583,170.624,106.446,172.134,117.937z"/>
							<path style="fill:#263238;" d="M187.825,121.107c0.105,1.218,0.805,2.194,1.564,2.18c0.759-0.014,1.289-1.013,1.184-2.231
								c-0.104-1.218-0.805-2.194-1.564-2.18C188.251,118.89,187.72,119.889,187.825,121.107z"/>
							<path style="fill:#263238;" d="M199.537,120.586c0.104,1.18,0.801,2.125,1.558,2.111c0.757-0.014,1.286-0.982,1.182-2.162
								c-0.104-1.18-0.802-2.125-1.558-2.112C199.963,118.437,199.433,119.405,199.537,120.586z"/>
							<path style="fill:#263238;" d="M184.645,116.949c0.147,0.011,0.295-0.038,0.405-0.147c1.712-1.715,3.735-1.216,3.758-1.21
								c0.3,0.075,0.593-0.105,0.649-0.41c0.055-0.305-0.146-0.615-0.449-0.694c-0.106-0.027-2.645-0.656-4.769,1.473
								c-0.212,0.212-0.202,0.573,0.021,0.805C184.369,116.877,184.507,116.939,184.645,116.949z"/>
							<path style="fill:#263238;" d="M202.188,114.685c0.115-0.043,0.208-0.134,0.254-0.262c0.095-0.266-0.047-0.592-0.315-0.73
								c-2.694-1.378-4.604-0.175-4.684-0.122c-0.226,0.147-0.27,0.477-0.096,0.737c0.173,0.26,0.497,0.351,0.723,0.206
								c0.074-0.048,1.571-0.957,3.713,0.14C201.921,114.725,202.066,114.731,202.188,114.685z"/>
							<path style="fill:#D58745;" d="M195.474,120.182c0,0,1.974,4.246,4.115,6.857c0.374,0.456,0.181,1.152-0.364,1.377
								c-1.404,0.58-3.089,0.171-3.089,0.171L195.474,120.182z"/>
						</g>
						<path style="fill:#263238;" d="M188.577,118.943l2.622-0.729C191.199,118.214,189.83,120.245,188.577,118.943z"/>
						<path style="fill:#263238;" d="M200.323,118.482l2.622-0.729C202.945,117.753,201.575,119.783,200.323,118.482z"/>
						<path style="fill:#263238;" d="M179.101,124.336c0,0,2.759-8.321,1.174-14.974c0,0,21.268-9.676,24.949,11.587
							c0,0-2.853-23.671-21.184-21.84c-18.331,1.83-19.638,29.732-9.221,36.528C174.821,135.676,176.696,130.214,179.101,124.336z"
							/>
						<path style="fill:#E9B376;" d="M169.014,127.473c1.455,2.312,3.727,3.71,5.776,4.139c3.083,0.646,4.466-4.324,3.304-7.342
							c-1.046-2.716-4.117-4.421-7.065-3.704C168.126,121.273,167.35,124.83,169.014,127.473z"/>
					</g>
					
						<path style="opacity:0.2;fill:none;stroke:#000000;stroke-width:0.5;stroke-linecap:round;stroke-linejoin:round;stroke-miterlimit:10;" d="
						M175.441,126.605c-0.116-1.089-0.678-2.124-1.53-2.814c-0.851-0.69-1.98-1.026-3.07-0.913"/>
					
						<path style="fill:none;stroke:#263238;stroke-width:0.5;stroke-linecap:round;stroke-linejoin:round;stroke-miterlimit:10;" d="
						M188.946,129.913c0,0,1.236,2.997,4.63,2.157"/>
				</g>
			</g>
			<g>
				<g>
					<g>
						<g>
							<g>
								<g>
									<g>
										<path style="fill:#E9B376;" d="M251.566,194.397c0,0-0.464-3.994,1.631-6.576c2.094-2.582,3.08-5.201,4.77-7.013
											c1.69-1.812,1.563,1.53,1.135,3.294c-0.427,1.764-0.894,3.768,0.483,3.874c1.377,0.107,12.106-4.987,13.998-4.622
											c1.892,0.365,0.414,1.732,0.414,1.732s2.639-1.167,3.386-0.247c0.194,0.239,0.258,1.109-0.861,1.829
											c-2.518,1.62-7.978,4.749-7.978,4.749c0.31-0.186,7.325-3.566,8.442-3.936c1.46-0.482,2.394,0.034,2.646,0.89
											c0.359,1.217-8.197,5.705-8.425,6.147c0,0,4.839-2.749,6.232-1.888c1.393,0.861-1.559,2.757-4.479,3.935
											c-2.677,1.079-7.646,3.898-10.474,4.732c-3.484,1.027-6.055,0.934-8.283-1.643
											C251.975,197.077,251.566,194.397,251.566,194.397z"/>
									</g>
								</g>
							</g>
						</g>
					</g>
				</g>
				
					<path style="opacity:0.3;fill:none;stroke:#000000;stroke-width:0.25;stroke-linecap:round;stroke-linejoin:round;stroke-miterlimit:10;" d="
					M273.621,185.171c-2.092,0.988-4.138,2.072-6.131,3.247"/>
				
					<path style="opacity:0.3;fill:none;stroke:#000000;stroke-width:0.25;stroke-linecap:round;stroke-linejoin:round;stroke-miterlimit:10;" d="
					M269.365,195.65c-0.523-2.942-1.931-5.721-3.996-7.882"/>
				
					<path style="opacity:0.3;fill:none;stroke:#000000;stroke-width:0.25;stroke-linecap:round;stroke-linejoin:round;stroke-miterlimit:10;" d="
					M259.303,189.44c0.351,1.166,0.282,2.454-0.191,3.576c-0.474,1.122-1.349,2.069-2.429,2.631"/>
			</g>
		</g>
		<g>
			<g id="freepik--character-3--inject-124">
				<path style="fill:#263238;" d="M282.599,83.021c2.508-1.361-6.204,6.436-5.264,14.127c0.94,7.691,2.776,26.074,2.776,26.074
					l17.602-4.678L282.599,83.021z"/>
				<g id="freepik--group--inject-124">
					<path style="fill:#E9B376;" d="M385.9,185.23l-26.46,17.49c-0.801-0.802-1.535-1.668-2.196-2.59
						c-3.556-4.588-8.669-12.855-10.321-15.557l-13.346,20.005c3.903,4.072,19.805,14.858,22.479,15.299
						c6.953,1.154,34.76-28.952,34.76-28.952L385.9,185.23z"/>
					<path style="opacity:0.2;enable-background:new    ;" d="M338.46,208.866c0,0,4.88-0.668,11.394-4.175
						c4.314-2.323,7.035-5.026,7.035-5.026l-1.899-2.615l-18.703,10.015L338.46,208.866z"/>
					<path style="fill:#407BFF;" d="M287.474,123.163c-5.986,2.58-15.491,19.329-15.491,19.329l2.458,3.941l4.438,2.074
						c0,0,7.197-11.691,11.954-13.793C295.59,132.611,287.474,123.163,287.474,123.163z"/>
					<path style="opacity:0.3;fill:#FFFFFF;" d="M287.474,123.163c-5.986,2.58-15.491,19.329-15.491,19.329l2.458,3.941l4.438,2.074
						c0,0,7.197-11.691,11.954-13.793C295.59,132.611,287.474,123.163,287.474,123.163z"/>
					<path style="fill:#407BFF;" d="M287.474,123.163c0,0,13.675-8.413,31.352-4.454c3.15,1.538,5.517,4.117,9.051,23.018
						c1.175,6.285,7.52,6.392,10.237,12.409c1.611,2.199,1.134,5.287-1.065,6.898c-0.34,0.249-0.71,0.454-1.102,0.608
						c-9.43,3.753-27.145,9.88-37.287,7.15C298.667,168.782,288.121,143.608,287.474,123.163z"/>
					<path style="opacity:0.3;fill:#FFFFFF;" d="M287.474,123.163c0,0,13.675-8.413,31.352-4.454
						c3.15,1.538,5.517,4.117,9.051,23.018c1.175,6.285,7.52,6.392,10.237,12.409c1.611,2.199,1.134,5.287-1.065,6.898
						c-0.34,0.249-0.71,0.454-1.102,0.608c-9.43,3.753-27.145,9.88-37.287,7.15C298.667,168.782,288.121,143.608,287.474,123.163z"
						/>
					<path style="fill:#E9B376;" d="M336.827,215.991c9.905,25.864,17.304,42.695,17.304,42.695l-6.367,3.355
						c0,0-14.62-15.57-27.905-42.712c-3.194-6.516-6.055-13.189-8.572-19.995l16.59-14.012
						C329.501,193.375,333.878,208.324,336.827,215.991z"/>
					<path style="opacity:0.2;enable-background:new    ;" d="M311.287,199.334l11.93-6.296c1.622,8.053,8.912,6.579,11.767,17.783
						c-3.752,1.118-13.564,3.828-17.575,3.356C314.217,207.658,313.801,206.143,311.287,199.334z"/>
					<path style="fill:#263238;" d="M344.091,257.94l8.411-2.736c0.279-0.111,0.596,0.024,0.707,0.303
						c0.003,0.008,0.006,0.015,0.009,0.023l0,0l2.583,6.53c0.234,0.725-0.159,1.503-0.882,1.744
						c-2.953,0.909-4.411,1.155-8.11,2.366c-2.272,0.731-6.696,2.393-9.965,2.91c-3.269,0.517-3.683-2.731-2.349-3.265
						c3.166-1.207,6.875-4.71,8.442-7.06C343.222,258.364,343.627,258.077,344.091,257.94z"/>
					<path style="fill:#407BFF;" d="M340.275,260.181c-0.336-0.176-0.545-0.527-0.538-0.907c-0.03-0.236,0.061-0.472,0.243-0.626
						c0.798-0.655,3.396,0.081,3.696,0.186c0.065,0.031,0.113,0.09,0.129,0.16c0.011,0.071-0.026,0.14-0.091,0.169
						c-0.602,0.376-1.242,0.687-1.91,0.927C341.322,260.307,340.778,260.339,340.275,260.181z M340.227,258.961
						c-0.093,0.075-0.14,0.194-0.122,0.313c0.005,0.234,0.127,0.45,0.325,0.574c0.469,0.236,1.472-0.046,2.723-0.713
						c-1.043-0.28-2.507-0.498-2.946-0.14L340.227,258.961z"/>
					<path style="fill:#407BFF;" d="M343.582,259.217c-0.894-0.193-2.521-1.406-2.613-2.274c-0.035-0.321,0.154-0.624,0.459-0.731
						c0.265-0.118,0.567-0.12,0.833-0.005c0.982,0.49,1.521,2.734,1.547,2.796c0.003,0.061-0.015,0.121-0.053,0.169
						c-0.024,0.016-0.053,0.023-0.082,0.021C343.647,259.214,343.614,259.223,343.582,259.217z M341.581,256.541
						c-0.254,0.066-0.263,0.253-0.246,0.355c0.412,0.86,1.128,1.537,2.01,1.898c-0.188-0.717-0.67-1.929-1.267-2.209
						c-0.126-0.075-0.28-0.092-0.419-0.045L341.581,256.541z"/>
					<path style="fill:#263238;" d="M388.583,193.234l-5.724-6.737c-0.215-0.219-0.215-0.569,0-0.788l0,0l5.057-4.87
						c0.583-0.49,1.45-0.423,1.952,0.15c1.961,2.383,2.815,3.622,5.273,6.568c1.548,1.83,4.767,5.283,6.484,8.116
						s-1.126,4.438-2.102,3.397c-2.327-2.468-6.981-4.56-9.749-5.123C389.312,193.842,388.895,193.592,388.583,193.234z"/>
					<path style="fill:#407BFF;" d="M392.083,195.88c-0.034,0.378-0.282,0.703-0.638,0.835c-0.208,0.112-0.458,0.112-0.666,0
						c-0.938-0.497-1.201-3.181-1.229-3.49c0.004-0.07,0.038-0.135,0.094-0.178c0.06-0.037,0.137-0.037,0.197,0
						c0.579,0.412,1.108,0.891,1.576,1.426C391.817,194.835,392.056,195.341,392.083,195.88z M390.976,196.377
						c0.101,0.061,0.227,0.061,0.328,0c0.222-0.084,0.38-0.281,0.413-0.516c0-0.525-0.601-1.342-1.726-2.233
						c0.15,1.07,0.497,2.496,0.985,2.759V196.377z"/>
					<path style="fill:#407BFF;" d="M389.944,193.178c0.15,0.938-0.347,2.862-1.117,3.284c-0.286,0.149-0.636,0.087-0.854-0.15
						c-0.214-0.192-0.329-0.473-0.31-0.76c0.075-1.107,1.942-2.449,1.989-2.496c0.057-0.023,0.121-0.023,0.178,0
						c0.008,0.021,0.008,0.044,0,0.066C389.874,193.126,389.914,193.146,389.944,193.178z M388.245,195.992
						c0.197,0.188,0.338,0.15,0.432,0.094c0.616-0.714,0.949-1.628,0.938-2.571c-0.572,0.469-1.529,1.351-1.567,2.008
						c-0.018,0.148,0.026,0.298,0.122,0.413L388.245,195.992z"/>
					<path style="fill:#E9B376;" d="M309.242,119.128c0,0-5.273,6.071-10.631,6.793c-4.185,0.553-3.978-3.068-3.978-3.068
						c0.412-0.625,0.728-1.308,0.938-2.027c1.454-4.691-3.331-8.088-3.331-8.088l4.288-2.224l9.383-4.907
						C303.303,114.634,309.242,119.128,309.242,119.128z"/>
					<path style="opacity:0.2;enable-background:new    ;" d="M305.067,109.473c0,0-2.815,9.768-9.458,11.353
						c1.454-4.691-3.331-8.088-3.331-8.088l4.288-2.224L305.067,109.473z"/>
					<path style="fill:#E9B376;" d="M311.428,93.719c1.117,8.585-1.745,18.935-8.501,21.637
						c-12.414,4.964-17.949,3.519-21.327-5.752c-3.078-8.332-2.815-22.519,7.337-27.21C299.09,77.703,309.871,81.803,311.428,93.719
						z"/>
					<path style="fill:#263238;" d="M292.587,100.1c0.178,1.088-0.253,2.074-0.938,2.177c-0.685,0.103-1.426-0.676-1.604-1.764
						c-0.178-1.088,0.253-2.045,0.938-2.167C291.668,98.223,292.409,99.021,292.587,100.1z"/>
					<path style="fill:#263238;" d="M283.843,101.094c0.169,1.032-0.244,1.98-0.938,2.083c-0.694,0.103-1.361-0.657-1.529-1.689
						c-0.169-1.032,0.244-1.961,0.938-2.083C283.008,99.284,283.721,100.062,283.843,101.094z"/>
					<path style="fill:#263238;" d="M288.572,95.164c-0.087-0.056-0.158-0.134-0.206-0.225c-0.092-0.253,0.038-0.533,0.291-0.626
						c0.003-0.001,0.006-0.002,0.009-0.003c1.485-0.591,3.167-0.412,4.494,0.479c0.217,0.166,0.259,0.476,0.094,0.694l0,0
						c-0.174,0.203-0.473,0.244-0.694,0.094l0,0c-1.072-0.684-2.411-0.799-3.584-0.31C288.832,95.286,288.688,95.249,288.572,95.164
						z"/>
					<path style="fill:#263238;" d="M280.23,96.975c-0.103,0.001-0.204-0.028-0.291-0.085c-0.19-0.196-0.19-0.507,0-0.704
						c1.023-1.227,2.584-1.872,4.175-1.726c0.267,0.038,0.452,0.285,0.415,0.551c-0.001,0.004-0.001,0.008-0.002,0.011l0,0
						c-0.048,0.266-0.295,0.447-0.563,0.413l0,0c-1.268-0.086-2.498,0.453-3.293,1.445C280.546,96.977,280.384,97.012,280.23,96.975
						z"/>
					<path style="fill:#D58745;" d="M285.747,102.08l1.877,4.41c-1.099,0.474-2.315,0.608-3.491,0.385
						C284.956,105.387,285.503,103.762,285.747,102.08z"/>
					<path style="fill:#E9B376;" d="M302.927,100.803c0,0,1.276-5.63,4.278-4.504c3.003,1.126,4.091,9.955,0.085,10.706
						C303.284,107.756,301.642,103.947,302.927,100.803z"/>
					<path style="fill:#263238;" d="M288.112,110.233c0.991,0.893,1.913,1.859,2.759,2.89l0.61-0.357
						c2.73-1.642,3.462-3.303,3.434-4.645c-0.023-0.659-0.203-1.302-0.525-1.877c-0.174-0.34-0.391-0.655-0.647-0.938
						c-0.938,1.736-3.368,3.453-4.691,4.316C288.487,110.027,288.112,110.233,288.112,110.233z"/>
					<path style="fill:#FFFFFF;" d="M289.041,109.661l0.835,0.835c2.571-1.548,4.175-2.984,4.513-4.251
						c-0.174-0.34-0.391-0.655-0.647-0.938C292.803,107.081,290.373,108.798,289.041,109.661z"/>
					<path style="fill:#C15854;" d="M291.48,112.767c2.73-1.642,3.462-3.303,3.434-4.645c-1.027,0.639-1.933,1.456-2.674,2.411
						C291.76,111.18,291.495,111.961,291.48,112.767z"/>
					<path style="fill:#FFFFFF;" d="M301.989,139.208c0,0,5.189-6.399,8.304-1.736c3.856,5.77-8.398,14.759-8.398,14.759
						s-8.82-7.215-6.474-12.676C298.386,132.649,301.989,139.208,301.989,139.208z"/>
					<path style="fill:#407BFF;" d="M296.359,164.973c-2.89,7.244-1.482,31.902,4.25,48.228c0,0,7.581,2.346,28.815-3.659
						c17.471-4.945,27.942-11.785,27.942-11.785c-6.183-12.808-16.767-43.077-19.282-44.024L296.359,164.973z"/>
					<path style="opacity:0.2;enable-background:new    ;" d="M357.366,197.747c0,0-1.548,1.013-4.429,2.533
						c-1.37,0.723-3.04,1.558-4.992,2.458c-1.736,0.798-3.706,1.661-5.892,2.515c-1.492,0.61-3.096,1.21-4.795,1.811
						c-2.411,0.844-5.039,1.689-7.825,2.477c-0.76,0.216-1.492,0.422-2.214,0.61c-1.342,0.357-2.627,0.685-3.856,0.938
						c-2.984,0.713-5.639,1.251-7.966,1.614c-1.877,0.31-3.481,0.516-4.935,0.647c-1.78,0.187-3.568,0.275-5.358,0.263
						c-0.76,0-1.407,0-1.97-0.084c-0.854-0.041-1.703-0.163-2.533-0.366c-5.723-16.373-7.131-40.984-4.241-48.228l41.725-11.259
						C340.599,154.68,351.183,184.949,357.366,197.747z"/>
					<path style="opacity:0.2;enable-background:new    ;" d="M299.925,188.317l5.179,25.334c-0.76,0-1.408,0-1.97-0.084
						L299.925,188.317z"/>
					<path style="opacity:0.2;enable-background:new    ;" d="M310.462,213.388l-3.753-38.207l8.651,37.531
						C313.558,213.041,311.916,213.257,310.462,213.388z"/>
					<path style="opacity:0.2;enable-background:new    ;" d="M323.363,211.165l-7.159-38.564l11.015,37.588
						C325.878,210.508,324.592,210.836,323.363,211.165z"/>
					<path style="opacity:0.2;enable-background:new    ;" d="M337.259,207.064l-9.383-38.244l14.215,36.434
						C340.562,205.863,338.957,206.473,337.259,207.064z"/>
					<path style="opacity:0.2;enable-background:new    ;" d="M352.938,200.28c-1.37,0.722-3.04,1.558-4.992,2.458l-11.119-36.33
						L352.938,200.28z"/>
					<path style="opacity:0.2;enable-background:new    ;" d="M359.44,202.72c0,0,0.316,3.746,0,5.149c0,0,2.082-2.455,1.759-6.312
						L359.44,202.72z"/>
				</g>
				<polygon style="opacity:0.2;enable-background:new    ;" points="287.227,137.482 287.749,129.732 288.826,135.943 				"/>
				<path style="fill:#263238;" d="M324.996,110.444c-0.647-1.418-8.254-26.83-16.931-31.374c-4.709-2.9-11.26-3.175-17.569-1.761
					c-9.148,2.046-11.403,9.151-5.97,11.965c0.088,0.44,10.381,2.54,14.138,8.469c4.018,6.341,0.654,9.236,3.029,13.898
					c2.375,4.662,3.366,5.422,3.366,5.422l17.042-4.651C322.099,112.413,325.693,111.974,324.996,110.444z"/>
			</g>
			<g>
				<g>
					<g>
						<g>
							<g>
								<polygon style="fill:#E9B376;" points="247.678,418.563 238.473,444.176 229.876,441.491 232.567,414.525 								"/>
							</g>
						</g>
					</g>
				</g>
				<g>
					<g>
						<g>
							<g>
								<g>
									<g>
										<g>
											<g>
												<g>
													<g>
														<g>
															<g>
																<path style="fill:#263238;" d="M239.837,451.735l-0.002,0.001c-0.196,1.878-0.332,3.168-0.332,3.168l-7.771,0.018
																	c0,0-1.573-0.831-2.496-0.718c-0.919,0.115-4.118,0.732-4.118,0.732l-20.637,0.047
																	c0.163-0.866,0.365-1.636,0.595-2.32c0.281-0.833,0.608-1.54,0.971-2.137c1.274-2.09,3.017-2.836,4.913-2.96
																	c2.889-0.188,11.969-6.279,11.969-6.279s3.296-1.161,3.467-4.674c0.065-1.317,2.005-2.928,2.93-3.063
																	c1.887-0.277,2.939,0.916,3.218,2.802l0.322,2.191l4.357-0.689c0,0,4.429-2.242,4.219-0.073"/>
															</g>
														</g>
													</g>
												</g>
											</g>
										</g>
										<g style="opacity:0.2;">
											<path style="fill:#FFFFFF;" d="M204.48,454.983l20.637-0.047c0,0,3.199-0.617,4.118-0.732
												c0.923-0.113,2.496,0.718,2.496,0.718l7.772-0.018c0,0,0.136-1.29,0.332-3.168l-34.76,0.928
												C204.845,453.348,204.643,454.118,204.48,454.983z"/>
										</g>
										<g>
											<g>
												<g>
													<g>
														<path style="fill:#407BFF;" d="M218.407,443.551c0.095-0.094,0.243-0.104,0.355-0.03
															c0.512,0.339,0.943,0.817,1.237,1.418c0.155,0.317-0.308,0.624-0.464,0.304c-0.261-0.534-0.638-0.957-1.085-1.254
															c-0.15-0.099-0.175-0.307-0.047-0.433C218.404,443.554,218.406,443.553,218.407,443.551z"/>
													</g>
												</g>
											</g>
										</g>
										<g>
											<g>
												<g>
													<g>
														<path style="fill:#407BFF;" d="M220.046,442.581c0.096-0.094,0.243-0.104,0.355-0.03
															c0.512,0.339,0.943,0.817,1.237,1.418c0.155,0.317-0.307,0.624-0.464,0.304c-0.261-0.534-0.638-0.957-1.085-1.254
															c-0.15-0.099-0.175-0.308-0.047-0.434C220.044,442.583,220.045,442.582,220.046,442.581z"/>
													</g>
												</g>
											</g>
										</g>
										<g>
											<g>
												<g>
													<g>
														<path style="fill:#407BFF;" d="M221.738,441.674c0.096-0.094,0.243-0.104,0.355-0.031
															c0.512,0.339,0.943,0.817,1.237,1.418c0.155,0.317-0.307,0.624-0.464,0.304c-0.261-0.534-0.638-0.957-1.085-1.254
															c-0.149-0.099-0.175-0.308-0.047-0.434C221.735,441.677,221.736,441.675,221.738,441.674z"/>
													</g>
												</g>
											</g>
										</g>
									</g>
								</g>
							</g>
						</g>
					</g>
				</g>
			</g>
			<g>
				<g>
					<g>
						<g>
							<g>
								<polygon style="fill:#E9B376;" points="307.07,415.719 311.128,443.455 320.184,443.823 322.852,417.02 								"/>
							</g>
						</g>
					</g>
				</g>
				<g>
					<g>
						<g>
							<path style="fill:#263238;" d="M328.013,456.185l-20.246,0.199c0,0-0.45-0.846,0.033-3.115
								c0.073-0.353,0.17-0.742,0.297-1.166c0.007-0.021,0.011-0.042,0.018-0.063c0.183-0.628,0.393-1.401,0.616-2.235
								c0.894-3.399,1.942-7.838,1.942-7.838s3.298-7.244,7.256-5.482c3.473,1.545,2.697,6.073,2.697,6.073s0.365,2.65,3.009,4.965
								c1.635,1.43,3.258,2.533,4.051,4.324c0.148,0.335,0.266,0.691,0.352,1.078c0.01,0.047,0.02,0.096,0.027,0.145
								C328.234,453.935,328.235,454.952,328.013,456.185z"/>
						</g>
					</g>
				</g>
				<g style="opacity:0.2;">
					<path style="fill:#FFFFFF;" d="M307.8,453.269c-0.482,2.269-0.033,3.115-0.033,3.115l20.246-0.199
						c0.221-1.233,0.221-2.25,0.051-3.115L307.8,453.269z"/>
				</g>
				<g>
					<g>
						<g>
							<g>
								<path style="fill:#407BFF;" d="M319.821,443.701c-1.147-0.876-2.641-0.746-3.655,0.263c-0.273,0.271-0.7-0.147-0.427-0.418
									c1.266-1.259,3.091-1.347,4.5-0.271C320.545,443.508,320.123,443.932,319.821,443.701L319.821,443.701z"/>
							</g>
						</g>
					</g>
				</g>
				<g>
					<g>
						<g>
							<g>
								<path style="fill:#407BFF;" d="M320.411,445.586c-1.148-0.876-2.641-0.746-3.655,0.263c-0.273,0.272-0.7-0.146-0.427-0.418
									c1.266-1.259,3.09-1.347,4.5-0.271C321.135,445.393,320.714,445.817,320.411,445.586L320.411,445.586z"/>
							</g>
						</g>
					</g>
				</g>
				<g>
					<g>
						<g>
							<g>
								<path style="fill:#407BFF;" d="M321.002,447.319c-1.147-0.876-2.64-0.746-3.655,0.263c-0.273,0.272-0.7-0.146-0.427-0.418
									c1.266-1.259,3.091-1.347,4.5-0.271C321.726,447.126,321.305,447.55,321.002,447.319L321.002,447.319z"/>
							</g>
						</g>
					</g>
				</g>
			</g>
			<g>
				<g>
					<g>
						<path style="fill:#263238;" d="M327.219,240.308l-42.385,0.776l-26.61-0.545c0,0-17.896,80.721-19.332,95.903
							c-1.436,15.183-14.276,95.18-14.276,95.18l20.731,4.339c0,0,22.68-85.622,24.296-93.845
							c1.408-7.167,17.301-53.178,21.36-64.878c0.443,2.384,0.898,4.778,1.36,7.152c1.162,10.739,4.883,44.979,6.482,57.719
							c0,0,3.918,72.824,7.842,93.944l19.467-0.158c2.275-30.06,2.887-135.573,2.887-135.573l-0.003-0.002
							C330.253,277.391,327.219,240.308,327.219,240.308z"/>
					</g>
				</g>
				<g style="opacity:0.5;">
					<path d="M269.252,252.473c-2.392,8.149-8.938,14.74-17.068,17.193c-0.438,0.132-0.245,0.819,0.196,0.686
						c8.37-2.526,15.099-9.308,17.561-17.697C270.071,252.215,269.381,252.033,269.252,252.473L269.252,252.473z"/>
					<path d="M291.452,252.254c-0.412,7.113-0.812,14.237-1.224,21.35c-0.018,0.459-0.729,0.466-0.711,0.007
						c0.216-3.648,0.421-7.308,0.626-10.968c-1.741,1.37-3.809-0.249-4.4-2.055c-0.969-2.926-0.648-6.415,0.057-9.357
						c0.11-0.448,0.8-0.26,0.69,0.176c-0.496,2.069-0.693,4.18-0.523,6.3c0.079,1.077,0.195,2.314,0.709,3.295
						c0.573,1.095,2.003,2.01,3.129,1.001c0.125-0.104,0.262-0.117,0.378-0.061c0.186-3.224,0.372-6.459,0.559-9.683
						C290.76,251.802,291.471,251.795,291.452,252.254z"/>
					<path d="M312.367,253.26c-0.008,9.424,7.323,17.244,16.711,17.892c0.45,0.031,0.441-0.67-0.007-0.701
						c-9.008-0.622-16.01-8.18-16.003-17.199C313.068,252.801,312.367,252.808,312.367,253.26L312.367,253.26z"/>
				</g>
			</g>
			<path style="fill:#E9B376;" d="M290.383,101.626"/>
			<g>
				<path style="fill:#407BFF;" d="M242.195,142.151c-8.384,4.923-14.657,34.72-14.657,34.72l23.475,7.659l8.137-17.07
					L242.195,142.151z"/>
				<path style="opacity:0.2;enable-background:new    ;" d="M247.765,166.55l-1.335,16.602l-5.888-2.037
					c2.374-6.362,1.195-29.837,1.195-29.837S245.607,162.337,247.765,166.55z"/>
				<g>
					<path style="fill:#407BFF;" d="M246.826,140.015c5.989-1.726,25.949-8.678,51.846-9.207l11.923,25.397l12.876,62.638
						c0,0,2.533,7.176,4.651,20.872c-23.706,15.778-56.153,15.431-74.955,8.805c-0.732-8.076,0.527-6.511-1.234-22.076
						c-3.105-27.428-9.04-58.894-9.968-83.975C241.951,141.848,246.229,140.187,246.826,140.015z"/>
				</g>
				<g>
					<g>
						<path style="fill:#E9B376;" d="M282.931,131.372c-4.652-7.811-11.735-13.969-11.645-25.583l-14.382,21.599
							c0.683,0.736,1.315,1.518,1.891,2.34c1.091,1.449,1.791,3.155,2.031,4.953c0.14,1.502-2.525,4.767-2.525,4.767
							s6.798,3.643,18.268-0.217C283.372,136.962,282.931,131.372,282.931,131.372z"/>
						<path style="opacity:0.2;enable-background:new    ;" d="M268.636,116.068c3.844,8.611-3.738,15.773-7.812,18.632
							c-0.241-1.798-0.94-3.504-2.031-4.953L268.636,116.068z"/>
						<g>
							<g>
								<g>
									<g>
										<g>
											<path style="fill:#E9B376;" d="M270.844,100.127c0.795,11.506,1.475,17.979-3.539,24.542
												c-7.544,9.872-21.994,6.579-26.223-4.49c-3.806-9.963-4.467-27.106,6.147-33.008
												C257.686,81.356,270.049,88.621,270.844,100.127z"/>
											<path style="fill:#263238;" d="M267.41,83.803c-4.915-6.505-15.082-1.676-19.064,2.115
												c-0.595,0.567,9.357,4.033,8.764,3.901l3.039,2.843c0.423-0.154,1.041,3.822,1.559,7.264
												c0.476,3.162,1.794,6.126,3.831,8.59c1.707,2.065,4.01,4.554,6.639,6.619c3.73-2.466,3.054-9.433,3.769-13.727
												C277.013,95.009,277.586,82.945,267.41,83.803z"/>
											<path style="fill:#E9B376;" d="M276.599,109.051c-0.527,3.058-2.425,5.576-4.542,6.997
												c-3.184,2.139-4.942-1.419-5.091-5.058c-0.134-3.275,0.294-7.341,3.987-8.023
												C274.592,102.296,277.202,105.555,276.599,109.051z"/>
											<path style="fill:#263238;" d="M257.932,105.173c0.153,1.168-0.343,2.19-1.109,2.283
												c-0.765,0.093-1.511-0.779-1.664-1.947c-0.153-1.168,0.344-2.19,1.109-2.283
												C257.034,103.133,257.779,104.004,257.932,105.173z"/>
											<path style="fill:#263238;" d="M244.729,107.151c0.153,1.168-0.343,2.19-1.109,2.283
												c-0.766,0.093-1.511-0.779-1.664-1.947c-0.153-1.168,0.343-2.19,1.109-2.283
												C243.831,105.111,244.576,105.983,244.729,107.151z"/>
											<path style="fill:#D58745;" d="M247.155,106.158c0,0-2.937,6.288-3.812,8.807c1.818,1.255,4.53,0.211,4.53,0.211
												L247.155,106.158z"/>
											<path style="fill:#263238;" d="M257.072,99.685c-0.167,0.095-0.38,0.101-0.559-0.005
												c-2.128-1.253-3.964-0.384-3.982-0.375c-0.274,0.133-0.606,0.021-0.742-0.251c-0.136-0.272-0.023-0.601,0.249-0.734
												c0.096-0.048,2.396-1.137,5.036,0.418c0.264,0.155,0.352,0.492,0.197,0.752
												C257.221,99.574,257.152,99.639,257.072,99.685z"/>
										</g>
										
											<path style="opacity:0.2;fill:none;stroke:#000000;stroke-width:0.5;stroke-linecap:round;stroke-linejoin:round;stroke-miterlimit:10;" d="
											M273.579,106.237c-0.549-0.621-1.52-0.749-2.293-0.448c-0.772,0.301-1.361,0.959-1.761,1.685
											c-0.48,0.871-0.728,1.87-0.71,2.865"/>
									</g>
									<path style="fill:#263238;" d="M237.812,103.027c-0.104-0.009-0.208-0.047-0.297-0.117
										c-0.24-0.189-0.284-0.537-0.097-0.776c1.87-2.398,4.396-2.173,4.51-2.178c0.303,0.029,0.529,0.297,0.503,0.601
										c-0.025,0.303-0.289,0.525-0.59,0.499c-0.105-0.013-2.052-0.161-3.554,1.763
										C238.171,102.97,237.99,103.042,237.812,103.027z"/>
								</g>
							</g>
							<path style="fill:#263238;" d="M267.41,83.803c0,0-6.508-9.107-18.837-6.97c-9.917,1.719-15.446,8.566-16.046,15.399
								c-0.258,2.936,0.264,5.163,0.943,6.748c0.513,1.198,2.195,1.123,2.644-0.1c0.127-0.347,0.276-0.687,0.445-1.019
								c0.035,0.08,0.073,0.158,0.112,0.235c0.641,1.237,2.562,0.911,2.675-0.477c0.036-0.438,0.112-0.874,0.229-1.302
								c0.006,0.011,0.011,0.021,0.017,0.032c0.589,1.086,2.241,0.867,2.574-0.324c1.469-5.251,8.191-8.858,13.906-6.128
								l4.076,2.764C265.163,90.121,267.41,83.803,267.41,83.803z"/>
						</g>
						<g>
							<path style="fill:#263238;" d="M252.982,118.564c1.4,0.68,2.748,1.461,4.035,2.336c0.188-0.197,0.385-0.394,0.563-0.601
								c2.533-2.73,2.815-4.832,2.336-6.333c-0.246-0.73-0.661-1.392-1.21-1.933c-0.302-0.312-0.646-0.58-1.023-0.798
								c-0.479,2.252-2.637,4.973-3.856,6.38C253.273,118.198,252.982,118.564,252.982,118.564z"/>
							<path style="fill:#FFFFFF;" d="M253.78,117.617l1.21,0.657c2.374-2.571,3.706-4.691,3.669-6.24
								c-0.302-0.312-0.647-0.58-1.023-0.798C257.158,113.507,255,116.209,253.78,117.617z"/>
							<path style="fill:#C15854;" d="M257.533,120.3c2.533-2.73,2.815-4.832,2.336-6.333c-0.944,1.055-1.693,2.268-2.214,3.584
								C257.329,118.432,257.286,119.393,257.533,120.3z"/>
						</g>
					</g>
					<polygon style="fill:#407BFF;" points="256.496,138.385 260.23,132.359 268.901,138.622 278.722,124.778 286.334,131.73 
						276.404,147.088 265.131,146.162 					"/>
				</g>
				<g id="freepik--group--inject-124_00000006693355082606306160000004963946775558344110_">
					<path style="fill:#E9B376;" d="M352.426,153.325c-4.25-5.001-32.671-13.201-38.676-15.396l-8.646,17.931l7.486,1.754
						l29.46,7.598l6.694,9.269c2.332-2.899,2.664-3.386,4.503-6.62C355.537,163.712,354.434,155.661,352.426,153.325z"/>
					<path style="opacity:0.2;enable-background:new    ;" d="M328.87,142.263l-4.593,18.377l-9.723-2.324l3.38-19.354
						C317.934,138.963,323.024,140.64,328.87,142.263z"/>
					<path style="fill:#407BFF;" d="M290.873,133.995c-1.73,5.718-0.914,15.992,7.807,20.615c6.199,3.286,20.646,7.897,20.646,7.897
						l10.489-23.32C329.815,139.187,293.754,124.49,290.873,133.995z"/>
				</g>
				<polygon style="opacity:0.3;enable-background:new    ;" points="311.333,159.793 302.182,155.45 312.417,165.062 				"/>
				<g style="opacity:0.2;enable-background:new    ;">
					<path d="M292.922,236.299c5.396-1.221,9.854-6.917,12.182-11.936c2.401-5.175,5.072-13.922,5.072-13.922
						c-3.171,4.092-6.342,8.185-9.513,12.278c-1.95,2.517-3.931,5.065-6.461,6.999c-3.509,2.683-7.848,4.016-12.137,5.072
						c-5.54,1.364-11.172,2.353-16.845,2.957C265.22,237.746,278.111,239.651,292.922,236.299z"/>
				</g>
			</g>
			<g>
				<g>
					<g>
						<g>
							<g>
								<g>
									<path style="fill:#E9B376;" d="M279.627,143.756c0,0-1.623-2.707-3.74-3.329c-2.116-0.622-3.755-1.79-5.338-2.123
										c-1.583-0.333-1.069,1.567-0.07,2.465c0.999,0.898,3.198,2.048,2.633,2.763c-0.565,0.715-7.68,2.595-8.355,3.714
										c-0.676,1.119,0.609,1.274,0.609,1.274s-1.591,0.437-1.622,1.441c-0.032,1.004,1.082,1.113,1.082,1.113
										s-1.054,0.341-0.656,1.269c0.398,0.928,7.034-0.026,7.338,0.141c0,0-4.115-0.1-4.342,1.093
										c-0.227,1.193,2.079,1.396,3.921,1.607c1.842,0.21,3.944-0.4,5.54-1.314c1.991-1.14,5.019-2.081,4.831-4.736
										C281.269,146.479,279.627,143.756,279.627,143.756z"/>
								</g>
							</g>
						</g>
					</g>
				</g>
				<g>
					<g>
						<path style="fill:#407BFF;" d="M311.78,120.843c-4.507,4.004-11.45,15.97-14.546,16.758c-3.096,0.788-17.22,6.888-17.22,6.888
							l0.64,7.405c0,0,18.608-1.567,23.084-4.044c4.476-2.477,15.675-11.579,17.898-15.81
							C325.867,123.989,315.785,116.943,311.78,120.843z"/>
					</g>
					<g style="opacity:0.3;">
						<path style="fill:#FFFFFF;" d="M311.78,120.843c-4.507,4.004-11.45,15.97-14.546,16.758c-3.096,0.788-17.22,6.888-17.22,6.888
							l0.64,7.405c0,0,18.608-1.567,23.084-4.044c4.476-2.477,15.675-11.579,17.898-15.81
							C325.867,123.989,315.785,116.943,311.78,120.843z"/>
					</g>
				</g>
			</g>
		</g>
	</g>
</g>
</svg>
