<?xml version="1.0" encoding="utf-8"?>
<!-- Generator: Adobe Illustrator 27.5.0, SVG Export Plug-In . SVG Version: 6.00 Build 0)  -->
<svg version="1.1" xmlns="http://www.w3.org/2000/svg" xmlns:xlink="http://www.w3.org/1999/xlink" x="0px" y="0px"
	 viewBox="0 0 750 500" style="enable-background:new 0 0 750 500;" xml:space="preserve">
<g id="BACKGOUND">
	<rect style="fill:#AED5ED;" width="750" height="500"/>
</g>
<g id="OBJECTS">
	<g>
		<g>
			<path style="fill:#DBDBDB;" d="M109.376,427.644c-10.986,0-19.925-8.938-19.925-19.924V61.235
				c0-10.987,8.938-19.925,19.925-19.925h531.249c10.987,0,19.925,8.938,19.925,19.925V407.72c0,10.986-8.938,19.924-19.925,19.924
				H109.376z"/>
			<path style="fill:#1C1C1C;" d="M656.8,61.238v346.479c0,8.936-7.239,16.174-16.174,16.174H109.375
				c-8.936,0-16.174-7.239-16.174-16.174V61.238c0-8.936,7.239-16.174,16.174-16.174h531.251c7.783,0,14.28,5.485,15.818,12.808
				C656.678,58.959,656.8,60.085,656.8,61.238z"/>
			<linearGradient id="SVGID_1_" gradientUnits="userSpaceOnUse" x1="93.2002" y1="134.6321" x2="93.2002" y2="134.6321">
				<stop  offset="0" style="stop-color:#FFFFFF"/>
				<stop  offset="1" style="stop-color:#000000"/>
			</linearGradient>
			<line style="opacity:0.33;fill:url(#SVGID_1_);" x1="93.2" y1="118.153" x2="93.2" y2="151.111"/>
			
				<linearGradient id="SVGID_00000041997641981033360090000011889350050779854491_" gradientUnits="userSpaceOnUse" x1="93.2002" y1="98.0873" x2="342.8388" y2="98.0873">
				<stop  offset="0" style="stop-color:#FFFFFF"/>
				<stop  offset="1" style="stop-color:#000000"/>
			</linearGradient>
			<polygon style="opacity:0.33;fill:url(#SVGID_00000041997641981033360090000011889350050779854491_);" points="342.839,45.063 
				93.2,151.111 93.2,118.153 265.258,45.063 			"/>
			
				<linearGradient id="SVGID_00000086682855643145876020000005142981088349825208_" gradientUnits="userSpaceOnUse" x1="93.2002" y1="280.6609" x2="93.2002" y2="280.6609">
				<stop  offset="0" style="stop-color:#FFFFFF"/>
				<stop  offset="1" style="stop-color:#000000"/>
			</linearGradient>
			
				<line style="opacity:0.33;fill:url(#SVGID_00000086682855643145876020000005142981088349825208_);" x1="93.2" y1="264.182" x2="93.2" y2="297.14"/>
			
				<linearGradient id="SVGID_00000165200120113945516590000004524448325296688036_" gradientUnits="userSpaceOnUse" x1="356.9557" y1="113.3942" x2="414.58" y2="319.9721">
				<stop  offset="0" style="stop-color:#FFFFFF"/>
				<stop  offset="1" style="stop-color:#000000"/>
			</linearGradient>
			<path style="opacity:0.33;fill:url(#SVGID_00000165200120113945516590000004524448325296688036_);" d="M656.443,57.872
				L93.2,297.14v-32.958L608.999,45.063h31.627C648.408,45.063,654.906,50.549,656.443,57.872z"/>
			
				<linearGradient id="SVGID_00000168081940165769278930000001920551191887476130_" gradientUnits="userSpaceOnUse" x1="505.5952" y1="303.0627" x2="505.5952" y2="487.8956">
				<stop  offset="0" style="stop-color:#FFFFFF"/>
				<stop  offset="1" style="stop-color:#000000"/>
			</linearGradient>
			<polygon style="opacity:0.33;fill:url(#SVGID_00000168081940165769278930000001920551191887476130_);" points="656.8,295.424 
				656.8,328.392 431.981,423.891 354.391,423.891 			"/>
			
				<linearGradient id="SVGID_00000023264602403371933170000017498469403152201645_" gradientUnits="userSpaceOnUse" x1="570.4982" y1="290.8326" x2="566.1493" y2="431.0879">
				<stop  offset="0" style="stop-color:#FFFFFF"/>
				<stop  offset="1" style="stop-color:#000000"/>
			</linearGradient>
			<polygon style="opacity:0.33;fill:url(#SVGID_00000023264602403371933170000017498469403152201645_);" points="656.8,347.632 
				656.8,380.59 554.878,423.891 477.288,423.891 			"/>
			<rect x="123.372" y="71.646" style="fill:#FFFFFF;" width="506.44" height="324.334"/>
		</g>
		<path d="M381.684,57.949c0,3.692-2.993,6.684-6.684,6.684c-3.692,0-6.684-2.993-6.684-6.684c0-3.692,2.993-6.684,6.684-6.684
			C378.692,51.265,381.684,54.258,381.684,57.949z"/>
		<circle style="fill:#232323;" cx="375" cy="57.949" r="2.809"/>
	</g>
	<g>
		<defs>
			<rect id="SVGID_00000080906513379870793840000010574836234934304914_" x="123.372" y="71.646" width="251.45" height="324.559"/>
		</defs>
		<clipPath id="SVGID_00000131345455635139884420000016604217905844308864_">
			<use xlink:href="#SVGID_00000080906513379870793840000010574836234934304914_"  style="overflow:visible;"/>
		</clipPath>
		<g style="clip-path:url(#SVGID_00000131345455635139884420000016604217905844308864_);">
			<rect x="106.199" y="57.949" style="fill:#E29840;" width="297.334" height="352.619"/>
			<g>
				<path style="fill:#FFFFFF;" d="M358.652,400.484c12.34-34.409,14.25-72.59,4.471-107.813c2.742-4.164,5.741-8.155,8.274-12.449
					c1.18-2.001-0.011-4.808-2.083-5.858c-2.073-1.049-4.647-0.623-6.671,0.516c-2.025,1.139-3.484,3.486-5.035,5.215
					c-71.413-16.841-147.446-13.616-217.176,9.212c1.031-3.807-4.587-7.355-8.469-6.659c-3.882,0.696-6.393,5.221-5.425,9.044
					c0.969,3.823,4.821,6.531,8.76,6.736c-6.207,32.744-6.128,66.618,0.947,99.185c4.382,0.481,8.625,1.409,13.007,1.89
					c68.81,7.553,139.075,4.168,208.294,4.961C357.788,403.117,358.19,401.772,358.652,400.484z"/>
				<path style="fill:#A87156;" d="M301.699,324.266c-13.433,11.182-30.948,17.372-48.422,17.106
					c-9.811-0.143-19.489-2.241-28.953-4.829c-11.489-3.13-23.234-6.803-31.306-15.551c6.793-1.412,13.3-4.195,19.019-8.123
					c3.253-2.24,6.343-4.952,8.031-8.522c1.463-3.09,1.78-6.568,2.066-9.975c0.225-2.629,0.45-5.248,0.675-7.878
					c0.43-5.105,0.87-10.22,1.299-15.326c15.857,0.921,31.071-0.389,46.795-2.67c1.739-0.246,3.591-0.501,5.187,0.246l-0.021,2.486
					c0.092-0.859,0.184-1.719,0.276-2.578c0.573,5.913,1.238,11.816,2.005,17.699c1.31,10.087,2.906,20.144,4.798,30.14
					c0.256,1.361,0.542,2.783,1.381,3.898c1.013,1.361,2.691,2.046,4.317,2.547C292.993,324.205,297.382,324.655,301.699,324.266z"
					/>
				<path style="fill:#8E5742;" d="M278.353,286.351c-2.302,1.627-4.819,2.967-7.448,3.949c-4.45,1.657-9.208,2.343-13.955,2.578
					c-11.663,0.563-23.449-1.668-34.14-6.384c0.43-5.105,0.87-10.22,1.299-15.326c15.857,0.921,31.071-0.389,46.795-2.67
					c1.739-0.246,3.591-0.501,5.187,0.246l-0.021,2.486c0.092-0.859,0.184-1.719,0.276-2.578
					C276.921,274.566,277.586,280.469,278.353,286.351z"/>
				<path style="fill:#A87156;" d="M310.541,204.067c-0.661-13.732-6.421-27.373-15.451-37.701
					c-10.379-11.872-24.614-19.835-40.381-21.566c-5.783-0.635-12.147-0.532-18.434,0.447c-14.279-0.408-27.103,6.729-35.972,17.911
					c-9.887,12.465-14.224,29.21-14.525,44.907c-0.558,29.101,12.548,60.203,40.594,72.401c13.575,5.904,29.867,6.739,43.516,0.597
					c13.632-6.135,23.299-17.949,29.994-30.993C307.091,236.022,311.303,219.893,310.541,204.067z"/>
				<g>
					<g>
						<path style="fill:#A87156;" d="M193.773,220.292c4.873-4.409,0.125-11.735-4.85-13.462
							c-6.354-2.205-13.226,1.973-16.036,7.667c-2.689,5.449-3.045,12.229-0.146,17.689c3.135,5.905,11.095,10.126,17.666,7.706
							c5.973-2.2,7.973-10.603,1.844-14.107c-1.529-0.874-4.458-1.206-5.507-2.016c0.5,0.386-0.051-1.118,0.005-1.662
							c-0.057,0.553,0.193-0.813,0.298-1.169c0.253-0.859,1.109-1.243,0.396-0.801c0.633-0.392-0.16,0.05-0.049,0.174
							c0.527,0.589,1.562,0.811,2.261,1.071C191.087,221.914,192.714,221.25,193.773,220.292L193.773,220.292z"/>
					</g>
				</g>
				<g>
					<g>
						<path style="fill:#A87156;" d="M181.807,218.618c-0.927,4.531-0.33,11.092,5.508,11.516c1.338,0.097,2.862-0.823,3.478-1.995
							c0.947-1.801,0.851-3.586,0.199-5.467c-0.529-1.236-0.651-1.529-0.366-0.88c-0.108-0.295-0.203-0.595-0.285-0.898
							c-0.081-0.3-0.149-0.603-0.203-0.909c0.052,0.389,0.053,0.309,0.005-0.239c-0.134-2.123-1.513-3.877-3.68-4.168
							C184.503,215.315,182.232,216.542,181.807,218.618L181.807,218.618z"/>
					</g>
				</g>
				<g>
					<g>
						<path style="fill:#A87156;" d="M302.832,221.034c2.842,2.095,4.187-0.439,6.781-0.52c-0.951,0.03-0.266-0.486,0.387,0.34
							c-0.519-0.656,0.226-0.857-0.278-0.204c-0.487,0.631-0.551,1.586-1.035,1.989c-0.755,0.629-1,0.18-1.603,0.793
							c0.619,0.03,0.382,0.043-0.71,0.038c0.954,0.137,1.838,0.447,2.652,0.93c-2.925-3.56-9.023-3.032-12.055,0
							c-3.555,3.555-2.885,8.448,0,12.055c4.548,5.686,13.788,4.523,19.365,1.246c6.535-3.841,10.324-11.663,8.784-19.136
							c-1.42-6.891-8.253-12.871-15.556-11.015C304.797,208.762,296.83,216.609,302.832,221.034L302.832,221.034z"/>
					</g>
				</g>
				<g>
					<g>
						<path style="fill:#A87156;" d="M305.324,219.051c-0.702,2.251-2.109,4.71-1.126,7.107c0.457,1.116,1.008,2.181,2.136,2.777
							c1.044,0.552,2.431,0.909,3.581,0.468c1.198-0.459,2.21-1.009,3.008-2.042c0.65-0.842,1.071-1.608,1.436-2.634
							c0.343-0.964,0.613-1.957,0.858-2.95c0.64-2.601-0.831-5.683-3.582-6.309C308.847,214.834,306.18,216.308,305.324,219.051
							L305.324,219.051z"/>
					</g>
				</g>
				<path style="fill:#8E5742;" d="M257.077,224.747c-0.746-2.338-0.916-4.866-1.084-7.301c-0.17-2.46-0.212-4.921-0.157-7.386
					c0.045-2.011,0.339-3.722-0.581-5.538c-0.119-0.235-0.46-0.257-0.635-0.082c-1.809,1.814-1.868,4.501-2.109,6.961
					c-0.352,3.578-0.302,7.207,0.156,10.774c0.344,2.68,0.981,5.34,2.499,7.614c1.064,1.594,2.569,2.736,2.325,4.775
					c-0.392,3.282-3.62,3.586-6.305,3.859c-1.666,0.169-2.281,2.651-0.421,3.11c6.186,1.528,13.566-4.669,9.778-11.034
					C259.358,228.51,257.805,227.028,257.077,224.747z"/>
				<path style="fill:#8E5742;" d="M319.766,218.934c-1.807-6.567-11.871-8.371-14.555-1.497c-0.427,1.094,1.06,1.642,1.784,1.038
					c1.688-1.409,3.516-2.737,5.862-2.097c1.21,0.33,2.269,1.112,2.944,2.143c-1.274-0.43-2.711-0.223-3.852,0.531
					c-1.351,0.894-2.758,2.68-2.131,4.39c0.433,1.182,1.841,1.338,2.564,0.335c0.552-0.766,0.704-1.644,1.446-2.29
					c0.681-0.592,1.494-0.906,2.382-1.032c0.112-0.016,0.206-0.059,0.29-0.113c0.02,0.123,0.05,0.243,0.06,0.369
					c0.303,4.104-3.863,8.888-8.049,7.276c-2.027-0.781-3.154,2.325-1.432,3.398C314.087,235.753,321.539,225.381,319.766,218.934z"
					/>
				<path style="fill:#8E5742;" d="M182.822,213.906c-2.702,0.797-4.465,3.214-5.367,5.761c-0.936,2.641-1.541,6.017,0.26,8.416
					c1.652,2.202,4.741,2.983,7.374,2.965c2.006-0.013,2.592-3.233,0.49-3.617c-1.261-0.23-2.619-0.276-3.784-0.856
					c-1.558-0.775-1.58-2.361-1.312-3.875c1.026,1.361,2.531,2.465,4.309,2.131c1.112-0.21,1.271-1.631,0.623-2.359
					c-0.69-0.775-1.685-1.195-2.388-1.975c-0.455-0.506-0.793-1.093-1.033-1.722c1.221-1.665,3.097-2.454,5.522-1.4
					c0.975,0.424,2.126-0.476,1.531-1.531C187.816,213.664,185.086,213.238,182.822,213.906z"/>
				<path style="fill:#8E5742;" d="M295.234,200.088c-9.247-2.357-22.485-2.443-30.37,3.818c-0.774,0.615,0.088,1.692,0.888,1.525
					c4.807-1.003,9.149-2.91,14.138-3.307c4.87-0.388,9.692,0.129,14.416,1.333C296.485,204.013,297.415,200.644,295.234,200.088z"
					/>
				<path style="fill:#8E5742;" d="M219.948,199.815c-6.128,0.296-13.254,2.098-17.356,6.987c-1.029,1.227,0.342,3.503,1.856,2.406
					c4.816-3.488,9.46-5.692,15.5-6.027c5.673-0.315,10.317,0.9,15.503,2.965c0.861,0.343,1.802-0.869,1.244-1.618
					C233.237,199.884,225.22,199.56,219.948,199.815z"/>
				<path style="fill:#FFFFFF;" d="M267.695,248.035c-6.78,0.812-13.597,1.317-20.395,1.973c-3.897,0.079-7.794,0.182-11.689,0.331
					c-1.12,0.043-2.283,0.972-2.195,2.195c0.625,8.586,11.994,14.991,19.855,14.519c9.085-0.545,16.085-7.881,16.544-16.897
					C269.869,249.107,268.796,247.903,267.695,248.035z"/>
				<g>
					<path style="fill:#C46262;" d="M221.302,225.965c-3.721-1.64-8.306-2.545-11.993-0.351c-3.428,2.04-5.961,6.404-6.332,10.322
						c-0.325,3.429,1.016,5.688,3.163,7.008c4.094,3.806,11.783,4.295,16.685,2.053
						C232.222,240.698,229.636,229.639,221.302,225.965z M211.361,235.77c-0.102,0.366-0.162,0.736-0.188,1.107
						C211.066,236.595,211.148,236.205,211.361,235.77z"/>
					<path style="fill:#C46262;" d="M286.29,222.532c-0.089-0.01-0.179-0.015-0.269-0.022c-4.301-1.284-9.07-0.183-12.338,3.547
						c-1.953,2.229-3.361,5.48-2.949,8.481c0.467,3.401,3.302,5.273,6.361,6.28c5.694,1.874,14.916,1.569,17.77-4.739
						C297.709,229.792,292.673,223.231,286.29,222.532z M278.935,229.561c-0.736,1.019-1.244,2.102-1.382,3.147
						C277.465,231.606,278.009,230.513,278.935,229.561z"/>
				</g>
				<path style="fill:#2D2826;" d="M296.023,195.243c-0.502-0.207-1.347-0.722-1.88-0.838c-6.326-2.885-13.227-4.845-20.243-4.214
					c-0.595,0.053-1.224,0.105-1.859,0.18c0.23-0.256,0.456-0.515,0.66-0.794c0.449-0.615-0.3-1.553-1.001-1.302
					c-1.168,0.418-2.192,1.177-3.077,2.126c-0.003-0.753-0.99-1.451-1.653-0.94c-3.104,2.39-4.586,7.528-3.528,11.466
					c-0.058,0.32-0.112,0.633-0.157,0.928c-0.113,0.738,0.389,1.402,0.992,1.63c0.268,0.326,0.699,0.506,1.239,0.347
					c9.653-2.842,18.573-4.991,28.729-3.741c0.958,0.118,2.096-0.311,2.486-0.838C297.416,198.327,298.027,196.068,296.023,195.243z
					"/>
				<path style="fill:#2D2826;" d="M235.342,190.459c-1.112-0.668-2.246,0.34-2.204,1.388c-0.908-0.469-1.95-0.707-3.049-0.614
					c-0.765,0.065-1.157,0.573-1.202,1.117c-6.39-0.599-13.081,0.523-18.759,3.465c-4.792,1.838-8.933,4.993-10.775,10.053
					c-0.746,2.05,1.923,2.985,3.279,1.909c9.102-7.222,20.649-8.336,31.303-4.134c0.663,0.262,1.319-0.003,1.776-0.476
					c0.604,0.371,1.507-0.011,1.606-0.883C237.743,198.548,239.332,192.857,235.342,190.459z"/>
				<path style="fill:#2D2826;" d="M219.691,207.944c-1.429,0.225-2.87,0.75-4.183,1.513c-1.601,0.269-3.162,0.788-4.551,1.641
					c-1.304,0.801-2.995,1.965-3.358,3.536c-0.189,0.819,0.643,1.434,1.378,1.059c0.854-0.436,1.519-1.196,2.223-1.896
					c-0.546,1.037-0.887,2.173-0.953,3.379c-0.108,1.999,2.586,2.454,3.56,0.964c2.13-3.257,3.778-6.301,8.294-6.152
					c3.689,0.121,5.373,3.131,8.606,4.004c0.868,0.235,1.603-0.565,1.408-1.408C230.972,209.642,224.194,207.234,219.691,207.944z"
					/>
				<path style="fill:#2D2826;" d="M282.132,209.401c-1.486-0.854-3.224-1.272-5.119-1.067c-4.028,0.435-9.722,4.217-10.336,8.494
					c-0.113,0.787,0.504,1.785,1.44,1.44c2.63-0.969,4.02-3.739,6.546-5.025c1.812-0.922,4.258-1.185,5.923,0.194
					c1.111,0.92,1.744,2.526,2.634,3.671c1.264,1.624,3.964-0.143,3.38-1.968c-0.276-0.863-0.654-1.675-1.112-2.422
					c1.11,0.668,2.144,1.444,3.325,1.972c0.734,0.328,1.748-0.396,1.213-1.213C288.437,211.051,285.247,209.761,282.132,209.401z"/>
				<path style="fill:#2D2826;" d="M325.806,188.776c0.948-4.496,0.019-9.897-1.789-14.095c-0.215-0.5-0.448-0.999-0.696-1.494
					c3.367-4.056,3.321-10.433,0.05-14.639c-2.699-3.469-6.984-4.929-11.136-4.468c-0.228-0.221-0.461-0.437-0.698-0.644
					c1.949-7.409-0.443-15.566-7.771-19.413c-5.094-2.674-10.916-1.963-15.072,1.232c-0.151-0.227-0.309-0.452-0.471-0.673
					c0.268-4.272-4.257-9.447-7.939-11.069c-3.166-1.395-8.296-1.415-12.093,0.223c-1.836-2.411-4.413-4.242-7.673-5.018
					c-2.111-0.502-4.508-0.489-6.909-0.036c-0.269-0.226-0.547-0.444-0.84-0.65c-5.611-3.95-11.497-2.974-15.857,0.462
					c-4.917-1.463-10.393-0.641-14.838,2.727c-1.574,1.192-3.145,2.806-4.279,4.64c-1.236-0.912-2.562-1.65-3.975-2.091
					c-4.083-1.273-8.488,0.431-11.714,2.967c-4.097,3.221-6.295,7.969-6.246,12.719c-2.816,1.275-5.273,3.329-7.256,5.854
					c-1.878,2.391-3.658,5.189-4.799,8.168c-2.004-0.677-4.087-0.9-6.203-0.03c-2.788,1.146-4.705,3.715-5.723,6.474
					c-1.41,3.823-2.781,12.207,0.711,15.5c0.237,2.546,0.856,5.024,1.946,7.063c-3.009,1.969-5.428,5.983-5.998,8.71
					c-1.089,5.205,1.512,11.585,6.492,13.806c0.436,0.677,0.927,1.279,1.461,1.805c0.173,0.232,0.389,0.436,0.65,0.593
					c1.206,0.996,2.587,1.655,4.025,1.984c1.096,0.665,2.139,1.419,3.134,2.272c1.215,1.042,2.135,2.008,3.467,2.616
					c1.012,1.38,2.031,2.801,3.244,4.083c1.498,1.583,4.167-0.058,3.606-2.099c-0.777-2.828-1.609-5.648-2.328-8.491
					c-0.229-0.904-0.345-1.848-0.437-2.799c0.161-0.246,0.316-0.499,0.46-0.764c2.094-3.852,0.528-6.798,0.927-10.683
					c0.007-0.069,0.024-0.137,0.033-0.205c2.624-1.356,4.589-3.867,4.837-7.004c0.555-0.473,1.124-0.928,1.7-1.373
					c3.287,0.628,7.068,0.218,9.258-0.669c5.093-2.063,8.229-6.657,9.159-11.786c3.423,2.567,9.484,1.735,10.331-3.174
					c0.982-4.65-0.108-8.686,3.09-12.692c1.281-1.605,2.87-2.633,4.617-3.297c-0.779,1.268-1.344,2.656-1.627,4.115
					c-1.112,5.732,2.93,11.949,8.457,12.422c1.696,0.596,3.494,0.68,5.113,0.208c1.284,3.015,6.136,4.397,9.497,2.773
					c1.456-0.703,0.707-2.983-0.804-2.967c-1.287,0.014-6.682,0.432-4.969-2.445c0.749-1.257-0.097-2.357-1.172-2.593
					c0.053-0.777-0.158-1.577-0.754-2.337c-1.896-2.419-5.235-1.564-7.194,0.216c-0.751,0.683-1.457,1.559-1.903,2.471
					c-1.769-1.197-2.844-3.391-2.886-5.644c-0.049-2.649,1.185-5.137,3.073-7.018c0.811,3.161,3.751,5.403,7.081,6.112
					c3.285,0.7,10.512,0.953,11.405-3.333c0.005-0.023,0.003-0.048,0.007-0.071c0.074,0.334,0.17,0.671,0.285,1.011
					c-0.015,0.036-0.032,0.074-0.046,0.11c-1.304,3.232-2.165,7.169,0.259,10.115c2.091,2.541,6.097,3.33,9.215,2.613
					c1.764-0.406,3.528-1.678,4.181-3.288c1.371,0.121,2.719,0.045,3.989-0.249c0.096,0.047,0.193,0.094,0.289,0.139
					c0.845,1.858,2.246,3.516,4.089,4.769c0.168,0.114,0.339,0.217,0.511,0.313c-0.133,2.804,1.324,5.939,3.285,7.532
					c1.985,1.613,4.587,2.47,7.129,2.589c0.945,0.044,2.116-0.053,3.135-0.411c0.451,1.448,1.128,2.826,1.987,4.071
					c0.104,2.58,0.851,5.083,2.285,7.238c-0.027,0.048-0.056,0.095-0.082,0.143c-2.593,4.744-2.61,10.776,0.635,14.833
					c0.57,3.003,0.965,6.061,0.753,9.035c-0.084,1.174,0.675,1.812,1.566,1.935c1.18,0.775,3.202,0.226,3.281-1.641
					c0.028-0.837,0.129-1.649,0.289-2.436c0.484-1.051,1.02-2.054,1.612-3.012c2.556,0.06,5.237-0.813,7.645-2.158
					c3.681,0.734,7.146-2.549,8.955-5.86C327.183,198.33,327.551,193.309,325.806,188.776z M245.011,165.615
					c1.818-0.708,1.183,0.163-0.218,0.423C244.647,165.898,244.68,165.744,245.011,165.615z M320.902,160.757
					c2.116,2.944,1.978,6.41,0.667,9.507c-0.388-0.541-0.803-1.06-1.249-1.546c-0.549-4.189-2.349-8.286-4.861-11.125
					c-0.068-0.077-0.144-0.145-0.214-0.22C317.461,157.732,319.533,158.853,320.902,160.757z M302.684,136.894
					c5.265,3.113,7.092,8.963,6.012,14.51c-0.937-0.531-1.912-0.956-2.913-1.255c-0.641-0.191-1.283-0.32-1.923-0.403
					c-0.426-1.879-1.062-3.709-2.013-5.375c-2.399-4.201-6.67-7.015-11.307-7.311C294.079,134.82,298.699,134.538,302.684,136.894z
					 M278.326,126.578c1.391,0.469,3.217,1.681,4.686,3.214c-0.276-0.168-0.556-0.329-0.841-0.481
					c-2.818-1.499-5.927-2.622-9.058-3.166C274.922,125.895,276.814,126.069,278.326,126.578z M228.114,121.468
					c1.6-0.58,3.246-0.828,4.876-0.8c-4.306,1.526-9.1,3.984-11.356,7.993c-0.222,0.021-0.444,0.044-0.665,0.075
					c-0.175-0.188-0.353-0.373-0.533-0.557C222.086,125.221,225.682,122.349,228.114,121.468z M204.818,128.903
					c4.236-3.032,8.164-2.385,11.675-0.179c-0.059,0.202-0.111,0.405-0.156,0.61c-4.556,1.211-7.984,5.111-8.794,9.607
					c-1.596-0.542-3.254-0.886-4.93-0.908c-1.118-0.015-2.203,0.091-3.252,0.298C199.694,134.693,201.594,131.21,204.818,128.903z
					 M177.835,156.443c1.314-0.86,2.726-1.031,4.14-0.853c-3.424,1.831-6.327,4.776-7.905,8.416c-0.177,0.408-0.34,0.85-0.49,1.315
					c0.208-1.633,0.546-3.114,0.845-4.052C175.024,159.388,176.155,157.543,177.835,156.443z M171.22,193.091
					c0.043-1.945,0.769-3.865,1.831-5.473c0.508-0.77,1.437-1.889,2.516-2.789c-0.872,1.363-1.581,2.83-2.095,4.358
					c-0.966,2.868-1.254,6.156-0.788,9.291C171.74,196.933,171.174,195.176,171.22,193.091z M209.678,179.811
					c-1.638,0.994-3.527,1.518-5.437,1.599c1.155-1.04,2.208-2.19,3.069-3.554c0.112-0.015,0.224-0.033,0.336-0.05
					c1.33,0.113,2.699-0.3,3.894-1.057c0.801-0.303,1.519-0.63,2.098-0.944C212.668,177.406,211.355,178.793,209.678,179.811z
					 M251.294,155.178c-2.722,0.05-5.768-0.742-7.174-3.019c0.219-0.002,0.438-0.004,0.655-0.004
					c0.911,0.001,1.644-0.255,2.217-0.663c0.255,0.308,0.535,0.607,0.861,0.886c1.476,1.265,3.37,2.083,5.359,2.536
					C252.598,155.062,251.966,155.166,251.294,155.178z M262.372,164.747c-1.324-1.367-1.309-3.382-0.97-5.116
					c0.017-0.087,0.046-0.218,0.08-0.365c2.011,2.724,5.258,4.846,8.713,5.886C268.519,167.076,264.044,166.473,262.372,164.747z
					 M288.876,176.112c-1.503-0.741-2.71-1.957-3.157-3.604c-0.088-0.324-0.125-0.63-0.142-0.93
					c0.941-0.005,1.876-0.202,2.757-0.556c1.078,1.419,2.449,2.56,3.976,3.383c0.474,0.59,0.995,1.135,1.56,1.623
					c0.369,0.32,0.746,0.599,1.125,0.86c-0.389,0.081-0.786,0.158-1.208,0.192C292.153,177.21,290.349,176.839,288.876,176.112z"/>
				<g>
					<defs>
						<path id="XMLID_67_" d="M368.436,391.35c-3.641-23.549-14.982-45.844-31.871-62.656
							c-10.334-10.286-37.028-21.481-51.156-12.913c-10.846,6.577-24.01,8.723-36.641,7.55c-12.63-1.173-24.795-5.496-36.185-11.079
							c-9.762,2.202-19.911,4.29-29.673,6.493c-4.473,1.009-9.035,2.053-12.954,4.433c-7.581,4.603-11.478,13.325-14.62,21.619
							c-6.76,17.844-12.107,36.224-15.975,54.909c72.998,12.096,157.623,14.16,231.147,5.84c3.081-0.349-2.924-4.085-0.357-5.825
							C369.504,398.976,369.083,392.094,368.436,391.35z"/>
					</defs>
					<use xlink:href="#XMLID_67_"  style="overflow:visible;fill:#715DAF;"/>
					<clipPath id="XMLID_00000022561836561055193730000015781724097443368584_">
						<use xlink:href="#XMLID_67_"  style="overflow:visible;"/>
					</clipPath>
					<g style="clip-path:url(#XMLID_00000022561836561055193730000015781724097443368584_);">
						<g>
							<path style="fill:#D3D3D3;" d="M328.234,315.703c-2.56,9.14-1.59,19.098-1.73,28.564c-0.146,9.905-0.366,19.81-0.271,29.716
								c0.19,19.762-0.212,39.687,2.786,59.262c1.231,8.038,12.832,5.337,13.382-1.811c1.493-19.412-0.588-39.056-1.868-58.441
								c-0.633-9.589-1.588-19.155-2.453-28.725c-0.855-9.451-0.589-19.626-3.828-28.564
								C333.241,312.911,329.111,312.573,328.234,315.703L328.234,315.703z"/>
						</g>
					</g>
					<g style="clip-path:url(#XMLID_00000022561836561055193730000015781724097443368584_);">
						<g>
							<path style="fill:#D3D3D3;" d="M184.774,361.791c-3.899,11.069-7.528,21.728-9.595,33.33
								c-2.025,11.37-3.103,22.747-1.974,34.273c0.677,6.916,10.203,6.985,10.812,0c1.947-22.32,0.937-44.965,3.693-67.206
								C187.928,360.425,185.298,360.304,184.774,361.791L184.774,361.791z"/>
						</g>
					</g>
					<g style="clip-path:url(#XMLID_00000022561836561055193730000015781724097443368584_);">
						<g>
							<path style="fill:#D3D3D3;" d="M283.642,311.219c-3.884,2.49-6.173,7.055-9.981,9.841c-4.589,3.357-9.711,5.518-15.311,6.505
								c-6.091,1.072-12.149,2.233-18.361,1.806c-3.141-0.216-6.339-0.786-9.438-1.342c-2.951-0.529-6.328-0.409-9.171-1.21
								c-0.868-0.245-1.378,0.986-0.61,1.446c3.352,2.007,5.408,3.759,9.358,4.436c3.013,0.517,5.972,0.493,9.013,0.498
								c7.377,0.013,14.551,1.772,21.903,0.803c6.194-0.816,12.074-3.418,16.734-7.607c3.593-3.23,8.55-8.732,8.047-13.923
								C285.725,311.445,284.647,310.574,283.642,311.219L283.642,311.219z"/>
						</g>
					</g>
					<g style="clip-path:url(#XMLID_00000022561836561055193730000015781724097443368584_);">
						<g>
							<path style="fill:#D3D3D3;" d="M209.747,310.23c-0.304,6.798,11.6,11.887,16.853,13.757c3.91,1.392,8.079,2.351,12.245,2.316
								c4.503-0.038,7.477-1.088,11.222-3.358c0.728-0.441,0.673-1.745-0.252-1.928c-6.718-1.327-13.92-1.924-20.484-4.053
								c-3.555-1.153-7.046-2.817-10.217-4.792c-2.486-1.548-4.519-3.891-7.609-3.7C210.523,308.532,209.792,309.229,209.747,310.23
								L209.747,310.23z"/>
						</g>
					</g>
				</g>
				<path style="fill:#A87156;" d="M356.582,400.945c-0.572-18.173,0.078-36.384,1.943-54.47c0.805-7.809-0.605-13.828,3.959-20.215
					c5.766-8.068,6.049-7.827,10.24-13.605c0.859-1.185,7.029-9.39,7.314-10.825c0.291-1.464,0.755-2.121-0.6-2.889
					c-0.958-0.543-2.141-0.567-3.145-0.115c-5.981,2.693-8.245,7.827-13.224,11.927c2.786-6.911,8.267-14.062,8.773-21.497
					c0.11-1.613-0.728-3.214-2.194-3.896c-2.696-1.254-6.585,4.725-7.824,7.21c-2.761,5.538-5.795,8.695-8.556,14.233
					c0.465-8.22,2.868-17.51,2.345-25.727c-0.098-1.535-0.229-3.127-1.212-4.388c-0.539-0.691-1.344-1.184-2.219-1.206
					c-1.9-0.048-2.94,1.883-3.594,3.565c-3.385,8.705-3.657,15.176-5.87,26.228c0.2-7.666-1.012-13.443-3.324-22.65
					c-0.493-1.963-1.77-4.152-3.877-4.098c-0.949,0.024-1.82,0.566-2.392,1.324c-1.022,1.351-1.138,3.041-1.202,4.67
					c-0.254,6.537,0.322,14.955,1.372,22.221c0.228,1.581-1.785,2.435-2.768,1.177c-2.306-2.949-4.717-5.938-7.534-6.873
					c-0.96-0.318-2.035-0.306-2.92,0.186c-2.124,1.18-1.546,3.822-0.681,5.776c2.439,5.51,3.373,6.683,8.88,13.73
					c1.964,2.513,3.547,7.179,3.518,10.368l-0.632,70.339C339.079,400.4,348.594,400.775,356.582,400.945z"/>
			</g>
		</g>
	</g>
	<g>
		<defs>
			<rect id="SVGID_00000158016958497336630070000003960228549763700917_" x="378.575" y="71.646" width="251.45" height="324.559"/>
		</defs>
		<clipPath id="SVGID_00000178918071278989169790000006813626865834333363_">
			<use xlink:href="#SVGID_00000158016958497336630070000003960228549763700917_"  style="overflow:visible;"/>
		</clipPath>
		<g style="clip-path:url(#SVGID_00000178918071278989169790000006813626865834333363_);">
			<rect x="361.402" y="57.949" style="fill:#DD83D3;" width="297.334" height="352.619"/>
			<polygon style="fill:#D174CA;" points="376.592,95.21 382.123,189.914 462.774,189.914 458.131,84.665 			"/>
			<polygon style="fill:#D174CA;" points="484.003,74.74 484.003,145.731 551.68,145.731 551.68,71.646 			"/>
			<polygon style="fill:#D174CA;" points="632.725,144.4 573.492,137.29 575.853,234.477 647.612,236.877 			"/>
			<path style="fill:#565556;" d="M405.973,406.791c0,0-22.084-153.12-2.639-167.636c27.884-20.817,163.676-23.084,203.099,0
				c18.008,6.675-5.237,167.636-5.237,167.636H405.973z"/>
			<path style="fill:#896233;" d="M440.284,200.66c-8.084,8.806-7.551,22.269-6.312,34.158c1.239,11.889,2.322,25.165-5.1,34.535
				c-7.215,9.108-21.432,12.961-24.113,24.267c-1.671,7.047,2.042,14.702-0.273,21.565c-1.935,5.736-7.486,9.282-11.762,13.567
				c-10.087,10.11-13.407,26.389-8.086,39.642c2.154,5.365,6.371,10.672,12.137,11.083c2.631,0.188,5.206-0.681,7.753-1.367
				c21.213-5.718,43.503,0.847,65.327,3.377c26.936,3.123,54.161,0.019,81.1-3.084c17.554-2.022,35.108-4.044,52.662-6.065
				c6.138-0.707,13.162-1.967,16.264-7.309c3.042-5.238,0.731-12.04-2.906-16.884c-3.637-4.844-8.525-8.755-11.466-14.05
				c-8.236-14.828,1.614-33.544-1.856-50.147c-1.915-9.16-7.73-16.922-12.198-25.145c-8.075-14.86-11.875-31.591-17.369-47.587
				c-5.494-15.995-13.276-32.056-26.889-42.091c-17.465-12.876-42.028-13.281-62.04-4.896
				c-20.012,8.384-35.959,24.412-48.555,42.079"/>
			<path style="fill:#F9B49B;" d="M556.902,324.266c-13.433,11.182-30.948,17.372-48.422,17.106
				c-9.811-0.143-19.489-2.241-28.953-4.829c-11.489-3.13-23.234-6.803-31.306-15.551c6.793-1.412,13.3-4.195,19.019-8.123
				c3.253-2.24,6.343-4.952,8.031-8.522c1.463-3.09,1.78-6.568,2.067-9.975c0.225-2.629,0.45-5.248,0.675-7.878
				c0.43-5.105,0.869-10.22,1.299-15.326c15.858,0.921,31.071-0.389,46.795-2.67c1.739-0.246,3.591-0.501,5.187,0.246l-0.021,2.486
				c0.092-0.859,0.184-1.719,0.276-2.578c0.573,5.913,1.238,11.816,2.005,17.699c1.31,10.087,2.906,20.144,4.798,30.14
				c0.256,1.361,0.542,2.783,1.381,3.898c1.013,1.361,2.691,2.046,4.317,2.547C548.196,324.205,552.585,324.655,556.902,324.266z"/>
			<path style="fill:#E59B85;" d="M533.556,286.351c-2.302,1.627-4.819,2.967-7.448,3.949c-4.45,1.657-9.208,2.343-13.955,2.578
				c-11.663,0.563-23.449-1.668-34.14-6.384c0.43-5.105,0.869-10.22,1.299-15.326c15.858,0.921,31.071-0.389,46.795-2.67
				c1.739-0.246,3.591-0.501,5.187,0.246l-0.021,2.486c0.092-0.859,0.184-1.719,0.276-2.578
				C532.124,274.566,532.789,280.469,533.556,286.351z"/>
			<path style="fill:#F9B49B;" d="M565.744,204.067c-0.661-13.732-6.421-27.373-15.451-37.701
				c-10.379-11.872-24.614-19.835-40.381-21.566c-5.783-0.635-12.147-0.532-18.434,0.447c-14.279-0.408-27.103,6.729-35.972,17.911
				c-9.887,12.465-14.224,29.21-14.525,44.907c-0.558,29.101,12.548,60.203,40.594,72.401c13.575,5.904,29.867,6.739,43.516,0.597
				c13.632-6.135,23.299-17.949,29.994-30.993C562.294,236.022,566.506,219.893,565.744,204.067z"/>
			<g>
				<path style="fill:#F9B49B;" d="M447.454,225.785c-0.225-0.128-0.485-0.243-0.759-0.351c0.013-0.906-0.174-1.822-0.5-2.762
					c-0.253-0.592-0.411-0.961-0.477-1.121c0.002,0,0.003,0,0.005,0c0.025,0.056,0.057,0.129,0.106,0.24
					c-0.029-0.078-0.049-0.159-0.076-0.238c1.178,0.065,2.38-0.5,3.223-1.262c4.873-4.409,0.125-11.735-4.849-13.462
					c-6.354-2.205-13.226,1.973-16.036,7.667c-2.689,5.449-3.045,12.229-0.146,17.689c3.134,5.905,11.095,10.126,17.666,7.706
					C451.583,237.692,453.583,229.289,447.454,225.785z"/>
				<path style="fill:#F9B49B;" d="M580.323,218.565c-1.42-6.891-8.253-12.871-15.556-11.015
					c-4.767,1.212-12.734,9.058-6.731,13.483c0.561,0.413,1.062,0.642,1.528,0.749c-0.022,0.068-0.044,0.137-0.066,0.205
					c-2.652-0.292-5.525,0.615-7.323,2.412c-3.555,3.555-2.885,8.448,0,12.055c4.548,5.687,13.788,4.524,19.365,1.246
					C578.074,233.86,581.863,226.038,580.323,218.565z"/>
			</g>
			<path style="fill:#E59B85;" d="M574.969,218.934c-1.807-6.567-11.871-8.371-14.555-1.497c-0.427,1.094,1.06,1.642,1.784,1.038
				c1.688-1.409,3.516-2.737,5.862-2.097c1.21,0.33,2.269,1.112,2.944,2.143c-1.274-0.43-2.711-0.223-3.852,0.531
				c-1.351,0.894-2.758,2.68-2.131,4.39c0.433,1.182,1.841,1.338,2.564,0.335c0.552-0.766,0.704-1.644,1.446-2.29
				c0.681-0.592,1.494-0.906,2.381-1.032c0.112-0.016,0.206-0.059,0.29-0.113c0.02,0.123,0.05,0.243,0.06,0.369
				c0.303,4.104-3.863,8.888-8.049,7.276c-2.027-0.781-3.154,2.325-1.432,3.398C569.29,235.753,576.742,225.381,574.969,218.934z"/>
			<path style="fill:#E59B85;" d="M438.025,213.906c-2.702,0.797-4.465,3.214-5.367,5.761c-0.936,2.641-1.541,6.017,0.259,8.416
				c1.652,2.202,4.741,2.983,7.374,2.965c2.006-0.013,2.592-3.233,0.49-3.617c-1.261-0.23-2.619-0.276-3.784-0.856
				c-1.558-0.775-1.58-2.361-1.312-3.875c1.026,1.361,2.531,2.465,4.309,2.131c1.112-0.21,1.271-1.631,0.623-2.359
				c-0.69-0.775-1.685-1.195-2.388-1.975c-0.456-0.506-0.793-1.093-1.033-1.722c1.221-1.665,3.097-2.454,5.522-1.4
				c0.975,0.424,2.126-0.476,1.531-1.531C443.019,213.664,440.289,213.238,438.025,213.906z"/>
			<path style="fill:#E59B85;" d="M550.437,200.088c-9.246-2.357-22.485-2.443-30.37,3.818c-0.774,0.615,0.088,1.692,0.888,1.525
				c4.807-1.003,9.149-2.91,14.138-3.307c4.87-0.388,9.692,0.129,14.416,1.333C551.688,204.013,552.618,200.644,550.437,200.088z"/>
			<path style="fill:#E59B85;" d="M475.151,199.815c-6.128,0.296-13.254,2.098-17.356,6.987c-1.029,1.227,0.342,3.503,1.856,2.406
				c4.816-3.488,9.46-5.692,15.5-6.027c5.672-0.315,10.317,0.9,15.503,2.965c0.861,0.343,1.802-0.869,1.244-1.618
				C488.44,199.884,480.423,199.56,475.151,199.815z"/>
			<g>
				<path style="fill:#E08682;" d="M476.505,225.965c-3.721-1.64-8.306-2.545-11.993-0.351c-3.428,2.04-5.961,6.404-6.332,10.322
					c-0.325,3.429,1.016,5.688,3.163,7.008c4.095,3.806,11.783,4.295,16.685,2.053C487.425,240.698,484.839,229.639,476.505,225.965
					z M466.564,235.77c-0.102,0.366-0.162,0.736-0.188,1.107C466.269,236.595,466.351,236.205,466.564,235.77z"/>
				<path style="fill:#E08682;" d="M541.493,222.532c-0.089-0.01-0.179-0.015-0.269-0.022c-4.301-1.284-9.07-0.183-12.338,3.547
					c-1.953,2.229-3.361,5.48-2.949,8.481c0.467,3.401,3.302,5.273,6.361,6.28c5.694,1.874,14.916,1.569,17.77-4.739
					C552.912,229.792,547.876,223.231,541.493,222.532z M534.138,229.561c-0.736,1.019-1.244,2.102-1.382,3.147
					C532.668,231.606,533.212,230.513,534.138,229.561z"/>
			</g>
			<path style="fill:#2D2826;" d="M474.894,207.944c-1.429,0.225-2.87,0.75-4.183,1.513c-1.601,0.269-3.162,0.788-4.551,1.641
				c-1.304,0.801-2.995,1.965-3.358,3.536c-0.189,0.819,0.643,1.434,1.378,1.059c0.854-0.436,1.519-1.196,2.223-1.896
				c-0.546,1.037-0.887,2.173-0.952,3.379c-0.108,1.999,2.586,2.454,3.56,0.964c2.13-3.257,3.778-6.301,8.294-6.152
				c3.689,0.121,5.373,3.131,8.606,4.004c0.868,0.235,1.603-0.565,1.408-1.408C486.175,209.642,479.397,207.234,474.894,207.944z"/>
			<path style="fill:#2D2826;" d="M537.336,209.401c-1.486-0.854-3.224-1.272-5.119-1.067c-4.028,0.435-9.722,4.217-10.336,8.494
				c-0.113,0.787,0.504,1.785,1.44,1.44c2.63-0.969,4.02-3.739,6.546-5.025c1.812-0.922,4.258-1.185,5.923,0.194
				c1.111,0.92,1.744,2.526,2.634,3.671c1.264,1.624,3.964-0.143,3.38-1.968c-0.276-0.863-0.654-1.675-1.112-2.422
				c1.11,0.668,2.144,1.444,3.325,1.972c0.734,0.328,1.748-0.396,1.213-1.213C543.64,211.051,540.45,209.761,537.336,209.401z"/>
			<g>
				<path style="fill:#896233;" d="M556.652,201.861c-3.625-8.662-12.96-12.306-21.891-11.919
					c-7.776,0.337-20.107,2.786-16.024,13.088c0.51,1.286,2.414,1.571,3.136,0.632c0.204,0.004,0.408-0.009,0.604-0.06
					c9.361-2.421,22.15-6.388,30.715,0.274C554.575,204.952,557.558,204.027,556.652,201.861z"/>
				<path style="fill:#896233;" d="M491.01,194.658c-5.237-2.14-11.778-2.769-17.352-2.134c-9.249,1.054-17.886,6.121-20.844,15.303
					c-0.376,1.168,1.082,1.746,1.882,1.095c6.174-5.024,14.64-9.207,22.667-8.862c0.263,0.119,0.564,0.187,0.913,0.174
					c0.283-0.011,0.562-0.02,0.839-0.027c3.41,0.441,6.702,1.762,9.66,4.262c0.569,0.482,1.278,0.712,1.955,0.669
					c0.678,0.831,2.236,0.781,2.594-0.496C494.487,200.492,495.717,196.581,491.01,194.658z"/>
			</g>
			<g>
				<path style="fill:#E59B85;" d="M502.593,202.399c-0.577,5.277-0.301,10.628-1.614,15.818c-0.689,2.724-1.711,5.472-3.288,7.812
					c-0.825,1.224-2.585,2.412-2.96,3.872c-0.608,2.364,1.636,5.694,3.275,7.113c2.591,2.242,5.858,2.521,9.069,1.761
					c1.911-0.452,1.102-3.405-0.812-2.946c-2.783,0.668-9.258-0.693-8.791-4.878c0.111-0.995,1.989-2.388,2.546-3.126
					c1.505-1.993,2.673-4.229,3.49-6.587c2.094-6.039,2.145-12.866,1.156-19.119C504.464,200.85,502.711,201.32,502.593,202.399
					L502.593,202.399z"/>
			</g>
			<path style="fill:#896233;" d="M566.069,209.582c1.608-11.113-0.163-22.691-5.018-32.815
				c-4.855-10.124-12.217-18.331-21.889-24.034c1.795-0.978,3.589-1.957,5.384-2.935c-4.87,1.255-9.834-1.257-14.236-3.688
				c-2.545-1.405-5.089-2.81-7.634-4.214c-0.144,1.145,3.333,3.656,3.19,4.802c-11.757-3.792-27.7-7.757-40.031-7.002
				c-12.331,0.755-24.731,5.115-33.586,13.729c-1.056,1.027-2.11,2.216-2.286,3.679c-0.176,1.463,0.983,3.147,2.442,2.946
				c-11.432,12.772-17.646,30.654-16.755,47.772c1.057-1.019,2.68-1.31,4.132-1.093c-0.088,4.591,0.906,8.494,2.872,12.644
				c-0.594-9.418,2.584-19.022,8.68-26.227c-0.252,1.735-0.503,3.469-0.755,5.204c8.527-4.431,17.385-8.957,26.98-9.494
				c9.151-0.512,18.389,2.665,27.392,0.946c6.503-1.241,12.331-4.989,16.995-9.688c4.664-4.699,8.271-10.33,11.619-16.042
				c0.582,9.694,6.878,17.59,14.016,24.174C554.717,194.833,562.433,200.577,566.069,209.582z"/>
			<path style="fill:#C44D8E;" d="M435.044,245.83h-1.496c-5.152,0-9.368-4.216-9.368-9.368V209.12c0-5.152,4.216-9.368,9.368-9.368
				h1.496c5.152,0,9.368,4.216,9.368,9.368v27.342C444.412,241.615,440.196,245.83,435.044,245.83z"/>
			<path style="fill:#F266BA;" d="M424.18,236.324L424.18,236.324c-1.916,0-3.484-1.568-3.484-3.484v-16.284
				c0-1.917,1.568-3.485,3.484-3.485l0,0c1.917,0,3.484,1.568,3.484,3.485v16.284C427.664,234.756,426.096,236.324,424.18,236.324z"
				/>
			<path style="fill:#C44D8E;" d="M572.743,245.83h1.496c5.152,0,9.368-4.216,9.368-9.368V209.12c0-5.152-4.216-9.368-9.368-9.368
				h-1.496c-5.153,0-9.368,4.216-9.368,9.368v27.342C563.375,241.615,567.591,245.83,572.743,245.83z"/>
			<path style="fill:#F266BA;" d="M583.608,236.324L583.608,236.324c1.917,0,3.484-1.568,3.484-3.484v-16.284
				c0-1.917-1.568-3.485-3.484-3.485l0,0c-1.916,0-3.484,1.568-3.484,3.485v16.284C580.123,234.756,581.691,236.324,583.608,236.324
				z"/>
			<g>
				<path style="fill:#C44D8E;" d="M575.853,204.544h-8.329c0-36.593-28.953-66.364-64.542-66.364h-1.095
					c-35.588,0-64.542,29.771-64.542,66.364h-8.329c0-41.186,32.689-74.693,72.871-74.693h1.095
					C543.164,129.851,575.853,163.358,575.853,204.544z"/>
			</g>
			<path style="fill:#FFFFFF;" d="M523.379,248.726c-12.837,0.28-25.675,0.56-38.512,0.84c1.002,6.409,4.663,12.456,10.496,15.295
				c5.833,2.839,13.049,2.632,18.711-0.534C519.735,261.16,522.745,255.182,523.379,248.726z"/>
			<path style="fill:#E5AE57;" d="M386.805,412.969c4.942-14.343,5.945-29.711,9.316-44.503c3.37-14.792,9.798-29.881,22.355-38.394
				c9.457-6.411,21.203-8.299,32.572-9.44c28.826,19.035,67.685,20.885,98.002,4.328c14.749-8.055,34.189,1.087,46.864,12.122
				c10.363,9.022,17.002,21.574,22.038,34.357c5.597,14.21,9.504,29.084,11.61,44.21"/>
			<path style="fill:none;stroke:#C44D8E;stroke-width:0.9376;stroke-miterlimit:10;" d="M434.215,242.849
				c-0.689,12.656-3.796,25.09-4.422,37.749c-0.626,12.659,1.623,26.219,10.096,35.645c11.987,13.335,32.532,14.69,47.061,25.198
				c9.296,6.723,15.759,17.24,17.559,28.57c1.799,11.33-1.088,23.332-7.844,32.604"/>
		</g>
	</g>
	<g>
		<g>
			
				<ellipse transform="matrix(0.2286 -0.9735 0.9735 0.2286 -116.3917 596.1815)" style="fill:#42A85C;" cx="317.996" cy="371.534" rx="11.877" ry="11.877"/>
			
				<polygon style="fill:none;stroke:#FCFCFC;stroke-width:0.7032;stroke-linecap:round;stroke-linejoin:round;stroke-miterlimit:10;" points="
				314.794,368.926 310.954,368.926 310.954,374.137 314.794,374.137 320.005,376.605 320.005,366.252 			"/>
			
				<path style="fill:none;stroke:#FCFCFC;stroke-width:0.7032;stroke-linecap:round;stroke-linejoin:round;stroke-miterlimit:10;" d="
				M321.623,368.763c1.013,1.359,1.059,3.363,0.108,4.767"/>
			
				<path style="fill:none;stroke:#FCFCFC;stroke-width:0.7032;stroke-linecap:round;stroke-linejoin:round;stroke-miterlimit:10;" d="
				M322.912,365.804c1.231,1.523,2.077,3.436,2.124,5.427c0.046,1.991-0.781,4.042-2.336,5.198"/>
		</g>
		<g>
			
				<ellipse transform="matrix(0.7071 -0.7071 0.7071 0.7071 -158.9029 359.4426)" style="fill:#42A85C;" cx="354.434" cy="371.534" rx="11.877" ry="11.877"/>
			
				<path style="fill:none;stroke:#FCFCFC;stroke-width:0.7032;stroke-linecap:round;stroke-linejoin:round;stroke-miterlimit:10;" d="
				M354.377,374.731L354.377,374.731c-1.345,0-2.446-1.101-2.446-2.446v-6.705c0-1.345,1.101-2.446,2.446-2.446l0,0
				c1.345,0,2.446,1.101,2.446,2.446v6.705C356.823,373.63,355.722,374.731,354.377,374.731z"/>
			
				<path style="fill:none;stroke:#FCFCFC;stroke-width:0.7032;stroke-linecap:round;stroke-linejoin:round;stroke-miterlimit:10;" d="
				M359.088,370.13v2.809c0,2.641-2.161,4.802-4.802,4.802l0,0c-2.641,0-4.802-2.161-4.802-4.802v-2.809"/>
			
				<line style="fill:none;stroke:#FCFCFC;stroke-width:0.7032;stroke-linecap:round;stroke-linejoin:round;stroke-miterlimit:10;" x1="354.286" y1="377.741" x2="354.286" y2="383.411"/>
		</g>
		<g>
			
				<ellipse transform="matrix(0.2286 -0.9735 0.9735 0.2286 -59.5696 667.8912)" style="fill:#42A85C;" cx="391.656" cy="371.534" rx="11.877" ry="11.877"/>
			
				<path style="fill:none;stroke:#FCFCFC;stroke-width:0.7032;stroke-linecap:round;stroke-linejoin:round;stroke-miterlimit:10;" d="
				M395.146,376.813h-8.88c-1.166,0-2.12-0.954-2.12-2.119v-6.318c0-1.166,0.954-2.12,2.12-2.12h8.88
				c1.166,0,2.119,0.954,2.119,2.12v6.318C397.266,375.859,396.312,376.813,395.146,376.813z"/>
			
				<polyline style="fill:none;stroke:#FCFCFC;stroke-width:0.7032;stroke-linecap:round;stroke-linejoin:round;stroke-miterlimit:10;" points="
				397.266,369.49 399.905,367.938 399.905,375.39 397.266,373.371 			"/>
		</g>
		<g>
			
				<ellipse transform="matrix(0.7071 -0.7071 0.7071 0.7071 -136.1832 414.293)" style="fill:#C62E2E;" cx="432.004" cy="371.534" rx="11.877" ry="11.877"/>
			<g>
				<g>
					
						<path style="fill:none;stroke:#FCFCFC;stroke-width:0.7032;stroke-linecap:round;stroke-linejoin:round;stroke-miterlimit:10;" d="
						M424.12,369.242c0.734-0.793,1.704-1.346,2.787-1.718c1.024-0.352,2.082-0.53,3.158-0.609c1.257-0.093,2.513-0.071,3.766,0.06
						c1.359,0.142,2.687,0.417,3.939,0.988c0.717,0.327,1.377,0.742,1.939,1.296c0.934,0.922,1.493,2.032,1.562,3.353
						c0.027,0.522-0.002,1.051-0.044,1.573c-0.055,0.691-0.455,1.067-1.181,1.078c-0.459,0.007-0.922-0.055-1.378-0.121
						c-0.553-0.08-1.107-0.171-1.63-0.384c-0.465-0.189-0.859-0.46-1.063-0.942c-0.136-0.323-0.127-0.664-0.11-1.004
						c0.017-0.334,0.046-0.667,0.072-1c0.047-0.584-0.236-1.032-0.821-1.318c-0.496-0.243-1.026-0.358-1.565-0.428
						c-1.009-0.131-2.022-0.152-3.037-0.065c-0.514,0.044-1.02,0.13-1.496,0.342c-0.686,0.305-0.935,0.77-0.877,1.512
						c0.034,0.444,0.029,0.897-0.024,1.339c-0.077,0.647-0.514,1.025-1.093,1.255c-0.512,0.204-1.054,0.269-1.596,0.326
						c-0.415,0.044-0.831,0.08-1.247,0.097c-0.31,0.013-0.616-0.038-0.897-0.182c-0.325-0.166-0.513-0.445-0.529-0.797
						c-0.031-0.709-0.063-1.422,0.069-2.125C423.001,370.828,423.422,370.006,424.12,369.242z"/>
				</g>
			</g>
		</g>
	</g>
	<path style="fill:#DBDBDB;" d="M107.128,413.849h74.433v21.911h395.831v-21.911h66.565c8.257,0,16.21,3.113,22.273,8.717L750,500H0
		l85.009-77.576C91.054,416.908,98.943,413.849,107.128,413.849z"/>
	<path style="fill:#1C1C1C;" d="M575.11,433.159H183.842c-1.255,0-2.281-1.027-2.281-2.281V411.96c0-1.255,1.027-2.281,2.281-2.281
		H575.11c1.255,0,2.281,1.027,2.281,2.281v18.917C577.392,432.133,576.365,433.159,575.11,433.159z"/>
	<g>
		<path style="fill:#1C1C1C;" d="M178.285,461.526l-24.098,0c-2.162,0-3.08-1.692-2.048-3.741l2.38-4.728
			c0.998-1.983,3.526-3.591,5.626-3.591h23.401c2.1,0,3.132,1.608,2.285,3.592l-2.018,4.728
			C182.939,459.834,180.447,461.526,178.285,461.526z"/>
		<path style="fill:#1C1C1C;" d="M219.919,461.527l-24.102,0c-2.162,0-3.249-1.692-2.422-3.742l1.908-4.728
			c0.8-1.983,3.167-3.592,5.267-3.592h23.404c2.1,0,3.293,1.609,2.644,3.592l-1.546,4.729
			C224.404,459.835,222.082,461.527,219.919,461.527z"/>
		<path style="fill:#1C1C1C;" d="M263.324,461.528l-24.105,0c-2.163,0-3.426-1.692-2.812-3.742l1.416-4.729
			c0.594-1.983,2.794-3.592,4.894-3.592h23.408c2.1,0,3.461,1.609,3.019,3.592l-1.053,4.729
			C267.633,459.836,265.487,461.528,263.324,461.528z"/>
		<path style="fill:#1C1C1C;" d="M304.969,461.528l-24.108,0c-2.163,0-3.595-1.692-3.186-3.742l0.944-4.729
			c0.396-1.983,2.435-3.592,4.536-3.592h23.411c2.101,0,3.622,1.609,3.378,3.592l-0.581,4.729
			C309.111,459.836,307.133,461.529,304.969,461.528z"/>
		<path style="fill:#1C1C1C;" d="M350.567,461.529l-24.112,0c-2.163,0-3.781-1.693-3.596-3.742l0.427-4.729
			c0.179-1.984,2.043-3.592,4.144-3.592h23.414c2.101,0,3.798,1.609,3.771,3.593l-0.064,4.73
			C354.524,459.837,352.73,461.529,350.567,461.529z"/>
		<path style="fill:#1C1C1C;" d="M392.224,461.53l-24.115-0.001c-2.164,0-3.95-1.693-3.97-3.743l-0.046-4.73
			c-0.019-1.984,1.684-3.593,3.785-3.593h23.417c2.101,0,3.96,1.609,4.131,3.593l0.409,4.73
			C396.013,459.838,394.388,461.53,392.224,461.53z"/>
		<path style="fill:#1C1C1C;" d="M435.654,461.531l-24.119,0c-2.164,0-4.127-1.693-4.361-3.743l-0.539-4.73
			c-0.226-1.984,1.31-3.593,3.412-3.593h23.42c2.102,0,4.128,1.609,4.506,3.593l0.901,4.73
			C439.266,459.838,437.818,461.531,435.654,461.531z"/>
		<path style="fill:#1C1C1C;" d="M477.323,461.532l-24.122,0c-2.164,0-4.297-1.693-4.735-3.743l-1.011-4.73
			c-0.424-1.984,0.951-3.593,3.053-3.593h23.424c2.102,0,4.289,1.609,4.866,3.593l1.374,4.731
			C480.767,459.839,479.488,461.532,477.323,461.532z"/>
		<path style="fill:#1C1C1C;" d="M521.239,461.533l-24.125,0c-2.165,0-4.476-1.693-5.13-3.743l-1.51-4.731
			c-0.633-1.984,0.573-3.593,2.675-3.593h23.427c2.102,0,4.459,1.609,5.245,3.594l1.873,4.731
			C524.505,459.84,523.403,461.533,521.239,461.533z"/>
		<path style="fill:#1C1C1C;" d="M564.687,461.534l-24.129,0c-2.165,0-4.653-1.693-5.521-3.744l-2.003-4.731
			c-0.84-1.984,0.199-3.594,2.301-3.594h23.43c2.102,0,4.628,1.609,5.62,3.594l2.366,4.731
			C567.776,459.841,566.852,461.534,564.687,461.534z"/>
		<path style="fill:#1C1C1C;" d="M606.373,461.534l-24.132,0c-2.165,0-4.823-1.693-5.896-3.744l-2.476-4.732
			c-1.038-1.984-0.16-3.594,1.942-3.594h23.433c2.103,0,4.789,1.609,5.98,3.594l2.84,4.732
			C609.295,459.841,608.539,461.534,606.373,461.534z"/>
	</g>
	<g>
		<path style="fill:#1C1C1C;" d="M163.005,492.502l-22.711-0.002c-3.205,0-4.472-2.691-2.838-5.937l7.234-14.369
			c1.508-2.995,5.197-5.414,8.218-5.414l21.408,0.001c3.021,0,4.461,2.42,3.182,5.415l-6.132,14.37
			C169.981,489.811,166.21,492.502,163.005,492.502z"/>
		<path style="fill:#1C1C1C;" d="M207.77,492.505l-22.714-0.002c-3.205,0-4.742-2.692-3.432-5.938l5.799-14.37
			c1.209-2.995,4.657-5.415,7.678-5.415l21.411,0.001c3.022,0,4.703,2.42,3.724,5.415l-4.698,14.371
			C214.478,489.814,210.976,492.505,207.77,492.505z"/>
		<path style="fill:#1C1C1C;" d="M254.44,492.508l-22.717-0.002c-3.206,0-5.023-2.692-4.051-5.938l4.304-14.372
			c0.897-2.995,4.094-5.415,7.116-5.415l21.414,0.001c3.022,0,4.956,2.42,4.288,5.415l-3.202,14.372
			C260.868,489.817,257.646,492.508,254.44,492.508z"/>
		<path style="fill:#1C1C1C;" d="M299.218,492.511l-22.721-0.002c-3.206,0-5.292-2.692-4.644-5.939l2.868-14.373
			c0.598-2.996,3.553-5.415,6.576-5.415l21.417,0.001c3.022,0,5.198,2.42,4.83,5.416l-1.766,14.374
			C305.379,489.82,302.425,492.512,299.218,492.511z"/>
		<path style="fill:#1C1C1C;" d="M348.246,492.515l-22.724-0.002c-3.207,0-5.587-2.692-5.295-5.939l1.297-14.374
			c0.27-2.996,2.962-5.416,5.984-5.416l21.42,0.001c3.023,0,5.463,2.42,5.423,5.416l-0.194,14.375
			C354.113,489.823,351.453,492.515,348.246,492.515z"/>
		<path style="fill:#1C1C1C;" d="M393.039,492.518l-22.728-0.002c-3.207,0-5.857-2.693-5.889-5.939l-0.139-14.375
			c-0.029-2.996,2.421-5.416,5.444-5.416l21.423,0.001c3.023,0,5.706,2.421,5.965,5.417l1.242,14.376
			C398.638,489.826,396.246,492.518,393.039,492.518z"/>
		<path style="fill:#1C1C1C;" d="M439.737,492.521l-22.731-0.002c-3.208,0-6.139-2.693-6.508-5.94l-1.637-14.376
			c-0.341-2.996,1.857-5.417,4.88-5.417l21.426,0.001c3.024,0,5.959,2.421,6.53,5.417l2.74,14.377
			C445.056,489.829,442.944,492.522,439.737,492.521z"/>
		<path style="fill:#1C1C1C;" d="M484.542,492.525l-22.734-0.002c-3.208,0-6.409-2.693-7.103-5.94l-3.074-14.377
			c-0.641-2.996,1.316-5.417,4.34-5.417l21.429,0.001c3.024,0,6.202,2.421,7.073,5.418l4.177,14.378
			C489.594,489.832,487.751,492.525,484.542,492.525z"/>
		<path style="fill:#1C1C1C;" d="M531.764,492.528l-22.738-0.002c-3.209,0-6.693-2.693-7.73-5.941l-4.589-14.378
			c-0.956-2.997,0.745-5.417,3.77-5.417l21.432,0.001c3.025,0,6.458,2.421,7.644,5.418l5.692,14.379
			C536.532,489.835,534.973,492.528,531.764,492.528z"/>
		<path style="fill:#1C1C1C;" d="M578.483,492.531l-22.742-0.002c-3.209,0-6.975-2.694-8.35-5.941l-6.087-14.379
			c-1.269-2.997,0.181-5.418,3.206-5.418l21.435,0.001c3.025,0,6.711,2.421,8.21,5.418l7.191,14.38
			C582.971,489.838,581.693,492.531,578.483,492.531z"/>
		<path style="fill:#1C1C1C;" d="M623.309,492.534l-22.745-0.002c-3.21,0-7.245-2.694-8.945-5.942l-7.526-14.381
			c-1.568-2.997-0.36-5.418,2.665-5.418l21.438,0.001c3.025,0,6.954,2.421,8.752,5.419l8.63,14.381
			C627.529,489.841,626.519,492.535,623.309,492.534z"/>
	</g>
	<g>
		<path style="fill:#2B2B2B;" d="M178.285,459.223l-24.098,0c-2.162,0-3.08-1.692-2.048-3.741l2.38-4.728
			c0.998-1.983,3.526-3.591,5.626-3.591l23.401,0c2.1,0,3.132,1.608,2.285,3.592l-2.018,4.728
			C182.939,457.531,180.447,459.223,178.285,459.223z"/>
		<path style="fill:#2B2B2B;" d="M219.919,459.223l-24.102,0c-2.162,0-3.249-1.692-2.422-3.741l1.908-4.728
			c0.8-1.983,3.167-3.592,5.267-3.592h23.404c2.1,0,3.293,1.609,2.644,3.592l-1.546,4.729
			C224.404,457.531,222.082,459.224,219.919,459.223z"/>
		<path style="fill:#2B2B2B;" d="M263.324,459.224l-24.105-0.001c-2.163,0-3.426-1.692-2.812-3.742l1.416-4.729
			c0.594-1.983,2.794-3.592,4.894-3.592h23.408c2.1,0,3.461,1.609,3.019,3.592l-1.053,4.729
			C267.633,457.532,265.487,459.224,263.324,459.224z"/>
		<path style="fill:#2B2B2B;" d="M304.969,459.225l-24.108,0c-2.163,0-3.595-1.692-3.186-3.742l0.944-4.729
			c0.396-1.984,2.435-3.592,4.536-3.592h23.411c2.101,0,3.622,1.609,3.378,3.592l-0.581,4.729
			C309.111,457.533,307.133,459.225,304.969,459.225z"/>
		<path style="fill:#2B2B2B;" d="M350.567,459.226l-24.112-0.001c-2.163,0-3.781-1.692-3.596-3.742l0.427-4.729
			c0.179-1.984,2.043-3.592,4.144-3.592h23.414c2.101,0,3.798,1.609,3.771,3.593l-0.064,4.73
			C354.524,457.534,352.73,459.226,350.567,459.226z"/>
		<path style="fill:#2B2B2B;" d="M392.224,459.227l-24.115-0.001c-2.164,0-3.95-1.692-3.97-3.743l-0.046-4.73
			c-0.019-1.984,1.684-3.593,3.785-3.593h23.417c2.101,0,3.96,1.609,4.131,3.593l0.409,4.73
			C396.013,457.534,394.388,459.227,392.224,459.227z"/>
		<path style="fill:#2B2B2B;" d="M435.654,459.228l-24.119,0c-2.164,0-4.127-1.693-4.361-3.743l-0.539-4.73
			c-0.226-1.984,1.31-3.593,3.412-3.593h23.42c2.102,0,4.128,1.609,4.506,3.593l0.901,4.73
			C439.266,457.535,437.818,459.228,435.654,459.228z"/>
		<path style="fill:#2B2B2B;" d="M477.323,459.228l-24.122,0c-2.164,0-4.297-1.693-4.735-3.743l-1.011-4.73
			c-0.424-1.984,0.951-3.593,3.053-3.593h23.424c2.102,0,4.289,1.609,4.866,3.593l1.374,4.731
			C480.767,457.536,479.488,459.229,477.323,459.228z"/>
		<path style="fill:#2B2B2B;" d="M521.239,459.229l-24.125,0c-2.165,0-4.476-1.693-5.13-3.743l-1.51-4.731
			c-0.633-1.984,0.573-3.593,2.675-3.593h23.427c2.102,0,4.459,1.609,5.245,3.594l1.873,4.731
			C524.505,457.536,523.403,459.229,521.239,459.229z"/>
		<path style="fill:#2B2B2B;" d="M564.687,459.23l-24.129,0c-2.165,0-4.653-1.693-5.521-3.744l-2.003-4.731
			c-0.84-1.984,0.199-3.594,2.301-3.594h23.43c2.102,0,4.628,1.609,5.62,3.594l2.366,4.731
			C567.776,457.537,566.852,459.23,564.687,459.23z"/>
		<path style="fill:#2B2B2B;" d="M606.373,459.231l-24.132-0.001c-2.165,0-4.823-1.693-5.896-3.744l-2.476-4.731
			c-1.038-1.984-0.16-3.594,1.942-3.594h23.433c2.103,0,4.789,1.61,5.98,3.594l2.84,4.732
			C609.295,457.538,608.539,459.231,606.373,459.231z"/>
	</g>
	<g>
		<path style="fill:#2B2B2B;" d="M163.005,490.585l-22.711-0.002c-3.205,0-4.472-2.691-2.838-5.937l7.234-14.369
			c1.508-2.995,5.197-5.414,8.218-5.414l21.408,0.001c3.021,0,4.461,2.42,3.182,5.415l-6.132,14.37
			C169.981,487.894,166.21,490.585,163.005,490.585z"/>
		<path style="fill:#2B2B2B;" d="M207.77,490.588l-22.714-0.002c-3.205,0-4.742-2.692-3.432-5.938l5.799-14.37
			c1.209-2.995,4.657-5.414,7.678-5.414l21.411,0.001c3.022,0,4.703,2.42,3.724,5.415l-4.698,14.371
			C214.478,487.897,210.976,490.588,207.77,490.588z"/>
		<path style="fill:#2B2B2B;" d="M254.44,490.591l-22.717-0.002c-3.206,0-5.023-2.692-4.051-5.938l4.304-14.371
			c0.897-2.995,4.094-5.415,7.116-5.415l21.414,0.001c3.022,0,4.956,2.42,4.288,5.415l-3.202,14.372
			C260.868,487.9,257.646,490.592,254.44,490.591z"/>
		<path style="fill:#2B2B2B;" d="M299.218,490.595l-22.721-0.002c-3.206,0-5.292-2.692-4.644-5.938l2.868-14.373
			c0.598-2.995,3.553-5.415,6.576-5.415l21.417,0.001c3.022,0,5.198,2.42,4.83,5.416l-1.766,14.373
			C305.379,487.903,302.425,490.595,299.218,490.595z"/>
		<path style="fill:#2B2B2B;" d="M348.246,490.598l-22.724-0.002c-3.207,0-5.587-2.692-5.295-5.939l1.297-14.374
			c0.27-2.996,2.962-5.416,5.984-5.416l21.42,0.001c3.023,0,5.463,2.42,5.423,5.416l-0.194,14.375
			C354.113,487.906,351.453,490.598,348.246,490.598z"/>
		<path style="fill:#2B2B2B;" d="M393.039,490.601l-22.728-0.002c-3.207,0-5.857-2.693-5.889-5.94l-0.139-14.375
			c-0.029-2.996,2.421-5.416,5.444-5.416l21.423,0.001c3.023,0,5.706,2.421,5.965,5.417l1.242,14.376
			C398.638,487.909,396.246,490.602,393.039,490.601z"/>
		<path style="fill:#2B2B2B;" d="M439.737,490.605l-22.731-0.002c-3.208,0-6.139-2.693-6.508-5.94l-1.637-14.376
			c-0.341-2.996,1.857-5.417,4.88-5.416l21.426,0.001c3.024,0,5.959,2.421,6.53,5.417l2.74,14.377
			C445.056,487.913,442.944,490.605,439.737,490.605z"/>
		<path style="fill:#2B2B2B;" d="M484.542,490.608l-22.734-0.002c-3.208,0-6.409-2.693-7.103-5.94l-3.074-14.377
			c-0.641-2.996,1.316-5.417,4.34-5.417l21.429,0.001c3.024,0,6.202,2.421,7.073,5.417l4.177,14.378
			C489.594,487.915,487.751,490.608,484.542,490.608z"/>
		<path style="fill:#2B2B2B;" d="M531.764,490.611l-22.738-0.002c-3.209,0-6.693-2.693-7.73-5.941l-4.589-14.378
			c-0.956-2.997,0.745-5.417,3.77-5.417l21.432,0.001c3.025,0,6.458,2.421,7.644,5.418l5.692,14.379
			C536.532,487.919,534.973,490.611,531.764,490.611z"/>
		<path style="fill:#2B2B2B;" d="M578.483,490.615l-22.742-0.002c-3.209,0-6.975-2.694-8.35-5.941l-6.087-14.379
			c-1.269-2.997,0.181-5.418,3.206-5.418l21.435,0.001c3.025,0,6.711,2.421,8.21,5.418l7.191,14.38
			C582.971,487.922,581.693,490.615,578.483,490.615z"/>
		<path style="fill:#2B2B2B;" d="M623.309,490.618l-22.745-0.002c-3.21,0-7.245-2.694-8.945-5.942l-7.526-14.38
			c-1.568-2.997-0.36-5.418,2.665-5.418l21.438,0.001c3.025,0,6.954,2.421,8.752,5.419l8.63,14.381
			C627.529,487.925,626.519,490.618,623.309,490.618z"/>
	</g>
</g>
</svg>
