<?xml version="1.0" encoding="utf-8"?>
<!-- Generator: Adobe Illustrator 27.5.0, SVG Export Plug-In . SVG Version: 6.00 Build 0)  -->
<svg version="1.1" xmlns="http://www.w3.org/2000/svg" xmlns:xlink="http://www.w3.org/1999/xlink" x="0px" y="0px"
	 viewBox="0 0 750 500" style="enable-background:new 0 0 750 500;" xml:space="preserve">
<g id="BACKGROUND">
	<rect style="fill:#FFFFFF;" width="750" height="500"/>
</g>
<g id="OBJECTS">
	<g>
		<path style="fill:#DEE6F9;" d="M292.81,167.006c0,0-8.201-9.182-20.216-6.246c0,0-11.157-17.281-31.755-5.36
			c0,0-6.57-15.305-22.6-15.305c-16.628,0-23.471,12.53-23.471,12.53s-13.862-5.57-23.965,6.423c0,0-15.654-3.609-24.983,7.958
			H292.81z"/>
		<path style="fill:#DEE6F9;" d="M174.728,417.007c0,0-35.232-16.931-44.874-36.163c-9.642-19.231,24.91,18.76,51.545,25.473
			S190.439,423.949,174.728,417.007z"/>
		<path style="fill:#DEE6F9;" d="M533.99,390.322c0,0,66.051-46.14,80.921-102.856c14.87-56.716,27.665,46.531-56.023,112.831
			S533.99,390.322,533.99,390.322z"/>
		<path style="fill:#DEE6F9;" d="M124.239,324.171c-3.415-32.636,54.057,10.935,91.575-11.908
			c48.64-29.613,26.161-107.674-3.802-158.712c-18.982-32.334-90.053-118.617,31.677-86.109
			c87.349,23.327,274.402,189.149,264.753,86.109c-14.313-152.851,164.307-5.544,85.398,152.031
			C525.313,442.427,139.732,472.258,124.239,324.171z"/>
		<circle style="fill:#FFAE1E;" cx="466.613" cy="90.448" r="37.227"/>
		<path style="fill:#FF981E;" d="M492.93,64.119c2.99,5.36,4.701,11.532,4.701,18.106c0,20.56-16.667,37.227-37.227,37.227
			c-10.277,0-19.581-4.164-26.317-10.897c6.362,11.404,18.54,19.121,32.526,19.121c20.56,0,37.227-16.667,37.227-37.227
			C503.84,80.165,499.671,70.856,492.93,64.119z"/>
		<path style="fill:#FFFFFF;" d="M575.374,263.729c0,0-9.913-11.1-24.438-7.55c0,0-13.487-20.89-38.386-6.479
			c0,0-7.941-18.501-27.32-18.501c-20.101,0-28.373,15.146-28.373,15.146s-16.756-6.734-28.969,7.764c0,0-18.923-4.363-30.199,9.619
			H575.374z"/>
		<path style="fill:#DEE6F9;" d="M463.112,85.54c0,0-8.508-9.526-20.973-6.48c0,0-11.575-17.929-32.944-5.56
			c0,0-6.816-15.878-23.447-15.878c-17.251,0-24.351,12.999-24.351,12.999s-14.381-5.779-24.862,6.663
			c0,0-16.241-3.745-25.918,8.256H463.112z"/>
		<path style="fill:#DEE6F9;" d="M100.085,286.435c0,0,7.425-8.313,18.303-5.655c0,0,10.101-15.646,28.75-4.852
			c0,0,5.948-13.857,20.461-13.857c15.055,0,21.25,11.344,21.25,11.344s12.55-5.043,21.697,5.815c0,0,14.173-3.268,22.618,7.205
			H100.085z"/>
		<path style="fill:#DEE6F9;" d="M626.323,261.705c3.89-4.94,4.928-18.833,0.605-21.752c-4.323-2.919-5.757,8.568-5.792,11.723
			C621.073,257.21,622.433,266.645,626.323,261.705z"/>
		<path style="fill:#DEE6F9;" d="M123.245,372.158c0,0-8.516-9.127-6.83-13.537s6.769,3.499,8.127,6.052
			C126.271,367.923,126.573,374.671,123.245,372.158z"/>
		<path style="fill:#FFFFFF;" d="M675.5,221.119c0,0-8.201-9.182-20.216-6.246c0,0-11.157-17.281-31.755-5.36
			c0,0-6.57-15.305-22.6-15.305c-16.628,0-23.471,12.53-23.471,12.53s-13.862-5.57-23.965,6.423c0,0-15.654-3.609-24.983,7.958
			H675.5z"/>
	</g>
	<path style="fill:#DEE6F9;" d="M645.257,437.179H104.743c-3.709,0-6.743-3.035-6.743-6.743v0c0-3.709,3.035-6.743,6.743-6.743
		h540.513c3.709,0,6.743,3.035,6.743,6.743v0C652,434.145,648.965,437.179,645.257,437.179z"/>
	<g>
		<path style="fill:#31A8A5;" d="M523.076,381.25c23.44,0,42.443,19.002,42.443,42.443h-84.885
			C480.634,400.252,499.636,381.25,523.076,381.25z"/>
		<path style="fill:#48B7B7;" d="M557.369,393.493c16.679,0,30.199,13.521,30.199,30.199h-60.399
			C527.169,407.014,540.69,393.493,557.369,393.493z"/>
		<g>
			<path style="fill:#31A8A5;" d="M461.729,430.039c0,0-13.812-96.372,126.084-128.785c0,0-31.917,15.892-54.262,62.005
				C511.206,409.371,483.931,425.85,461.729,430.039z"/>
			<g>
				<g>
					<path style="fill:#6ED3D1;" d="M470.691,417.594c0,0,0.208-0.559,0.599-1.607c0.415-1.038,0.997-2.576,1.863-4.478
						c0.855-1.906,1.92-4.212,3.226-6.816c1.29-2.612,2.817-5.526,4.604-8.638c1.758-3.129,3.785-6.448,6.007-9.911
						c2.259-3.437,4.656-7.059,7.345-10.656c2.649-3.626,5.497-7.294,8.506-10.926c3.045-3.602,6.186-7.224,9.477-10.708
						l2.478-2.603l2.536-2.536c1.673-1.702,3.397-3.34,5.117-4.954c1.691-1.645,3.452-3.187,5.188-4.713
						c1.715-1.551,3.483-2.996,5.205-4.437c1.711-1.454,3.44-2.827,5.155-4.142c0.853-0.662,1.698-1.317,2.532-1.964
						c0.852-0.623,1.694-1.238,2.525-1.845c3.287-2.474,6.543-4.607,9.515-6.612c3.034-1.915,5.796-3.696,8.335-5.125
						c2.539-1.429,4.704-2.748,6.563-3.703c1.841-0.987,3.31-1.719,4.301-2.236c0.994-0.511,1.523-0.784,1.523-0.784
						s-0.502,0.322-1.443,0.926c-0.944,0.598-2.313,1.502-4.084,2.597c-1.781,1.079-3.846,2.548-6.263,4.144
						c-1.214,0.791-2.464,1.694-3.782,2.645c-1.325,0.938-2.718,1.924-4.172,2.954c-2.844,2.147-5.957,4.421-9.136,6.975
						c-0.8,0.631-1.611,1.27-2.432,1.918c-0.802,0.671-1.614,1.35-2.434,2.036c-1.639,1.375-3.34,2.745-4.994,4.23
						c-3.371,2.894-6.734,6.021-10.109,9.237c-1.688,1.609-3.38,3.239-5.021,4.934l-2.488,2.524l-2.432,2.588
						c-3.278,3.419-6.408,6.977-9.445,10.515c-2.983,3.583-5.931,7.105-8.614,10.647c-2.718,3.515-5.241,6.994-7.601,10.318
						c-2.306,3.36-4.486,6.543-6.39,9.552c-3.83,6.004-6.831,11.142-8.776,14.823c-0.977,1.838-1.738,3.288-2.237,4.288
						C470.951,417.058,470.691,417.594,470.691,417.594z"/>
				</g>
			</g>
		</g>
		<g>
			<path style="fill:#48B7B7;" d="M458.051,416.411c0,0-32.891-74.48,72.433-132.182c0,0-22.11,20.007-29.686,62.185
				C493.222,388.593,474.982,408.023,458.051,416.411z"/>
			<g>
				<g>
					<path style="fill:#6ED3D1;" d="M462.457,404.366c0,0,0.022-0.498,0.112-1.43c0.074-0.934,0.219-2.3,0.447-4.035
						c0.259-1.728,0.537-3.839,1.015-6.228c0.234-1.197,0.483-2.471,0.745-3.813c0.29-1.337,0.644-2.73,0.987-4.193
						c0.642-2.938,1.614-6.044,2.541-9.362c0.536-1.636,1.086-3.318,1.648-5.036c0.285-0.858,0.574-1.726,0.865-2.602
						c0.307-0.871,0.659-1.733,0.99-2.613c0.675-1.755,1.361-3.539,2.055-5.344c0.704-1.803,1.537-3.576,2.334-5.383
						c0.829-1.791,1.564-3.645,2.487-5.419c0.901-1.784,1.805-3.575,2.709-5.365l1.378-2.674l1.504-2.599
						c1.005-1.727,2.007-3.447,3-5.154c0.512-0.844,0.958-1.723,1.518-2.528c0.544-0.813,1.086-1.622,1.625-2.427
						c1.077-1.608,2.14-3.196,3.186-4.758c1.015-1.582,2.127-3.06,3.243-4.485c1.103-1.433,2.182-2.835,3.233-4.2
						c1.071-1.348,2.018-2.731,3.129-3.916c1.074-1.212,2.112-2.383,3.108-3.508c0.996-1.121,1.952-2.196,2.86-3.218
						c0.91-1.02,1.772-1.986,2.668-2.817c1.751-1.694,3.278-3.171,4.535-4.387c2.535-2.4,3.983-3.771,3.983-3.771
						s-1.292,1.521-3.552,4.184c-1.14,1.315-2.525,2.911-4.113,4.743c-0.822,0.889-1.603,1.916-2.426,2.998
						c-0.835,1.07-1.714,2.195-2.63,3.37c-1.824,2.353-3.875,4.837-5.774,7.671c-0.978,1.394-1.983,2.825-3.01,4.288
						c-0.516,0.729-1.038,1.465-1.565,2.209c-0.537,0.736-0.992,1.54-1.499,2.317c-0.991,1.569-1.999,3.164-3.018,4.778
						c-1.015,1.617-2.08,3.229-3.012,4.941c-0.965,1.692-1.937,3.397-2.913,5.108l-1.461,2.574l-1.338,2.647
						c-0.907,1.758-1.815,3.516-2.718,5.267c-0.926,1.741-1.665,3.563-2.499,5.322c-0.789,1.78-1.655,3.51-2.402,5.268
						c-0.732,1.764-1.456,3.506-2.167,5.22c-0.35,0.859-0.721,1.703-1.047,2.554c-0.319,0.854-0.635,1.7-0.947,2.537
						c-0.63,1.673-1.247,3.31-1.847,4.904c-0.542,1.614-1.07,3.185-1.58,4.704c-0.259,0.759-0.515,1.505-0.765,2.238
						c-0.225,0.74-0.446,1.466-0.662,2.178c-0.433,1.424-0.848,2.79-1.242,4.088c-0.363,1.308-0.706,2.549-1.03,3.715
						c-0.643,2.335-1.129,4.391-1.545,6.082c-0.374,1.699-0.701,3.032-0.87,3.95C462.535,403.872,462.457,404.366,462.457,404.366z"
						/>
				</g>
			</g>
		</g>
		<g>
			<path style="fill:#48B7B7;" d="M454.94,428.23c0,0,15.072-96.183,158.322-86.123c0,0-35.176,5.828-70.067,43.355
				S477.394,430.739,454.94,428.23z"/>
			<g>
				<g>
					<path style="fill:#6ED3D1;" d="M467.16,418.962c0,0,0.363-0.473,1.044-1.36c0.701-0.871,1.709-2.171,3.095-3.734
						c1.377-1.572,3.071-3.463,5.084-5.569c2-2.119,4.315-4.456,6.935-6.907c2.599-2.475,5.511-5.053,8.65-7.713
						c3.168-2.623,6.522-5.383,10.149-8.032c3.596-2.689,7.395-5.36,11.337-7.95c3.968-2.55,8.033-5.091,12.202-7.456l3.132-1.761
						c1.057-0.561,2.114-1.121,3.168-1.68c2.099-1.137,4.228-2.196,6.345-3.235c2.099-1.076,4.235-2.034,6.343-2.983
						c2.094-0.979,4.209-1.842,6.278-2.714c2.062-0.888,4.118-1.694,6.144-2.447c1.01-0.382,2.009-0.761,2.997-1.134
						c0.998-0.345,1.983-0.686,2.955-1.023c3.869-1.401,7.606-2.484,11.036-3.529c3.462-0.94,6.626-1.833,9.472-2.454
						c2.846-0.621,5.303-1.247,7.361-1.614c2.049-0.404,3.669-0.672,4.768-0.876c1.1-0.197,1.686-0.303,1.686-0.303
						s-0.574,0.161-1.652,0.462c-1.078,0.295-2.652,0.758-4.666,1.284c-2.019,0.51-4.424,1.308-7.203,2.124
						c-1.392,0.4-2.853,0.897-4.392,1.419c-1.542,0.508-3.163,1.042-4.855,1.599c-3.349,1.219-6.992,2.478-10.781,3.988
						c-0.95,0.368-1.913,0.742-2.887,1.12c-0.964,0.406-1.939,0.817-2.925,1.232c-1.97,0.834-3.999,1.644-6.016,2.578
						c-4.072,1.778-8.204,3.781-12.375,5.864c-2.086,1.043-4.181,2.105-6.248,3.244c-1.038,0.56-2.078,1.121-3.119,1.683
						l-3.084,1.76c-4.137,2.307-8.173,4.789-12.114,7.281c-3.903,2.55-7.754,5.052-11.359,7.651
						c-3.63,2.563-7.063,5.148-10.294,7.634c-3.19,2.536-6.208,4.939-8.911,7.257c-5.423,4.616-9.799,8.647-12.739,11.595
						c-1.473,1.471-2.627,2.633-3.397,3.443C467.565,418.526,467.16,418.962,467.16,418.962z"/>
				</g>
			</g>
		</g>
		<g>
			<path style="fill:#31A8A5;" d="M225.016,381.25c-23.44,0-42.443,19.002-42.443,42.443h84.885
				C267.458,400.252,248.456,381.25,225.016,381.25z"/>
			<path style="fill:#48B7B7;" d="M190.723,393.493c-16.679,0-30.199,13.521-30.199,30.199h60.399
				C220.923,407.014,207.402,393.493,190.723,393.493z"/>
			<g>
				<path style="fill:#31A8A5;" d="M278.281,430.039c0,0,10.028-69.973-91.546-93.507c0,0,23.174,11.539,39.398,45.02
					S262.161,426.997,278.281,430.039z"/>
				<g>
					<path style="fill:#6ED3D1;" d="M271.774,421.003c0,0-0.734-1.57-2.178-4.227c-1.442-2.657-3.591-6.402-6.381-10.756
						c-1.384-2.183-2.969-4.492-4.645-6.931c-1.714-2.412-3.548-4.936-5.522-7.487c-1.949-2.571-4.09-5.126-6.256-7.727
						c-2.205-2.568-4.478-5.15-6.857-7.632l-1.765-1.879l-1.806-1.833c-1.191-1.231-2.419-2.414-3.644-3.582
						c-2.45-2.334-4.89-4.606-7.336-6.708c-1.2-1.079-2.435-2.073-3.624-3.072c-0.595-0.499-1.184-0.992-1.766-1.48
						c-0.596-0.47-1.184-0.935-1.764-1.393c-2.307-1.856-4.565-3.508-6.628-5.069c-1.055-0.748-2.066-1.464-3.028-2.146
						c-0.958-0.689-1.867-1.343-2.749-1.916c-1.76-1.151-3.251-2.23-4.54-3.021c-2.55-1.635-4.007-2.569-4.007-2.569
						s1.54,0.793,4.235,2.182c1.354,0.687,2.935,1.631,4.773,2.677c1.842,1.041,3.845,2.338,6.051,3.725
						c2.16,1.454,4.526,3,6.914,4.796c0.604,0.44,1.215,0.887,1.835,1.339c0.606,0.469,1.219,0.944,1.84,1.425
						c1.246,0.954,2.502,1.951,3.745,3.006c1.251,1.046,2.536,2.095,3.782,3.22c1.261,1.108,2.541,2.227,3.769,3.422
						c1.249,1.172,2.501,2.361,3.716,3.598l1.842,1.841l1.8,1.89c2.39,2.531,4.671,5.162,6.882,7.778
						c2.185,2.638,4.252,5.303,6.174,7.937c1.953,2.612,3.691,5.245,5.33,7.741c1.612,2.516,3.081,4.928,4.356,7.201
						c2.583,4.527,4.456,8.449,5.676,11.227c0.62,1.385,1.045,2.501,1.343,3.256C271.623,420.597,271.774,421.003,271.774,421.003z"
						/>
				</g>
			</g>
			<g>
				<path style="fill:#48B7B7;" d="M280.952,420.144c0,0,23.882-54.078-52.592-95.974c0,0,16.054,14.526,21.554,45.151
					S268.658,414.054,280.952,420.144z"/>
				<g>
					<path style="fill:#6ED3D1;" d="M277.753,411.398c0,0-0.058-0.358-0.2-1.022c-0.124-0.666-0.364-1.633-0.637-2.867
						c-0.304-1.228-0.66-2.719-1.129-4.414c-0.236-0.846-0.487-1.747-0.751-2.696c-0.288-0.942-0.59-1.933-0.905-2.967
						c-0.158-0.516-0.319-1.043-0.483-1.58c-0.182-0.531-0.368-1.073-0.557-1.624c-0.371-1.102-0.755-2.242-1.15-3.414
						c-0.437-1.156-0.885-2.344-1.344-3.559c-0.227-0.607-0.457-1.221-0.689-1.841c-0.236-0.618-0.506-1.23-0.761-1.854
						c-0.517-1.244-1.043-2.508-1.575-3.788c-0.542-1.275-1.172-2.531-1.745-3.823c-0.606-1.277-1.142-2.6-1.815-3.863
						c-0.656-1.271-1.315-2.547-1.974-3.823l-0.971-1.922l-1.06-1.869c-0.708-1.243-1.414-2.48-2.114-3.708
						c-0.677-1.243-1.449-2.413-2.185-3.587c-0.74-1.172-1.471-2.331-2.189-3.47c-0.368-0.564-0.698-1.148-1.088-1.682
						c-0.382-0.54-0.761-1.075-1.135-1.604c-0.745-1.063-1.473-2.103-2.182-3.115c-1.377-2.059-2.864-3.863-4.186-5.573
						c-0.664-0.853-1.301-1.671-1.906-2.449c-0.597-0.786-1.163-1.533-1.758-2.179c-1.151-1.332-2.154-2.492-2.981-3.448
						c-1.637-1.937-2.573-3.043-2.573-3.043s1.054,0.994,2.898,2.732c0.914,0.882,2.025,1.952,3.298,3.181
						c0.652,0.602,1.279,1.304,1.941,2.043c0.66,0.741,1.355,1.521,2.08,2.335c0.724,0.816,1.479,1.665,2.26,2.545
						c0.808,0.86,1.496,1.864,2.275,2.842c0.764,0.99,1.548,2.008,2.35,3.048c0.812,1.034,1.619,2.107,2.357,3.256
						c0.76,1.134,1.533,2.287,2.315,3.454c0.391,0.584,0.785,1.171,1.181,1.762c0.407,0.584,0.731,1.223,1.102,1.835
						c0.722,1.239,1.449,2.489,2.179,3.743l1.093,1.887l1.001,1.942c0.657,1.301,1.313,2.601,1.967,3.897
						c0.67,1.288,1.203,2.635,1.805,3.936c0.578,1.312,1.183,2.6,1.693,3.91c0.504,1.312,1.001,2.608,1.491,3.882
						c0.241,0.639,0.496,1.265,0.718,1.898c0.211,0.636,0.42,1.267,0.627,1.89c0.407,1.248,0.806,2.469,1.194,3.658
						c0.672,2.41,1.375,4.667,1.839,6.801c0.248,1.062,0.504,2.075,0.713,3.046c0.189,0.975,0.369,1.901,0.537,2.77
						c0.345,1.736,0.544,3.269,0.73,4.524c0.164,1.26,0.266,2.252,0.319,2.931C277.737,411.037,277.753,411.398,277.753,411.398z"/>
				</g>
			</g>
			<g>
				<path style="fill:#48B7B7;" d="M283.211,428.725c0,0-10.944-69.836-114.953-62.531c0,0,25.54,4.232,50.874,31.479
					S266.907,430.547,283.211,428.725z"/>
				<g>
					<path style="fill:#6ED3D1;" d="M274.338,421.996c0,0-1.162-1.286-3.323-3.402c-2.158-2.118-5.312-5.067-9.256-8.41
						c-1.964-1.681-4.157-3.423-6.474-5.263c-2.347-1.803-4.84-3.678-7.476-5.538c-2.618-1.886-5.414-3.7-8.248-5.551
						c-2.861-1.808-5.792-3.61-8.795-5.284l-2.239-1.278l-2.264-1.222c-1.5-0.827-3.021-1.598-4.535-2.355
						c-3.027-1.512-6.026-2.968-8.981-4.26c-1.464-0.679-2.936-1.267-4.366-1.874c-0.716-0.302-1.423-0.601-2.123-0.896
						c-0.707-0.275-1.406-0.547-2.096-0.814c-2.75-1.097-5.394-2.014-7.824-2.901c-1.228-0.405-2.405-0.794-3.524-1.163
						c-1.118-0.378-2.179-0.736-3.19-1.025c-2.02-0.584-3.762-1.178-5.226-1.556c-2.917-0.815-4.584-1.28-4.584-1.28
						s1.705,0.307,4.689,0.843c1.496,0.259,3.284,0.698,5.349,1.159c2.066,0.455,4.362,1.107,6.878,1.785
						c2.492,0.756,5.207,1.54,8.017,2.556c0.706,0.244,1.422,0.491,2.147,0.741c0.717,0.271,1.443,0.545,2.177,0.822
						c1.471,0.546,2.965,1.131,4.462,1.775c1.503,0.633,3.039,1.259,4.56,1.969c1.531,0.689,3.082,1.384,4.607,2.165
						c1.538,0.754,3.084,1.524,4.608,2.349l2.301,1.22l2.275,1.279c3.027,1.718,5.98,3.564,8.861,5.416
						c2.863,1.881,5.621,3.822,8.231,5.776c2.633,1.925,5.068,3.931,7.367,5.837c2.279,1.932,4.392,3.807,6.277,5.606
						c3.798,3.569,6.739,6.769,8.72,9.067c0.999,1.142,1.733,2.084,2.24,2.718C274.075,421.652,274.338,421.996,274.338,421.996z"/>
				</g>
			</g>
		</g>
	</g>
	<g>
		<g>
			<path style="fill:#1E8CEB;" d="M234.966,236.082h-67.058c-2.018,0-3.654,1.636-3.654,3.654v57.369
				c0,2.017,1.635,3.652,3.652,3.652h67.061c2.017,0,3.652-1.635,3.652-3.652v-57.37
				C238.619,237.718,236.984,236.082,234.966,236.082z"/>
			<g>
				<path style="fill:#FFFFFF;" d="M185.764,239.79c1.896-0.462,3.567,1.213,3.099,3.111c-0.219,0.888-0.951,1.615-1.841,1.827
					c-1.891,0.449-3.545-1.217-3.089-3.105C184.148,240.736,184.876,240.007,185.764,239.79z"/>
				<path style="fill:#FFFFFF;" d="M177.662,239.79c1.895-0.458,3.563,1.214,3.098,3.109c-0.218,0.889-0.95,1.617-1.841,1.829
					c-1.893,0.451-3.549-1.217-3.091-3.106C176.044,240.733,176.773,240.005,177.662,239.79z"/>
				<path style="fill:#FFFFFF;" d="M167.724,242.889c-0.455-1.888,1.199-3.55,3.089-3.102c0.89,0.211,1.622,0.937,1.841,1.825
					c0.468,1.898-1.205,3.576-3.101,3.113C168.665,244.508,167.938,243.778,167.724,242.889z"/>
				<path style="fill:#FFFFFF;" d="M232.935,296.639h-62.993c-0.999,0-1.81-0.81-1.81-1.81v-45.555c0-0.999,0.81-1.81,1.81-1.81
					h62.993c0.999,0,1.81,0.81,1.81,1.81v45.555C234.745,295.829,233.934,296.639,232.935,296.639z"/>
			</g>
		</g>
		<g>
			<g>
				<g>
					<g>
						<path style="fill:#1362C9;" d="M470.373,430.436H292.921c-6.483,0-11.738-5.255-11.738-11.738V97.278
							c0-6.483,5.255-11.738,11.738-11.738h177.452c6.483,0,11.738,5.255,11.738,11.738v321.419
							C482.111,425.18,476.856,430.436,470.373,430.436z"/>
						<path style="fill:#1E8CEB;" d="M457.079,430.436H279.627c-6.483,0-11.738-5.255-11.738-11.738V97.278
							c0-6.483,5.255-11.738,11.738-11.738h177.452c6.483,0,11.738,5.255,11.738,11.738v321.419
							C468.818,425.18,463.562,430.436,457.079,430.436z"/>
						<path style="fill:#FFFFFF;" d="M449.586,414.802H287.12c-4.231,0-7.661-3.43-7.661-7.661V108.835
							c0-4.231,3.43-7.661,7.661-7.661h162.465c4.231,0,7.661,3.43,7.661,7.661v298.305
							C457.247,411.372,453.817,414.802,449.586,414.802z"/>
					</g>
					<path style="fill:#1362C9;" d="M390.809,95.223h-36.914c-1.23,0-2.227-0.997-2.227-2.227v0c0-1.23,0.997-2.227,2.227-2.227
						h36.914c1.23,0,2.227,0.997,2.227,2.227v0C393.036,94.226,392.039,95.223,390.809,95.223z"/>
				</g>
				<g>
					<g>
						<g>
							<path style="fill:#FBB6C1;" d="M350.442,276.676c0.18-12.975-23.972-2.383-23.972-2.383s-10.857,31.292-12.403,35.256
								s-22.056,30.755-22.056,30.755l20.416,11.164c0,0,19.273-28.837,23.012-34.422
								C339.177,311.462,350.442,276.676,350.442,276.676z"/>
							<path style="fill:#FBB6C1;" d="M292.011,340.304c0,0-11.301,3.534-9.942,8.914c1.359,5.38,30.358,2.249,30.358,2.249
								L292.011,340.304z"/>
							<path style="fill:#FC9FAD;" d="M345.564,291.241l-1.638-13.306c0,0-9.044-2.773-14.028-4.973
								c-2.065,0.734-3.428,1.33-3.428,1.33s-3.368,9.706-6.619,18.991C330.288,293.441,345.564,291.241,345.564,291.241
								L345.564,291.241z"/>
							<path style="fill:#FF981E;" d="M317.065,281.217c0,0,18.938,11.374,35.81,10.237l9.674-48.406
								c0.673-6.604-3.533-12.725-9.939-14.466h0c-7.236-1.966-14.695,2.312-16.651,9.551L317.065,281.217z"/>
							<path style="fill:#023766;" d="M367.707,166.469c0,0-13.002,4.416-7.817,22.174c3.234,11.078-0.283,17.236-0.283,17.236
								s-6.26,11.341,2.518,18.653c9.072,7.557,24.74-5.405,24.74-5.405s-15.354-11.577-15.628-31.112
								C370.963,168.48,367.707,166.469,367.707,166.469z"/>
							<polygon style="fill:#FC9FAD;" points="382.036,208.375 374.734,251.957 393.043,255.025 401.393,205.186 							"/>
							<path style="fill:#FBB6C1;" d="M371.307,185.268c0,0-1.453,22.802,8.728,28.927c10.181,6.125,24.725-3.434,28.469-12.593
								c0,0,7.832-0.582,8.49-6.864c0.658-6.282-5.294-4.675-6.613-3.397c0,0-3.961-6.267-2.073-15.421
								S372.956,157.528,371.307,185.268z"/>
							<path style="fill:#FC9FAD;" d="M410.382,191.341c0,0-3.962-6.267-2.073-15.421s-35.353-18.393-37.002,9.348
								c0,0-0.059,1.006-0.067,2.601c1.744,0.476,7.99,1.49,16.391-5.114c9.947-7.819,17.509-4.169,17.509-4.169
								S405.33,187.812,410.382,191.341z"/>
							<g>
								<g>
									<g>
										<path style="fill:#FFAE1E;" d="M372.645,289.211l7.784-46.462l0.036-25.341l-6.587-1.104l0.58,7.189
											c0,0-14.008,2.504-21.976,4.497c-2.044,0.511-3.663,2.037-4.286,4.05c-3.025,9.772-12.001,20.092-12.323,28.581
											c-0.393,10.352,7.689,16.283,7.689,16.283s2.112,38.144-12.868,75.41l30.293,5.075L372.645,289.211"/>
									</g>
									<g>
										<path style="fill:#FFAE1E;" d="M360.989,357.389l57.784,9.681c0,0,16.999-100.068,18.373-108.269
											c2.115-12.624-3.86-15.676-15.701-23.713l-15.667-7.09l2.637-5.908l-15.042-2.52l-12.943,23.179L360.989,357.389z"/>
									</g>
									<path style="fill:#FF6F1E;" d="M410.568,253.009l-4.11,56.332l10.352-1.194l-1.666,58.543c0,0,10.911-11.563,14.65-19.924
										c3.738-8.361,4.988-28.718,4.137-36.916c-0.852-8.199-0.509-22-4.137-27.777s-8.803-16.527-9.002-17.522
										S410.568,253.009,410.568,253.009z"/>
									<polygon style="fill:#FFFFFF;" points="407.575,223.971 408.415,222.09 393.372,219.569 380.429,242.748 380.466,217.407 
										373.879,216.304 374.459,223.493 377.428,260.663 									"/>
								</g>
							</g>
							<path style="fill:#084384;" d="M408.309,175.92c0,0-11.82-4.348-21.443,3.629c-9.623,7.977-16.468,11.24-20.83,4.915
								c-5.714-8.285,1.463-34.875,27.44-36.363c25.977-1.488,30.468,15.049,30.468,15.049s14.146,7.894,12.366,24.17
								s-13.006,36.176-9.583,44.011c0,0-30.472,4.76-29.153-3.345c1.912-11.754,13.831-13.309,21.503-29.426
								S408.309,175.92,408.309,175.92z"/>
							<path style="fill:#084384;" d="M427.684,188.874c0.118-3.532-0.263-6.91-1.203-7.66c-0.94-0.749-2.992-3.342-2.992-3.342
								s-2.685-3.054-4.028-3.516c-1.343-0.462-6.255-2.942-6.735-2.904c-0.48,0.038-1.611-0.276-1.611-0.276l-2.807,4.745
								c-1.889,9.154,2.073,15.421,2.073,15.421c0.837-0.811,3.533-1.747,5.228-0.725c0.004,0.002,0.008,0.002,0.012,0.003
								c0.234,0.096,0.445,0.294,0.626,0.555c0.593,0.704,0.928,1.823,0.746,3.564c-0.658,6.282-8.49,6.864-8.49,6.864
								c-1.129,0.395-3.004,1.393-3.004,1.393c-3.275,1.847-8.255,5.746-9.817,12.954c-3.133,14.459,4.958,15.654,4.958,15.654
								s8.586-7.465,9.43-7.561c0.845-0.095,5.512-3.93,6.627-6.348s2.369-9.192,5.003-14.315
								C424.336,198.257,427.566,192.405,427.684,188.874z"/>
							<path style="fill:#FBB6C1;" d="M440.462,284.096c-5.427-11.787-22.66,8.177-22.66,8.177s3.683,32.917,3.996,37.16
								c0.313,4.243-6.654,37.257-6.654,37.257l23.234,1.279c0,0,4.969-34.327,5.937-40.977S440.462,284.096,440.462,284.096z"/>
							<path style="fill:#FC9FAD;" d="M442.335,299.342l-7.211-11.302c0,0-9.356,1.393-14.802,1.556
								c-1.547,1.552-2.521,2.677-2.521,2.677s1.142,10.21,2.209,19.99C429.497,307.909,442.335,299.342,442.335,299.342
								L442.335,299.342z"/>
							<path style="fill:#FF981E;" d="M412.298,302.574c0,0,21.991,2.105,36.727-6.189l-12.124-47.851
								c-2.238-6.25-8.671-9.962-15.202-8.772h0c-7.377,1.344-12.265,8.418-10.912,15.793L412.298,302.574z"/>
						</g>
						<g>
							<g>
								<path style="fill:#023766;" d="M394.093,194.645L394.093,194.645c-0.954-0.16-1.604-1.071-1.444-2.025l0.658-3.927
									c0.16-0.954,1.071-1.604,2.025-1.444l0,0c0.954,0.16,1.604,1.071,1.444,2.025l-0.658,3.927
									C395.958,194.155,395.047,194.805,394.093,194.645z"/>
								<path style="fill:#FFFFFF;" d="M396.993,190.337l-1.53-0.256c-0.324-0.054-0.545-0.364-0.49-0.688l0,0
									c0.054-0.324,0.364-0.545,0.688-0.49l1.53,0.256c0.324,0.054,0.545,0.364,0.49,0.688l0,0
									C397.627,190.171,397.317,190.391,396.993,190.337z"/>
							</g>
							<path style="fill:#023766;" d="M393.136,185.301c-0.022-0.815,2.528-3.143,6.622-0.822c2.49,1.411,1.002,2.284-1.141,1.286
								C395.063,184.11,393.158,186.115,393.136,185.301z"/>
						</g>
						<g>
							<g>
								<path style="fill:#023766;" d="M377.552,191.874L377.552,191.874c-0.954-0.16-1.604-1.071-1.444-2.025l0.658-3.927
									c0.16-0.954,1.071-1.604,2.025-1.444h0c0.954,0.16,1.603,1.071,1.444,2.025l-0.658,3.927
									C379.417,191.384,378.506,192.033,377.552,191.874z"/>
								<path style="fill:#FFFFFF;" d="M380.452,187.566l-1.53-0.256c-0.324-0.054-0.545-0.364-0.49-0.688l0,0
									c0.054-0.324,0.364-0.545,0.688-0.49l1.53,0.256c0.324,0.054,0.545,0.364,0.49,0.688l0,0
									C381.086,187.399,380.776,187.62,380.452,187.566z"/>
							</g>
							<path style="fill:#023766;" d="M376.595,182.529c-0.022-0.815,2.528-3.143,6.622-0.822c2.49,1.411,1.002,2.284-1.141,1.287
								C378.522,181.338,376.617,183.344,376.595,182.529z"/>
						</g>
						<path style="fill:#EA8196;" d="M385.171,190.675c0,0-2.86,5.427-4.967,7.16c-2.107,1.733,5.179,3.223,5.179,3.223
							s0.045-0.958-1.537-1.872C380.84,197.448,385.016,196.017,385.171,190.675z"/>
						<path style="fill:#FFFFFF;" d="M379.96,202.504c0,0,4.937,2.661,10.701,0.38c0,0-1.699,3.618-5.34,3.361
							S379.96,202.504,379.96,202.504z"/>
						<path style="fill:#FC9FAD;" d="M412.61,193.357c0,0,2.013-0.571,2.552,0.428c0.539,0.999-0.917,3.866-3.383,4.53
							c-2.466,0.663,0.2-0.795,1.218-2.05C414.608,194.281,411.286,194.027,412.61,193.357z"/>
					</g>
				</g>
				<rect x="279.459" y="339.588" style="fill:#084384;" width="177.788" height="9.173"/>
				<path style="fill:#1362C9;" d="M279.459,348.761v58.38c0,4.231,3.43,7.661,7.661,7.661h162.465c4.231,0,7.661-3.43,7.661-7.661
					v-58.38H279.459z"/>
				<g>
					<circle style="fill:#FFFFFF;" cx="368.353" cy="348.761" r="17.537"/>
					<path style="fill:#1362C9;" d="M373.562,350.632l-1.422,1.422l4.427,4.427l1.422-1.422c0.178-0.178,0.177-0.466-0.001-0.644
						l-3.781-3.781C374.028,350.454,373.74,350.454,373.562,350.632z M359.88,345.375c0.526,2.465,3.585,5.708,4.874,6.986
						c1.277,1.287,4.519,4.346,6.985,4.873c0.964,0.203,2.988,0.588,4.419-0.413l-4.389-4.389c-0.004,0.004-0.008,0.009-0.012,0.014
						c-0.429,0.238-1.57,0.478-3.559-1.756c-0.119-0.119-0.225-0.225-0.325-0.325c-1.12-1.12-1.123-1.123-1.123-1.123
						c-0.1-0.1-0.206-0.206-0.325-0.325c-2.233-1.988-1.994-3.13-1.756-3.559c0.005-0.004,0.009-0.008,0.014-0.012l-4.389-4.389
						C359.292,342.386,359.678,344.412,359.88,345.375z M362.057,339.126l-1.422,1.422l4.426,4.426l1.422-1.422
						c0.178-0.178,0.177-0.466,0-0.644l-3.783-3.783C362.523,338.949,362.235,338.949,362.057,339.126z"/>
				</g>
				<text transform="matrix(1 0 0 1 290.5142 143.5781)" style="fill:#1362C9; font-family:'Roboto-Bold'; font-size:5.7312px;">02 : 15 Video Call</text>
				<g>
					<text transform="matrix(1 0 0 1 290.5142 135.6714)" style="fill:#1362C9; font-family:'Roboto-Bold'; font-size:12.7804px;">Alex</text>
				</g>
				<g>
					<g>
						<circle style="fill:#1E8CEB;" cx="320.462" cy="389.923" r="10.703"/>
					</g>
				</g>
				<g>
					<g>
						<circle style="fill:#1E8CEB;" cx="368.353" cy="389.923" r="10.703"/>
					</g>
				</g>
				<g>
					<g>
						<g>
							<g>
								<path style="fill:#FFFFFF;" d="M368.353,384.662c0.524,0,0.95,0.426,0.95,0.95v3.437c0,0.524-0.426,0.95-0.95,0.95
									c-0.524,0-0.95-0.426-0.95-0.95v-3.437C367.403,385.089,367.829,384.662,368.353,384.662 M368.353,383.912
									c-0.939,0-1.7,0.761-1.7,1.7v3.437c0,0.939,0.761,1.7,1.7,1.7c0.939,0,1.7-0.761,1.7-1.7v-3.437
									C370.054,384.674,369.292,383.912,368.353,383.912L368.353,383.912z"/>
							</g>
						</g>
						<path style="fill:none;stroke:#FFFFFF;stroke-width:0.75;stroke-miterlimit:10;" d="M365,387.588v1.025
							c0,1.852,1.501,3.354,3.354,3.354l0,0v3.487"/>
						<path style="fill:none;stroke:#FFFFFF;stroke-width:0.75;stroke-miterlimit:10;" d="M371.707,387.588v1.025
							c0,1.852-1.501,3.354-3.354,3.354l0,0"/>
					</g>
					
						<line style="fill:none;stroke:#FFFFFF;stroke-width:0.75;stroke-miterlimit:10;" x1="366.861" y1="395.453" x2="369.895" y2="395.453"/>
				</g>
				<g>
					<path style="fill:none;stroke:#FFFFFF;stroke-width:0.75;stroke-miterlimit:10;" d="M324.604,387.063h-8.284
						c-0.591,0-1.07,0.479-1.07,1.07v4.291c0,0.591,0.479,1.07,1.07,1.07h8.284c0.591,0,1.07-0.479,1.07-1.07v-4.291
						C325.674,387.542,325.195,387.063,324.604,387.063z M320.462,391.818c-0.85,0-1.54-0.689-1.54-1.54
						c0-0.85,0.689-1.54,1.54-1.54c0.85,0,1.54,0.689,1.54,1.54C322.002,391.128,321.313,391.818,320.462,391.818z"/>
					<rect x="316.32" y="386.139" style="fill:#FFFFFF;" width="2.277" height="0.924"/>
				</g>
				<g>
					<g>
						<circle style="fill:#1E8CEB;" cx="416.244" cy="389.923" r="10.703"/>
					</g>
				</g>
				<g>
					<g>
						<path style="fill:#FFFFFF;" d="M416.245,394.391c-2.313,0-4.196-1.882-4.196-4.195c0-2.313,1.882-4.195,4.196-4.195v1.023
							c-1.75,0-3.172,1.423-3.172,3.172s1.423,3.172,3.172,3.172c1.749,0,3.171-1.423,3.171-3.172c0-0.862-0.34-1.668-0.956-2.269
							l0.715-0.732c0.815,0.796,1.264,1.862,1.264,3.002C420.439,392.509,418.558,394.391,416.245,394.391z"/>
					</g>
					<g>
						<polygon style="fill:#FFFFFF;" points="418.419,386.512 416.082,387.861 416.082,385.163 						"/>
					</g>
				</g>
				<g>
					<circle style="fill:#1362C9;" cx="435.761" cy="113.83" r="3.371"/>
					<circle style="fill:#1362C9;" cx="446.23" cy="113.83" r="3.371"/>
				</g>
				<polygon style="fill:#1362C9;" points="291.236,113.83 294.831,110.235 295.67,111.075 292.915,113.83 295.67,116.585 
					294.831,117.425 				"/>
				<g>
					<g>
						<polygon style="fill:#A4C1ED;" points="316.893,339.588 293.643,339.588 291.228,302.05 319.309,302.05 						"/>
						<path style="fill:#C7DEFF;" d="M320.065,305.582h-29.594c-0.975,0-1.766-0.791-1.766-1.766l0,0
							c0-0.975,0.791-1.766,1.766-1.766h29.594c0.975,0,1.766,0.791,1.766,1.766l0,0
							C321.831,304.791,321.04,305.582,320.065,305.582z"/>
					</g>
					<g>
						<g>
							<g>
								<path style="fill:#6590CE;" d="M304.959,320.61c-1.024-2.269-0.703-4.273-0.356-5.407c-1.567,0.545-2.738,2.633-2.738,5.141
									c0,2.762,1.422,5.004,3.23,5.242C305.376,324.905,306.007,322.928,304.959,320.61z"/>
							</g>
							<g>
								<path style="fill:#6590CE;" d="M305.715,315.101c-0.282,0.681-0.912,2.658,0.135,4.977c1.025,2.268,0.703,4.272,0.356,5.406
									c1.567-0.545,2.738-2.633,2.738-5.141C308.945,317.581,307.522,315.339,305.715,315.101z"/>
							</g>
						</g>
					</g>
				</g>
				<path style="fill:#C7DEFF;" d="M294.985,299.471l5.531,0.807c0.382,0.056,0.664,0.383,0.664,0.768v1.004h-7.084v-1.81
					C294.097,299.766,294.517,299.403,294.985,299.471z"/>
			</g>
			<g>
				<g>
					<path style="fill:#FFFFFF;" d="M223.764,278.658c-5.101,0-9.25-4.15-9.25-9.251V163.2c0-5.101,4.15-9.251,9.25-9.251h76.392
						c5.101,0,9.251,4.15,9.251,9.251v106.207c0,5.101-4.15,9.251-9.251,9.251H223.764z"/>
					<path style="fill:#1E8CEB;" d="M300.156,154.949c4.557,0,8.251,3.694,8.251,8.251v106.207c0,4.557-3.694,8.251-8.251,8.251
						h-76.392c-4.557,0-8.251-3.694-8.251-8.251V163.2c0-4.557,3.694-8.251,8.251-8.251H300.156 M300.156,152.949h-76.392
						c-5.652,0-10.251,4.598-10.251,10.251v106.207c0,5.652,4.598,10.251,10.251,10.251h76.392c5.652,0,10.251-4.598,10.251-10.251
						V163.2C310.407,157.548,305.808,152.949,300.156,152.949L300.156,152.949z"/>
				</g>
				<g>
					<defs>
						<path id="SVGID_1_" d="M300.156,277.658h-76.392c-4.557,0-8.251-3.694-8.251-8.251V163.2c0-4.557,3.694-8.251,8.251-8.251
							h76.392c4.557,0,8.251,3.694,8.251,8.251v106.207C308.407,273.964,304.713,277.658,300.156,277.658z"/>
					</defs>
					<clipPath id="SVGID_00000077310763508708131920000000593077980084084122_">
						<use xlink:href="#SVGID_1_"  style="overflow:visible;"/>
					</clipPath>
					<g style="clip-path:url(#SVGID_00000077310763508708131920000000593077980084084122_);">
						<g>
							<g>
								<g>
									<path style="fill:#FBB6C1;" d="M288.102,260.954c-0.136-9.813,18.13-1.802,18.13-1.802s8.211,23.666,9.38,26.664
										c1.169,2.998,16.681,23.26,16.681,23.26l-15.441,8.443c0,0-14.576-21.81-17.404-26.033
										C296.622,287.263,288.102,260.954,288.102,260.954z"/>
									<path style="fill:#FBB6C1;" d="M332.294,309.076c0,0,8.547,2.673,7.519,6.742s-22.96,1.701-22.96,1.701L332.294,309.076z"
										/>
									<path style="fill:#FC9FAD;" d="M291.791,271.97l1.239-10.063c0,0,6.84-2.097,10.61-3.761
										c1.562,0.555,2.593,1.006,2.593,1.006s2.547,7.34,5.006,14.363C303.345,273.634,291.792,271.97,291.791,271.97
										L291.791,271.97z"/>
									<path style="fill:#084384;" d="M313.346,264.389c0,0-14.323,8.602-27.083,7.743l-7.317-36.61
										c-0.509-4.995,2.672-9.624,7.517-10.94v0c5.473-1.487,11.114,1.749,12.593,7.224L313.346,264.389z"/>
									<polygon style="fill:#FC9FAD;" points="264.207,209.297 269.73,242.259 255.883,244.579 249.568,206.885 									"/>
									<path style="fill:#FBB6C1;" d="M272.322,191.822c0,0,1.099,17.245-6.601,21.877c-7.7,4.633-18.7-2.597-21.532-9.524
										c0,0-5.923-0.44-6.421-5.192c-0.498-4.751,4.004-3.536,5.001-2.569c0,0,2.996-4.74,1.568-11.663
										C242.909,177.829,271.075,170.842,272.322,191.822z"/>
									<path style="fill:#FC9FAD;" d="M242.77,196.415c0,0,2.996-4.74,1.568-11.663c-1.429-6.923,26.738-13.91,27.985,7.07
										c0,0,0.044,0.761,0.051,1.967c-1.319,0.36-6.043,1.127-12.397-3.868c-7.523-5.914-13.242-3.153-13.242-3.153
										S246.59,193.745,242.77,196.415z"/>
									<g>
										<g>
											<g>
												<path style="fill:#1362C9;" d="M271.31,270.434l-5.887-35.14l-0.028-19.166l4.982-0.835l-0.439,5.437
													c0,0,10.595,1.894,16.62,3.401c1.546,0.387,2.77,1.54,3.242,3.063c2.288,7.39,20.901,89.495,20.901,89.495
													l-30.575,5.308L271.31,270.434"/>
											</g>
											<g>
												<path style="fill:#1362C9;" d="M280.126,321.998l-43.702,7.322c0,0-12.857-75.682-13.896-81.885
													c-1.6-9.548,2.919-11.856,11.875-17.935l11.849-5.363l-1.994-4.468l11.377-1.906l9.789,17.53L280.126,321.998z"/>
											</g>
											<g>
												<path style="fill:#0456AF;" d="M242.628,243.054l3.108,42.604l-7.829-0.903l1.26,44.277c0,0-8.252-8.745-11.08-15.069
													c-2.827-6.323-3.773-21.719-3.129-27.92c0.644-6.201,0.385-16.639,3.129-21.008c2.743-4.369,6.658-12.499,6.808-13.252
													C235.047,251.03,242.628,243.054,242.628,243.054z"/>
											</g>
										</g>
									</g>
									<path style="fill:#FBB6C1;" d="M220.02,266.566c4.105-8.915,17.138,6.184,17.138,6.184s-2.786,24.895-3.022,28.104
										c-0.237,3.209,5.033,28.178,5.033,28.178l-17.572,0.967c0,0-3.758-25.962-4.49-30.991
										C216.374,293.979,220.02,266.566,220.02,266.566z"/>
									<path style="fill:#FC9FAD;" d="M218.603,278.096l5.454-8.547c0,0,7.076,1.054,11.195,1.177
										c1.17,1.174,1.906,2.025,1.906,2.025s-0.864,7.722-1.671,15.118C228.312,284.576,218.603,278.097,218.603,278.096
										L218.603,278.096z"/>
									<path style="fill:#084384;" d="M241.32,280.541c0,0-16.632,1.592-27.777-4.681l9.169-36.19
										c1.693-4.727,6.558-7.534,11.497-6.635l0,0c5.579,1.016,9.276,6.366,8.253,11.944L241.32,280.541z"/>
								</g>
								<g>
									<g>
										<path style="fill:#023766;" d="M255.088,198.913L255.088,198.913c0.721-0.121,1.213-0.81,1.092-1.531l-0.498-2.97
											c-0.121-0.721-0.81-1.213-1.531-1.092l0,0c-0.721,0.121-1.213,0.81-1.092,1.531l0.498,2.97
											C253.678,198.543,254.367,199.034,255.088,198.913z"/>
										<path style="fill:#FFFFFF;" d="M252.895,195.655l1.157-0.194c0.245-0.041,0.412-0.275,0.371-0.52l0,0
											c-0.041-0.245-0.275-0.412-0.52-0.371l-1.157,0.194c-0.245,0.041-0.412,0.275-0.371,0.52l0,0
											C252.416,195.529,252.65,195.696,252.895,195.655z"/>
									</g>
									<path style="fill:#023766;" d="M255.813,191.846c0.017-0.616-1.912-2.377-5.008-0.622
										c-1.883,1.067-0.758,1.727,0.863,0.973C254.355,190.946,255.796,192.462,255.813,191.846z"/>
								</g>
								<g>
									<g>
										<path style="fill:#023766;" d="M267.599,196.817L267.599,196.817c0.721-0.121,1.213-0.81,1.092-1.531l-0.498-2.97
											c-0.121-0.721-0.81-1.213-1.531-1.092l0,0c-0.721,0.121-1.213,0.81-1.092,1.531l0.498,2.97
											C266.188,196.447,266.877,196.938,267.599,196.817z"/>
										<path style="fill:#FFFFFF;" d="M265.405,193.559l1.157-0.194c0.245-0.041,0.412-0.275,0.371-0.52l0,0
											c-0.041-0.245-0.275-0.412-0.52-0.371l-1.157,0.194c-0.245,0.041-0.412,0.275-0.371,0.52l0,0
											C264.926,193.434,265.16,193.6,265.405,193.559z"/>
									</g>
									<path style="fill:#023766;" d="M268.323,189.75c0.017-0.616-1.912-2.377-5.008-0.622c-1.883,1.067-0.758,1.727,0.863,0.973
										C266.865,188.85,268.306,190.367,268.323,189.75z"/>
								</g>
								<path style="fill:#EA8196;" d="M261.837,195.911c0,0,2.163,4.105,3.757,5.415c1.593,1.31-3.917,2.437-3.917,2.437
									s-0.034-0.725,1.162-1.416C265.112,201.033,261.954,199.951,261.837,195.911z"/>
								<path style="fill:#FFFFFF;" d="M265.778,204.857c0,0-3.734,2.012-8.093,0.287c0,0,1.285,2.736,4.039,2.542
									S265.778,204.857,265.778,204.857z"/>
								<path style="fill:#FC9FAD;" d="M241.085,197.939c0,0-1.523-0.432-1.93,0.323c-0.408,0.755,0.693,2.924,2.559,3.426
									c1.865,0.502-0.151-0.602-0.921-1.55C239.573,198.638,242.085,198.446,241.085,197.939z"/>
							</g>
						</g>
						<path style="fill:#084384;" d="M239.07,195.742c0,0-6.439-7.371-4.019-12.077c1.027-1.997,4.019-3.167,4.019-3.167
							s-1.994-6.577,7.446-10.84c0,0,13.133-6.334,19.975-4.354c6.06,1.753,11.936,12.52,4.727,21.816c0,0-3.63-5.282-7.772-5.221
							c0,0,1.644,1.626,1.433,4.141c0,0-8.437-4.994-19.094-2.375c0,0,0.412,9.521-3.015,12.751
							C242.77,196.415,241.094,195.213,239.07,195.742z"/>
					</g>
				</g>
			</g>
		</g>
		<g>
			<g>
				<g>
					<path style="fill:#1E8CEB;" d="M219.315,131.306l3.631,3.631c5.011-5.011,13.144-5.011,18.155,0l3.631-3.631
						C237.716,124.289,226.332,124.289,219.315,131.306z"/>
					<path style="fill:#1E8CEB;" d="M212.053,124.044l3.631,3.631c9.023-9.023,23.656-9.023,32.679,0l3.631-3.631
						C240.965,113.015,223.083,113.015,212.053,124.044z"/>
				</g>
			</g>
			<circle style="fill:#1E8CEB;" cx="232.024" cy="138.57" r="3.633"/>
		</g>
		<g>
			<path style="fill:#1E8CEB;" d="M176.523,215.033c3.826,0,6.927-3.101,6.927-6.927c0-0.438-0.051-0.867-0.13-1.284
				c-0.592,0.579-1.401,0.938-2.294,0.938c-1.816,0-3.289-1.473-3.289-3.29c0-1.147,0.591-2.157,1.484-2.746
				c-0.829-0.351-1.74-0.545-2.699-0.545c-3.825,0-6.926,3.101-6.926,6.927S172.697,215.033,176.523,215.033z M176.523,224.2
				c-2.106,0-3.855-0.612-4.236-1.419l-7.871,1.237v2.943h12.094h0.026h12.096v-2.943l-7.872-1.237
				C180.379,223.588,178.629,224.2,176.523,224.2z M176.524,220.376c6.776-0.002,12.268-5.494,12.268-12.27
				c0-6.776-5.493-12.268-12.268-12.268c-6.778,0.001-12.268,5.492-12.27,12.268C164.256,214.881,169.747,220.374,176.524,220.376z
				 M176.524,198.208c5.466,0.008,9.887,4.431,9.898,9.897c-0.011,5.466-4.432,9.89-9.898,9.899c-5.467-0.009-9.891-4.433-9.9-9.899
				C166.633,202.64,171.056,198.216,176.524,198.208z"/>
			<rect x="172.286" y="218.954" style="fill:#1E8CEB;" width="8.553" height="6.484"/>
		</g>
		<g>
			<path style="fill:#1E8CEB;" d="M534.698,134.132h-86.577c-2.018,0-3.654,1.636-3.654,3.654v57.369
				c0,2.017,1.635,3.652,3.652,3.652h86.58c2.017,0,3.652-1.635,3.652-3.652v-57.37
				C538.351,135.767,536.716,134.132,534.698,134.132z"/>
			<g>
				<g>
					<g>
						<path style="fill:#E8EFFF;" d="M465.977,137.84c1.896-0.462,3.567,1.213,3.099,3.111c-0.219,0.888-0.951,1.615-1.841,1.827
							c-1.891,0.449-3.545-1.217-3.089-3.105C464.362,138.786,465.089,138.057,465.977,137.84z"/>
					</g>
					<g>
						<path style="fill:#E8EFFF;" d="M457.875,137.839c1.895-0.458,3.563,1.214,3.098,3.109c-0.218,0.889-0.95,1.617-1.841,1.829
							c-1.893,0.451-3.549-1.217-3.091-3.106C456.257,138.783,456.986,138.054,457.875,137.839z"/>
					</g>
					<g>
						<path style="fill:#E8EFFF;" d="M447.937,140.939c-0.455-1.888,1.199-3.55,3.089-3.102c0.89,0.211,1.622,0.937,1.841,1.825
							c0.468,1.898-1.205,3.576-3.101,3.113C448.879,142.558,448.151,141.828,447.937,140.939z"/>
					</g>
					<path style="fill:#FFFFFF;" d="M532.667,194.689h-82.512c-0.999,0-1.81-0.81-1.81-1.81v-45.555c0-0.999,0.81-1.81,1.81-1.81
						h82.512c0.999,0,1.81,0.81,1.81,1.81v45.555C534.477,193.879,533.666,194.689,532.667,194.689z"/>
				</g>
			</g>
			<rect x="470.398" y="153.551" style="fill:#1E8CEB;" width="54.466" height="3.804"/>
			<rect x="457.958" y="161.332" style="fill:#1E8CEB;" width="66.906" height="3.804"/>
			<rect x="457.958" y="169.113" style="fill:#1E8CEB;" width="66.906" height="3.804"/>
			<rect x="457.958" y="176.894" style="fill:#1E8CEB;" width="66.906" height="3.804"/>
			<rect x="457.958" y="184.675" style="fill:#1E8CEB;" width="66.906" height="3.804"/>
		</g>
	</g>
	<g>
		<g>
			<g>
				<circle style="fill:#1E8CEB;" cx="224.912" cy="164.362" r="5.172"/>
			</g>
		</g>
		<g>
			<g>
				<path style="fill:#FFFFFF;" d="M224.912,166.521c-1.118,0-2.027-0.909-2.027-2.027c0-1.118,0.91-2.027,2.027-2.027v0.494
					c-0.845,0-1.533,0.688-1.533,1.533c0,0.845,0.688,1.533,1.533,1.533c0.845,0,1.533-0.688,1.533-1.533
					c0-0.416-0.164-0.806-0.462-1.097l0.346-0.354c0.394,0.385,0.611,0.9,0.611,1.45
					C226.939,165.611,226.03,166.521,224.912,166.521z"/>
			</g>
			<g>
				<polygon style="fill:#FFFFFF;" points="225.963,162.714 224.834,163.365 224.834,162.062 				"/>
			</g>
		</g>
	</g>
</g>
</svg>
